STARTFONT 2.1
FONT -HP-Sung-Medium-R-Normal--34-340-75-75-C-340-CNS11643.1992-1
SIZE 34 75 75
FONTBOUNDINGBOX 34 34 0 -2

STARTPROPERTIES 23
FONTNAME_REGISTRY ""
FOUNDRY "HP"
FAMILY_NAME "Sung"
WEIGHT_NAME "Medium"
SLANT "R"
SETWIDTH_NAME "Normal"
ADD_STYLE_NAME ""
PIXEL_SIZE 34
POINT_SIZE 340
RESOLUTION_X 75
RESOLUTION_Y 75
SPACING "C"
AVERAGE_WIDTH 340
CHARSET_REGISTRY "CNS11643.1992"
CHARSET_ENCODING "1"
COPYRIGHT "Copyright (c) 1994 Hewlett-Packard Company."
_HP_ASXVERSION "@(#) ASX 3.00 $Revision: 13.9 $ sung34n1"
WEIGHT 10
X_HEIGHT 32
QUAD_WIDTH 34
DEFAULT_CHAR 9039
FONT_DESCENT 2
FONT_ASCENT 32
ENDPROPERTIES

CHARS 6086

STARTCHAR cns1_2121
ENCODING 8481
SWIDTH 960 0
DWIDTH 34 0
BBX 34 34 0 -2
BITMAP
0000000000
0000000000
0000000000
0000000000
0000000000
0000000000
0000000000
0000000000
0000000000
0000000000
0000000000
0000000000
0000000000
0000000000
0000000000
0000000000
0000000000
0000000000
0000000000
0000000000
0000000000
0000000000
0000000000
0000000000
0000000000
0000000000
0000000000
0000000000
0000000000
0000000000
0000000000
0000000000
0000000000
0000000000
ENDCHAR

STARTCHAR cns1_2122
ENCODING 8482
SWIDTH 960 0
DWIDTH 34 0
BBX 34 34 0 -2
BITMAP
0000000000
0000000000
0000000000
0000000000
0000000000
0000000000
0000000000
0000000000
0000000000
0000000000
0000000000
0000000000
0000000000
0001E00000
0003F00000
0003F00000
0001F00000
0000300000
0000600000
0000600000
0000C00000
0001800000
0002000000
0000000000
0000000000
0000000000
0000000000
0000000000
0000000000
0000000000
0000000000
0000000000
0000000000
0000000000
ENDCHAR

STARTCHAR cns1_2123
ENCODING 8483
SWIDTH 960 0
DWIDTH 34 0
BBX 34 34 0 -2
BITMAP
0000000000
0000000000
0000000000
0000000000
0000000000
0000000000
0000000000
0000000000
0000000000
0000000000
0000000000
0000000000
0000000000
0000000000
0007800000
0001E00000
0000F00000
0000780000
00003C0000
00001C0000
0000000000
0000000000
0000000000
0000000000
0000000000
0000000000
0000000000
0000000000
0000000000
0000000000
0000000000
0000000000
0000000000
0000000000
ENDCHAR

STARTCHAR cns1_2124
ENCODING 8484
SWIDTH 960 0
DWIDTH 34 0
BBX 34 34 0 -2
BITMAP
0000000000
0000000000
0000000000
0000000000
0000000000
0000000000
0000000000
0000000000
0000000000
0000000000
0000000000
0000000000
0000000000
0001F00000
0003180000
00060C0000
00040C0000
000C0C0000
00060C0000
00061C0000
0003F80000
0000E00000
0000000000
0000000000
0000000000
0000000000
0000000000
0000000000
0000000000
0000000000
0000000000
0000000000
0000000000
0000000000
ENDCHAR

STARTCHAR cns1_2125
ENCODING 8485
SWIDTH 960 0
DWIDTH 34 0
BBX 34 34 0 -2
BITMAP
0000000000
0000000000
0000000000
0000000000
0000000000
0000000000
0000000000
0000000000
0000000000
0000000000
0000000000
0000000000
0000000000
0000000000
0000000000
0000000000
0000000000
0000000000
0000000000
0000000000
0000000000
0000000000
0000000000
0000000000
01C0000000
03E0000000
03E0000000
03E0000000
0000000000
0000000000
0000000000
0000000000
0000000000
0000000000
ENDCHAR

STARTCHAR cns1_2126
ENCODING 8486
SWIDTH 960 0
DWIDTH 34 0
BBX 34 34 0 -2
BITMAP
0000000000
0000000000
0000000000
0000000000
0000000000
0000000000
0000000000
0000000000
0000000000
0000000000
0000000000
0000000000
0000000000
0000000000
0001F00000
0003F00000
0003F80000
0003F80000
0003F00000
0001F00000
0000000000
0000000000
0000000000
0000000000
0000000000
0000000000
0000000000
0000000000
0000000000
0000000000
0000000000
0000000000
0000000000
0000000000
ENDCHAR

STARTCHAR cns1_2127
ENCODING 8487
SWIDTH 960 0
DWIDTH 34 0
BBX 34 34 0 -2
BITMAP
0000000000
0000000000
0000000000
0000000000
0000000000
0000000000
0001E00000
0001F00000
0001F00000
0000E00000
0000000000
0000000000
0000000000
0000000000
0000000000
0000000000
0000000000
0000000000
0000000000
0000000000
0000000000
0001E00000
0001F00000
0001F00000
0000F00000
0000600000
0000E00000
0000C00000
0001000000
0000000000
0000000000
0000000000
0000000000
0000000000
ENDCHAR

STARTCHAR cns1_2128
ENCODING 8488
SWIDTH 960 0
DWIDTH 34 0
BBX 34 34 0 -2
BITMAP
0000000000
0000000000
0000000000
0000000000
0000000000
0000000000
0000000000
0000C00000
0001F00000
0001F00000
0001F00000
0000E00000
0000000000
0000000000
0000000000
0000000000
0000000000
0000000000
0000000000
0000000000
0000000000
0000000000
0000C00000
0001F00000
0001F00000
0001F00000
0000600000
0000000000
0000000000
0000000000
0000000000
0000000000
0000000000
0000000000
ENDCHAR

STARTCHAR cns1_2129
ENCODING 8489
SWIDTH 960 0
DWIDTH 34 0
BBX 34 34 0 -2
BITMAP
0000000000
0000000000
0000000000
0000000000
0000000000
0003C00000
000EF80000
003C1C0000
00380E0000
00380F0000
00780F0000
00000F0000
00000F0000
00001E0000
00003E0000
0000780000
0000F00000
0001C00000
0001800000
0001800000
0001800000
0001800000
0000000000
0000000000
0000000000
0003E00000
0003E00000
0003E00000
0003C00000
0000000000
0000000000
0000000000
0000000000
0000000000
ENDCHAR

STARTCHAR cns1_212A
ENCODING 8490
SWIDTH 960 0
DWIDTH 34 0
BBX 34 34 0 -2
BITMAP
0000000000
0000000000
0000000000
0000000000
0000000000
0000000000
0001E00000
0001F00000
0001F00000
0001F00000
0001F00000
0001F00000
0000E00000
0000E00000
0000E00000
0000E00000
0000E00000
0000E00000
0000E00000
0000E00000
0000E00000
0000E00000
0000000000
0000000000
0000000000
0001F00000
0001F00000
0001F00000
0000000000
0000000000
0000000000
0000000000
0000000000
0000000000
ENDCHAR

STARTCHAR cns1_212B
ENCODING 8491
SWIDTH 960 0
DWIDTH 34 0
BBX 34 34 0 -2
BITMAP
0000000000
0000000000
0000000000
0000000000
0000000000
0000000000
0000000000
0000C00000
0001F00000
0001F00000
0001F00000
0000E00000
0000000000
0000000000
0000000000
0000000000
0000000000
0000000000
0000000000
0000000000
0000000000
0000000000
0000C00000
0001F00000
0001F00000
0001F00000
0000600000
0000000000
0000000000
0000000000
0000000000
0000000000
0000000000
0000000000
ENDCHAR

STARTCHAR cns1_212C
ENCODING 8492
SWIDTH 960 0
DWIDTH 34 0
BBX 34 34 0 -2
BITMAP
0000000000
0000000000
0000000000
0000000000
0000000000
0000000000
0000000000
0000000000
0000000000
0000000000
0000000000
0000000000
0000000000
0000000000
0000000000
0201C03000
0F83E07800
0F83E07800
0F01C07800
0000000000
0000000000
0000000000
0000000000
0000000000
0000000000
0000000000
0000000000
0000000000
0000000000
0000000000
0000000000
0000000000
0000000000
0000000000
ENDCHAR

STARTCHAR cns1_212D
ENCODING 8493
SWIDTH 960 0
DWIDTH 34 0
BBX 34 34 0 -2
BITMAP
0000000000
0000000000
0000000000
0000000000
0000000000
0000000000
0000000000
0000000000
0000000000
0000000000
0000000000
0000000000
0000000000
0000000000
0000000000
00F001E000
01F003E000
00F803F000
00F001E000
0000000000
0000000000
0000000000
0000000000
0000000000
0000000000
0000000000
0000000000
0000000000
0000000000
0000000000
0000000000
0000000000
0000000000
0000000000
ENDCHAR

STARTCHAR cns1_212E
ENCODING 8494
SWIDTH 960 0
DWIDTH 34 0
BBX 34 34 0 -2
BITMAP
0000000000
0000000000
0000000000
0000000000
0000000000
0000000000
0000000000
0000000000
0000000000
0000000000
0000000000
0000000000
0000000000
0000000000
0000000000
0000000000
0000000000
0000000000
0000000000
0000000000
0000000000
0000000000
0000000000
0380000000
07C0000000
07E0000000
07E0000000
07E0000000
01C0000000
01C0000000
0180000000
0300000000
0000000000
0000000000
ENDCHAR

STARTCHAR cns1_212F
ENCODING 8495
SWIDTH 960 0
DWIDTH 34 0
BBX 34 34 0 -2
BITMAP
0000000000
0000000000
0000000000
0000000000
0000000000
0000000000
0000000000
0000000000
0000000000
0000000000
0000000000
0000000000
0000000000
0000000000
0000000000
0000000000
0000000000
0000000000
0000000000
0000000000
0000000000
0000000000
0000000000
0000000000
1C00000000
0700000000
07C0000000
03E0000000
01E0000000
00E0000000
0020000000
0000000000
0000000000
0000000000
ENDCHAR

STARTCHAR cns1_2130
ENCODING 8496
SWIDTH 960 0
DWIDTH 34 0
BBX 34 34 0 -2
BITMAP
0000000000
0000000000
0000000000
0000000000
0000000000
0000000000
0000000000
0000000000
0000000000
0000000000
0000000000
0000000000
0000000000
0000000000
0000000000
0000000000
0000000000
0000000000
0000000000
0000000000
0000000000
0000000000
0000000000
0000000000
0380000000
07C0000000
07C0000000
03C0000000
0000000000
0000000000
0000000000
0000000000
0000000000
0000000000
ENDCHAR

STARTCHAR cns1_2131
ENCODING 8497
SWIDTH 960 0
DWIDTH 34 0
BBX 34 34 0 -2
BITMAP
0000000000
0000000000
0000000000
0000000000
0000000000
0000000000
0000000000
0000000000
0000000000
0000000000
0000000000
0000000000
0000000000
0000000000
0700000000
0780000000
0F80000000
0780000000
0000000000
0000000000
0000000000
0000000000
0000000000
0000000000
0000000000
0000000000
0000000000
0000000000
0000000000
0000000000
0000000000
0000000000
0000000000
0000000000
ENDCHAR

STARTCHAR cns1_2132
ENCODING 8498
SWIDTH 960 0
DWIDTH 34 0
BBX 34 34 0 -2
BITMAP
0000000000
0000000000
0000000000
0000000000
0000000000
0000000000
0001E00000
0001F00000
0001F00000
0000E00000
0000000000
0000000000
0000000000
0000000000
0000000000
0000000000
0000000000
0000000000
0000000000
0000000000
0000000000
0000E00000
0001F00000
0001F00000
0000F00000
0000700000
0000600000
0000C00000
0000000000
0000000000
0000000000
0000000000
0000000000
0000000000
ENDCHAR

STARTCHAR cns1_2133
ENCODING 8499
SWIDTH 960 0
DWIDTH 34 0
BBX 34 34 0 -2
BITMAP
0000000000
0000000000
0000000000
0000000000
0000000000
0000000000
0000000000
0000000000
0001F00000
0001F00000
0001F00000
0000400000
0000000000
0000000000
0000000000
0000000000
0000000000
0000000000
0000000000
0000000000
0000000000
0000000000
0000000000
0001F00000
0001F00000
0001F00000
0000E00000
0000000000
0000000000
0000000000
0000000000
0000000000
0000000000
0000000000
ENDCHAR

STARTCHAR cns1_2134
ENCODING 8500
SWIDTH 960 0
DWIDTH 34 0
BBX 34 34 0 -2
BITMAP
0000000000
0000000000
0000000000
0000000000
0000000000
0000000000
0000000000
0003F80000
000E3C0000
001C0E0000
001C0E0000
003C070000
0000060000
00000E0000
00000E0000
00003C0000
0000700000
0000E00000
0000C00000
0000C00000
0000C00000
0000000000
0000000000
0000000000
0001E00000
0001E00000
0001E00000
0000000000
0000000000
0000000000
0000000000
0000000000
0000000000
0000000000
ENDCHAR

STARTCHAR cns1_2135
ENCODING 8501
SWIDTH 960 0
DWIDTH 34 0
BBX 34 34 0 -2
BITMAP
0000000000
0000000000
0000000000
0000000000
0000000000
0000000000
0001E00000
0001E00000
0001E00000
0001E00000
0001C00000
0001C00000
0000C00000
0000C00000
0000C00000
0000C00000
0000C00000
0000C00000
0000C00000
0000C00000
0000C00000
0000C00000
0000000000
0000000000
0000000000
0001E00000
0003E00000
0003E00000
0001E00000
0000000000
0000000000
0000000000
0000000000
0000000000
ENDCHAR

STARTCHAR cns1_2136
ENCODING 8502
SWIDTH 960 0
DWIDTH 34 0
BBX 34 34 0 -2
BITMAP
0000000000
0000000000
0000C00000
0000C00000
0000C00000
0000C00000
0000C00000
0000C00000
0000C00000
0000C00000
0000C00000
0000C00000
0000C00000
0000C00000
0000C00000
0000C00000
0000C00000
0000C00000
0000C00000
0000C00000
0000C00000
0000C00000
0000C00000
0000C00000
0000C00000
0000C00000
0000C00000
0000C00000
0000C00000
0000C00000
0000C00000
0000C00000
0000000000
0000000000
ENDCHAR

STARTCHAR cns1_2137
ENCODING 8503
SWIDTH 960 0
DWIDTH 34 0
BBX 34 34 0 -2
BITMAP
0000000000
0000000000
0000000000
0000000000
0000000000
0000000000
0000000000
0000000000
0000000000
0000000000
0000000000
0000000000
0000000000
0000000000
0000000000
0000000000
07FFFFF800
07FFFFF800
0000000000
0000000000
0000000000
0000000000
0000000000
0000000000
0000000000
0000000000
0000000000
0000000000
0000000000
0000000000
0000000000
0000000000
0000000000
0000000000
ENDCHAR

STARTCHAR cns1_2138
ENCODING 8504
SWIDTH 960 0
DWIDTH 34 0
BBX 34 34 0 -2
BITMAP
0000000000
0000000000
0000000000
0000C00000
0000C00000
0000C00000
0000C00000
0000C00000
0000C00000
0000C00000
0000C00000
0000C00000
0000C00000
0000C00000
0000C00000
0000C00000
0000C00000
0000C00000
0000C00000
0000C00000
0000C00000
0000C00000
0000C00000
0000C00000
0000C00000
0000C00000
0000C00000
0000C00000
0000C00000
0000C00000
0000000000
0000000000
0000000000
0000000000
ENDCHAR

STARTCHAR cns1_2139
ENCODING 8505
SWIDTH 960 0
DWIDTH 34 0
BBX 34 34 0 -2
BITMAP
0000000000
0000000000
0000000000
0000000000
0000000000
0000000000
0000000000
0000000000
0000000000
0000000000
0000000000
0000000000
0000000000
0000000000
0000000000
0000000000
0000000000
0FFFFFFE00
0000000000
0000000000
0000000000
0000000000
0000000000
0000000000
0000000000
0000000000
0000000000
0000000000
0000000000
0000000000
0000000000
0000000000
0000000000
0000000000
ENDCHAR

STARTCHAR cns1_213A
ENCODING 8506
SWIDTH 960 0
DWIDTH 34 0
BBX 34 34 0 -2
BITMAP
0000000000
0000000000
0000000000
0000000600
0000000600
0000000600
0000000600
0000000600
0000000600
0000000600
0000000600
0000000600
0000000600
0000000600
0000000600
0000000600
0000000600
0000000600
0000000600
0000000600
0000000600
0000000600
0000000600
0000000600
0000000600
0000000600
0000000600
0000000600
0000000600
0000000600
0000000000
0000000000
0000000000
0000000000
ENDCHAR

STARTCHAR cns1_213B
ENCODING 8507
SWIDTH 960 0
DWIDTH 34 0
BBX 34 34 0 -2
BITMAP
0000000000
0000000000
0000000000
3FFFFFFF80
3FFFFFFF80
0000000000
0000000000
0000000000
0000000000
0000000000
0000000000
0000000000
0000000000
0000000000
0000000000
0000000000
0000000000
0000000000
0000000000
0000000000
0000000000
0000000000
0000000000
0000000000
0000000000
0000000000
0000000000
0000000000
0000000000
0000000000
0000000000
0000000000
0000000000
0000000000
ENDCHAR

STARTCHAR cns1_213C
ENCODING 8508
SWIDTH 960 0
DWIDTH 34 0
BBX 34 34 0 -2
BITMAP
0000000000
0000000000
0000000600
0000000300
0000000180
0000000180
0000000180
0000000180
0000000300
0000000600
0000000600
0000000C00
0000000600
0000000700
0000000380
0000000180
0000000180
0000000180
0000000300
0000000600
0000000600
0000000C00
0000000600
0000000700
0000000380
0000000180
0000000180
0000000180
0000000300
0000000200
0000000600
0000000C00
0000000000
0000000000
ENDCHAR

STARTCHAR cns1_213D
ENCODING 8509
SWIDTH 960 0
DWIDTH 34 0
BBX 34 34 0 -2
BITMAP
0000000000
0380E03800
06E1B87C00
0C731CC600
383E078300
2018030180
0000000000
0000000000
0000000000
0000000000
0000000000
0000000000
0000000000
0000000000
0000000000
0000000000
0000000000
0000000000
0000000000
0000000000
0000000000
0000000000
0000000000
0000000000
0000000000
0000000000
0000000000
0000000000
0000000000
0000000000
0000000000
0000000000
0000000000
0000000000
ENDCHAR

STARTCHAR cns1_213E
ENCODING 8510
SWIDTH 960 0
DWIDTH 34 0
BBX 34 34 0 -2
BITMAP
0000000000
0000000000
0000000000
0000020000
0000060000
00000C0000
00000C0000
0000180000
0000380000
0000300000
0000700000
0000700000
0000600000
0000600000
0000E00000
0000E00000
0000E00000
0000E00000
0000E00000
0000E00000
0000600000
0000600000
0000600000
0000300000
0000300000
0000380000
0000180000
00001C0000
00000C0000
0000060000
0000030000
0000000000
0000000000
0000000000
ENDCHAR

STARTCHAR cns1_213F
ENCODING 8511
SWIDTH 960 0
DWIDTH 34 0
BBX 34 34 0 -2
BITMAP
0000000000
0000000000
0000000000
0008000000
000C000000
0006000000
0006000000
0003000000
0003800000
0001800000
0001800000
0001C00000
0000C00000
0000E00000
0000E00000
0000E00000
0000E00000
0000E00000
0000E00000
0000E00000
0000C00000
0001C00000
0001C00000
0001C00000
0001800000
0003800000
0003000000
0006000000
0006000000
000C000000
0018000000
0000000000
0000000000
0000000000
ENDCHAR

STARTCHAR cns1_2140
ENCODING 8512
SWIDTH 960 0
DWIDTH 34 0
BBX 34 34 0 -2
BITMAP
0000000000
0000000000
0000000000
0000000000
0000000000
0000000000
0000000000
0000000000
0000000000
0000000000
0000000000
0000000000
0000000000
0000000000
0000000000
0000000000
0000000000
0000000000
0007F80000
007E3F8000
00E001E000
0180007000
0700003800
0C00000E00
1800000300
0000000000
0000000000
0000000000
0000000000
0000000000
0000000000
0000000000
0000000000
0000000000
ENDCHAR

STARTCHAR cns1_2141
ENCODING 8513
SWIDTH 960 0
DWIDTH 34 0
BBX 34 34 0 -2
BITMAP
0000000000
0000000000
0000000000
0000000000
0000000000
0000000000
0000000000
0000000000
0000000000
1800000600
0C00000C00
0700001800
01C0007000
00F003C000
003FFF0000
000FFC0000
0000000000
0000000000
0000000000
0000000000
0000000000
0000000000
0000000000
0000000000
0000000000
0000000000
0000000000
0000000000
0000000000
0000000000
0000000000
0000000000
0000000000
0000000000
ENDCHAR

STARTCHAR cns1_2142
ENCODING 8514
SWIDTH 960 0
DWIDTH 34 0
BBX 34 34 0 -2
BITMAP
0000000000
0000000000
0000008000
0000070000
00000E0000
00000C0000
00000C0000
00000C0000
00000C0000
00000C0000
00000C0000
00000C0000
00000C0000
00000C0000
00001C0000
0000380000
0000E00000
0000700000
0000300000
0000180000
00000C0000
00000C0000
00000C0000
00000C0000
00000C0000
00000C0000
00000C0000
00000C0000
00000C0000
0000060000
0000070000
0000038000
0000000000
0000000000
ENDCHAR

STARTCHAR cns1_2143
ENCODING 8515
SWIDTH 960 0
DWIDTH 34 0
BBX 34 34 0 -2
BITMAP
0000000000
0000000000
0000000000
0038000000
000E000000
0006000000
0006000000
0006000000
0006000000
0006000000
0006000000
0006000000
0006000000
0006000000
0007000000
0003000000
0001C00000
0000C00000
0001800000
0003000000
0006000000
0006000000
0006000000
0006000000
0006000000
0006000000
0006000000
0006000000
0006000000
000C000000
001C000000
0030000000
0000000000
0000000000
ENDCHAR

STARTCHAR cns1_2144
ENCODING 8516
SWIDTH 960 0
DWIDTH 34 0
BBX 34 34 0 -2
BITMAP
0000000000
0000000000
0000000000
0000000000
0000000000
0000000000
0000000000
0000000000
0000000000
0000000000
0000000000
0000000000
0000000000
0000000000
0000000000
0000000000
0000C00000
0000E00000
0001E00000
0003B00000
0FFF3FF800
1C00000E00
1800000600
3000000300
0000000000
0000000000
0000000000
0000000000
0000000000
0000000000
0000000000
0000000000
0000000000
0000000000
ENDCHAR

STARTCHAR cns1_2145
ENCODING 8517
SWIDTH 960 0
DWIDTH 34 0
BBX 34 34 0 -2
BITMAP
0000000000
0000000000
0000000000
0000000000
0000000000
0000000000
0000000000
0000000000
0000000000
0000000100
7000000300
3000000300
1800000E00
0FFF1FFC00
0003300000
0001E00000
0000C00000
0000C00000
0000000000
0000000000
0000000000
0000000000
0000000000
0000000000
0000000000
0000000000
0000000000
0000000000
0000000000
0000000000
0000000000
0000000000
0000000000
0000000000
ENDCHAR

STARTCHAR cns1_2146
ENCODING 8518
SWIDTH 960 0
DWIDTH 34 0
BBX 34 34 0 -2
BITMAP
0000000000
0000000000
0000000000
000000E000
0000038000
00000E0000
0000180000
0000180000
0000180000
0000180000
0000180000
0000180000
0000180000
0000180000
0000180000
0000180000
0000180000
0000180000
0000180000
0000180000
0000180000
0000180000
0000180000
0000180000
0000180000
0000180000
0000180000
00001C0000
0000060000
0000038000
000000C000
0000006000
0000000000
0000000000
ENDCHAR

STARTCHAR cns1_2147
ENCODING 8519
SWIDTH 960 0
DWIDTH 34 0
BBX 34 34 0 -2
BITMAP
0000000000
0000000000
00C0000000
0070000000
003C000000
000F000000
0003800000
0003800000
0003800000
0003800000
0003800000
0003800000
0003800000
0003800000
0003800000
0003800000
0003800000
0003800000
0003800000
0003800000
0003800000
0003800000
0003800000
0003800000
0003800000
0003800000
0003800000
0003800000
000F000000
001C000000
0070000000
00C0000000
0000000000
0000000000
ENDCHAR

STARTCHAR cns1_2148
ENCODING 8520
SWIDTH 960 0
DWIDTH 34 0
BBX 34 34 0 -2
BITMAP
0000000000
0000000000
0000000000
0000000000
0000000000
0000000000
0000000000
0000000000
0000000000
0000000000
0000000000
0000000000
0000000000
0000000000
0000000000
0000000000
0000000000
0000000000
0000000000
03FFFFF000
0300001800
0700001C00
0E00000C00
0C00000600
1C00000600
1800000300
3000000300
0000000000
0000000000
0000000000
0000000000
0000000000
0000000000
0000000000
ENDCHAR

STARTCHAR cns1_2149
ENCODING 8521
SWIDTH 960 0
DWIDTH 34 0
BBX 34 34 0 -2
BITMAP
0000000000
0000000000
0000000000
0000000000
0000000000
0000000000
1800000300
3800000300
1C00000600
0C00000600
0600000C00
0600001C00
0300001800
03FFFFF000
0000000000
0000000000
0000000000
0000000000
0000000000
0000000000
0000000000
0000000000
0000000000
0000000000
0000000000
0000000000
0000000000
0000000000
0000000000
0000000000
0000000000
0000000000
0000000000
0000000000
ENDCHAR

STARTCHAR cns1_214A
ENCODING 8522
SWIDTH 960 0
DWIDTH 34 0
BBX 34 34 0 -2
BITMAP
0000000000
0000002000
00007FE000
00007FC000
00007F8000
00007F0000
00007E0000
00007E0000
00007C0000
00007C0000
0000780000
0000780000
0000780000
0000780000
0000700000
0000700000
0000700000
0000700000
0000700000
0000780000
0000780000
0000780000
0000780000
0000780000
00007C0000
00007C0000
00007E0000
00007F0000
00007F0000
00007F8000
00007FC000
00007FE000
0000002000
0000000000
ENDCHAR

STARTCHAR cns1_214B
ENCODING 8523
SWIDTH 960 0
DWIDTH 34 0
BBX 34 34 0 -2
BITMAP
0000000000
0000000000
01FFC00000
007FC00000
003FC00000
001FC00000
000FC00000
000FC00000
0007C00000
0007C00000
0003C00000
0003C00000
0003C00000
0003C00000
0003C00000
0003C00000
0001C00000
0001C00000
0001C00000
0003C00000
0003C00000
0003C00000
0003C00000
0007C00000
0007C00000
0007C00000
000FC00000
000FC00000
001FC00000
003FC00000
007FC00000
00FFC00000
0180000000
0000000000
ENDCHAR

STARTCHAR cns1_214C
ENCODING 8524
SWIDTH 960 0
DWIDTH 34 0
BBX 34 34 0 -2
BITMAP
0000000000
0000000000
0000000000
0000000000
0000000000
0000000000
0000000000
0000000000
0000000000
0000000000
0000000000
0000000000
0000000000
0000000000
0000000000
0000000000
3FFFFFFF80
3FFFFFFF80
3FFF1FFF80
3FE000FF80
3F80003F80
3E00000F80
3C00000780
3800000380
3000000180
0000000000
0000000000
0000000000
0000000000
0000000000
0000000000
0000000000
0000000000
0000000000
ENDCHAR

STARTCHAR cns1_214D
ENCODING 8525
SWIDTH 960 0
DWIDTH 34 0
BBX 34 34 0 -2
BITMAP
0000000000
0000000000
0000000000
0000000000
0000000000
0000000000
0000000000
0000000000
0000000000
3000000180
3800000380
3C00000780
3E00000F80
3F80003F80
3FE000FF80
3FFE07FF80
3FFFFFFF80
3FFFFFFF80
0000000000
0000000000
0000000000
0000000000
0000000000
0000000000
0000000000
0000000000
0000000000
0000000000
0000000000
0000000000
0000000000
0000000000
0000000000
0000000000
ENDCHAR

STARTCHAR cns1_214E
ENCODING 8526
SWIDTH 960 0
DWIDTH 34 0
BBX 34 34 0 -2
BITMAP
0000000000
0000000000
0000000000
000000F800
000000F000
000001F000
000001E000
000003E000
000003C000
000007C000
00000F8000
00000F8000
00001F0000
00001F0000
0000360000
00003E0000
00006C0000
00006C0000
0000360000
00003F0000
00001B0000
00001F8000
00000D8000
00000EC000
000006C000
0000036000
0000036000
000001B000
000001F800
000000D800
000000FC00
0000000000
0000000000
0000000000
ENDCHAR

STARTCHAR cns1_214F
ENCODING 8527
SWIDTH 960 0
DWIDTH 34 0
BBX 34 34 0 -2
BITMAP
0000000000
0000000000
0000000000
0760000000
03B0000000
01B0000000
01D8000000
00FC000000
00EC000000
007E000000
0076000000
003B000000
001B000000
001D800000
000FC00000
000EC00000
0007E00000
0006E00000
000EC00000
000D800000
001D800000
001B000000
003F000000
0076000000
006E000000
00EC000000
00DC000000
01D8000000
01B0000000
03B0000000
0760000000
0000000000
0000000000
0000000000
ENDCHAR

STARTCHAR cns1_2150
ENCODING 8528
SWIDTH 960 0
DWIDTH 34 0
BBX 34 34 0 -2
BITMAP
0000000000
0000000000
0000000000
0000000000
0000000000
0000000000
0000000000
0000000000
0000000000
0000000000
0000000000
0000000000
0000000000
0000000000
0001E00000
0003B80000
000E1C0000
0018470000
0071F18000
01C718E000
038C0E3000
0E38039C00
1C6001C700
01C0007300
0700001800
0E00000E00
3800000200
0000000000
0000000000
0000000000
0000000000
0000000000
0000000000
0000000000
ENDCHAR

STARTCHAR cns1_2151
ENCODING 8529
SWIDTH 960 0
DWIDTH 34 0
BBX 34 34 0 -2
BITMAP
0000000000
0000000000
0000000000
0000000000
0000000000
0000000000
0000000000
0000000000
3C00000E00
0600001C00
1B80007200
3CE000C600
0770039C00
039C067000
00E618E000
0033B38000
001CC70000
00061C0000
0003B00000
0000E00000
0000000000
0000000000
0000000000
0000000000
0000000000
0000000000
0000000000
0000000000
0000000000
0000000000
0000000000
0000000000
0000000000
0000000000
ENDCHAR

STARTCHAR cns1_2152
ENCODING 8530
SWIDTH 960 0
DWIDTH 34 0
BBX 34 34 0 -2
BITMAP
0000000000
0000000000
0000000000
000000C000
0000018000
0000018000
0000030000
0000030000
0000060000
00000E0000
00000C0000
00001C0000
0000180000
0000300000
0000300000
0000600000
0000E00000
0000600000
0000700000
0000300000
0000380000
0000180000
00000C0000
00000C0000
0000060000
0000060000
0000030000
0000038000
0000018000
000001C000
000000C000
0000004000
0000000000
0000000000
ENDCHAR

STARTCHAR cns1_2153
ENCODING 8531
SWIDTH 960 0
DWIDTH 34 0
BBX 34 34 0 -2
BITMAP
0000000000
0000000000
0000000000
00E0000000
0070000000
0030000000
0038000000
0018000000
000C000000
000C000000
0006000000
0006000000
0003000000
0003800000
0001800000
0001C00000
0000C00000
0000C00000
0000C00000
0001800000
0003800000
0003000000
0007000000
0006000000
000C000000
000C000000
0018000000
0038000000
0030000000
0070000000
0060000000
00E0000000
0000000000
0000000000
ENDCHAR

STARTCHAR cns1_2154
ENCODING 8532
SWIDTH 960 0
DWIDTH 34 0
BBX 34 34 0 -2
BITMAP
0000000000
0000000000
0000000000
0000000000
0000000000
0000000000
0000000000
0000000000
0000000000
0000000000
0000000000
0000000000
0000000000
0000000000
0000000000
0000000000
0000000000
0000E00000
0003B80000
000E0C0000
001C070000
007001C000
00E000E000
0380003800
0600001C00
3C00000700
1000000000
0000000000
0000000000
0000000000
0000000000
0000000000
0000000000
0000000000
ENDCHAR

STARTCHAR cns1_2155
ENCODING 8533
SWIDTH 960 0
DWIDTH 34 0
BBX 34 34 0 -2
BITMAP
0000000000
0000000000
0000000000
0000000000
0000000000
0000000000
0000000000
0000000000
0000000000
3800000700
0600001C00
0380003800
00C000E000
0070038000
001C070000
000E1C0000
0003B00000
0000E00000
0000000000
0000000000
0000000000
0000000000
0000000000
0000000000
0000000000
0000000000
0000000000
0000000000
0000000000
0000000000
0000000000
0000000000
0000000000
0000000000
ENDCHAR

STARTCHAR cns1_2156
ENCODING 8534
SWIDTH 960 0
DWIDTH 34 0
BBX 34 34 0 -2
BITMAP
0000000000
0000000000
0000000000
00007FF000
0000600000
0000600000
0000600000
0000600000
0000600000
0000600000
0000600000
0000600000
0000600000
0000600000
0000600000
0000600000
0000600000
0000600000
0000000000
0000000000
0000000000
0000000000
0000000000
0000000000
0000000000
0000000000
0000000000
0000000000
0000000000
0000000000
0000000000
0000000000
0000000000
0000000000
ENDCHAR

STARTCHAR cns1_2157
ENCODING 8535
SWIDTH 960 0
DWIDTH 34 0
BBX 34 34 0 -2
BITMAP
0000000000
0000000000
0000000000
0000000000
0000000000
0000000000
0000000000
0000000000
0000000000
0000000000
0000000000
0000000000
0000000000
0000000000
0000000000
0000000000
0000C00000
0000C00000
0000C00000
0000C00000
0000C00000
0000C00000
0000C00000
0000C00000
0000C00000
0000C00000
0000C00000
0000C00000
0000C00000
0000C00000
01FFC00000
0000000000
0000000000
0000000000
ENDCHAR

STARTCHAR cns1_2158
ENCODING 8536
SWIDTH 960 0
DWIDTH 34 0
BBX 34 34 0 -2
BITMAP
0000000000
0000000000
0000000000
0000000000
0000000000
0000000000
0000000000
0000000000
0000000000
0000000000
0000000000
0000000000
0000000000
0000000000
0000000000
1FFFFFFF00
0000000300
0000000300
0000000300
0000000300
0000000300
0000000300
0000000300
0000000300
0000000300
0000000000
0000000000
0000000000
0000000000
0000000000
0000000000
0000000000
0000000000
0000000000
ENDCHAR

STARTCHAR cns1_2159
ENCODING 8537
SWIDTH 960 0
DWIDTH 34 0
BBX 34 34 0 -2
BITMAP
0000000000
0000000000
0000000000
0000000000
0000000000
0000000000
0000000000
0000000000
0000000000
3000000000
3000000000
3000000000
3000000000
3000000000
3000000000
3000000000
3000000000
3000000000
3000000000
3FFFFFFE00
0000000000
0000000000
0000000000
0000000000
0000000000
0000000000
0000000000
0000000000
0000000000
0000000000
0000000000
0000000000
0000000000
0000000000
ENDCHAR

STARTCHAR cns1_215A
ENCODING 8538
SWIDTH 960 0
DWIDTH 34 0
BBX 34 34 0 -2
BITMAP
0000000000
0000000000
0000000000
0000000000
00007FF000
0000403000
000047F000
0000440000
0000440000
0000440000
0000440000
0000440000
0000440000
0000440000
0000440000
0000440000
0000440000
0000440000
00007C0000
0000000000
0000000000
0000000000
0000000000
0000000000
0000000000
0000000000
0000000000
0000000000
0000000000
0000000000
0000000000
0000000000
0000000000
0000000000
ENDCHAR

STARTCHAR cns1_215B
ENCODING 8539
SWIDTH 960 0
DWIDTH 34 0
BBX 34 34 0 -2
BITMAP
0000000000
0000000000
0000000000
0000000000
0000000000
0000000000
0000000000
0000000000
0000000000
0000000000
0000000000
0000000000
0000000000
0000000000
0000000000
0000000000
0000000000
0003E00000
0002200000
0002200000
0002200000
0002200000
0002200000
0002200000
0002200000
0002200000
0002200000
0002200000
00FE200000
00C0200000
00FFE00000
0000000000
0000000000
0000000000
ENDCHAR

STARTCHAR cns1_215C
ENCODING 8540
SWIDTH 960 0
DWIDTH 34 0
BBX 34 34 0 -2
BITMAP
0000000000
0000000000
0000000000
0000000000
0000000000
0000000000
0000000000
0000000000
0000000000
0000000000
0000000000
0000000000
0000000000
0000000000
0000000000
0000000000
0000000000
00007FFF80
0000600080
0000600080
00007FFE80
0000000680
0000000680
0000000680
0000000680
0000000780
0000000000
0000000000
0000000000
0000000000
0000000000
0000000000
0000000000
0000000000
ENDCHAR

STARTCHAR cns1_215D
ENCODING 8541
SWIDTH 960 0
DWIDTH 34 0
BBX 34 34 0 -2
BITMAP
0000000000
0000000000
0000000000
0000000000
0000000000
0000000000
0000000000
0000000000
0000000000
7E00000000
6600000000
6600000000
6600000000
6600000000
6600000000
67FFC00000
6000C00000
6000C00000
7FFFC00000
0000000000
0000000000
0000000000
0000000000
0000000000
0000000000
0000000000
0000000000
0000000000
0000000000
0000000000
0000000000
0000000000
0000000000
0000000000
ENDCHAR

STARTCHAR cns1_215E
ENCODING 8542
SWIDTH 960 0
DWIDTH 34 0
BBX 34 34 0 -2
BITMAP
0000000000
0000000000
0000000000
0000000000
0000000000
0000000000
0000000000
0000008000
0000010000
0000030000
0000060000
00000C0000
00001C0000
0000180000
0000180000
0000380000
0000380000
0000380000
0000380000
0000180000
0000180000
00001C0000
00000C0000
0000060000
0000030000
0000018000
000001C000
0000000000
0000000000
0000000000
0000000000
0000000000
0000000000
0000000000
ENDCHAR

STARTCHAR cns1_215F
ENCODING 8543
SWIDTH 960 0
DWIDTH 34 0
BBX 34 34 0 -2
BITMAP
0000000000
0000000000
0000000000
0000000000
0000000000
0000000000
0000000000
0070000000
0010000000
001C000000
000C000000
0006000000
0006000000
0003000000
0003000000
0003800000
0003800000
0003800000
0003800000
0003000000
0007000000
0007000000
0006000000
000C000000
000C000000
0018000000
0030000000
0060000000
0000000000
0000000000
0000000000
0000000000
0000000000
0000000000
ENDCHAR

STARTCHAR cns1_2160
ENCODING 8544
SWIDTH 960 0
DWIDTH 34 0
BBX 34 34 0 -2
BITMAP
0000000000
0000000000
0000000000
0000000000
0000000000
0000000000
000000C000
0000070000
0000060000
0000060000
0000060000
0000060000
0000060000
0000060000
0000060000
00000E0000
0000380000
0000700000
00001C0000
00000E0000
0000060000
0000060000
0000060000
0000060000
0000060000
0000060000
0000030000
000001C000
0000000000
0000000000
0000000000
0000000000
0000000000
0000000000
ENDCHAR

STARTCHAR cns1_2161
ENCODING 8545
SWIDTH 960 0
DWIDTH 34 0
BBX 34 34 0 -2
BITMAP
0000000000
0000000000
0000000000
0000000000
0000000000
0000000000
0060000000
0038000000
000C000000
000C000000
000C000000
000C000000
000C000000
000C000000
000C000000
0006000000
0003800000
0001800000
0006000000
000C000000
000C000000
000C000000
000C000000
000C000000
000C000000
000C000000
0018000000
0070000000
0000000000
0000000000
0000000000
0000000000
0000000000
0000000000
ENDCHAR

STARTCHAR cns1_2162
ENCODING 8546
SWIDTH 960 0
DWIDTH 34 0
BBX 34 34 0 -2
BITMAP
0000000000
0000000000
0000000000
0000000000
0000000000
0000000000
0000006000
000003C000
00000E0000
0000180000
0000180000
0000180000
0000180000
0000180000
0000180000
0000180000
0000180000
0000180000
0000180000
0000180000
0000180000
0000180000
0000180000
0000180000
0000180000
0000180000
00000E0000
0000078000
000000E000
0000000000
0000000000
0000000000
0000000000
0000000000
ENDCHAR

STARTCHAR cns1_2163
ENCODING 8547
SWIDTH 960 0
DWIDTH 34 0
BBX 34 34 0 -2
BITMAP
0000000000
0000000000
0000000000
0000000000
0000000000
0000000000
00C0000000
00F8000000
000E000000
0003800000
0003800000
0003800000
0003800000
0003800000
0003800000
0003800000
0003800000
0003800000
0003800000
0003800000
0003800000
0003800000
0003800000
0003800000
0003800000
000F000000
0038000000
00E0000000
0080000000
0000000000
0000000000
0000000000
0000000000
0000000000
ENDCHAR

STARTCHAR cns1_2164
ENCODING 8548
SWIDTH 960 0
DWIDTH 34 0
BBX 34 34 0 -2
BITMAP
0000000000
0000000000
0000000000
00000C0000
0000180000
0000300000
0000700000
0000780000
00007C0000
00007E0000
00003C0000
0000000000
0000000000
0000000000
0000000000
0000000000
0000000000
0000000000
0000000000
0000000000
0000000000
0000000000
0000000000
0000000000
0000000000
0000000000
0000000000
0000000000
0000000000
0000000000
0000000000
0000000000
0000000000
0000000000
ENDCHAR

STARTCHAR cns1_2165
ENCODING 8549
SWIDTH 960 0
DWIDTH 34 0
BBX 34 34 0 -2
BITMAP
0000000000
0000000000
0007800000
000FC00000
000FC00000
000FC00000
0007C00000
0001C00000
0001800000
0003000000
0000000000
0000000000
0000000000
0000000000
0000000000
0000000000
0000000000
0000000000
0000000000
0000000000
0000000000
0000000000
0000000000
0000000000
0000000000
0000000000
0000000000
0000000000
0000000000
0000000000
0000000000
0000000000
0000000000
0000000000
ENDCHAR

STARTCHAR cns1_2166
ENCODING 8550
SWIDTH 960 0
DWIDTH 34 0
BBX 34 34 0 -2
BITMAP
0000000000
0000000000
000030C000
0000E18000
0000C30000
0001C30000
0001E78000
0001F7C000
0001F7E000
0000F3C000
0000000000
0000000000
0000000000
0000000000
0000000000
0000000000
0000000000
0000000000
0000000000
0000000000
0000000000
0000000000
0000000000
0000000000
0000000000
0000000000
0000000000
0000000000
0000000000
0000000000
0000000000
0000000000
0000000000
0000000000
ENDCHAR

STARTCHAR cns1_2167
ENCODING 8551
SWIDTH 960 0
DWIDTH 34 0
BBX 34 34 0 -2
BITMAP
0000000000
0000000000
079E000000
0FDF000000
07DF000000
07DF000000
01C7000000
0183000000
0386000000
030C000000
0410000000
0000000000
0000000000
0000000000
0000000000
0000000000
0000000000
0000000000
0000000000
0000000000
0000000000
0000000000
0000000000
0000000000
0000000000
0000000000
0000000000
0000000000
0000000000
0000000000
0000000000
0000000000
0000000000
0000000000
ENDCHAR

STARTCHAR cns1_2168
ENCODING 8552
SWIDTH 960 0
DWIDTH 34 0
BBX 34 34 0 -2
BITMAP
0000000000
0000000000
0001BC0000
0003FE0000
0003FE0000
0001EF0000
0000F70000
0000738000
0000398000
000018C000
0000000000
0000000000
0000000000
0000000000
0000000000
0000000000
0000000000
0000000000
0000000000
0000000000
0000000000
0000000000
0000000000
0000000000
0000000000
0000000000
0000000000
0000000000
0000000000
0000000000
0000000000
0000000000
0000000000
0000000000
ENDCHAR

STARTCHAR cns1_2169
ENCODING 8553
SWIDTH 960 0
DWIDTH 34 0
BBX 34 34 0 -2
BITMAP
0000000000
0000000000
0007B00000
000FF80000
000F780000
001EF00000
001DE00000
0039C00000
0033800000
0063000000
0006000000
0000000000
0000000000
0000000000
0000000000
0000000000
0000000000
0000000000
0000000000
0000000000
0000000000
0000000000
0000000000
0000000000
0000000000
0000000000
0000000000
0000000000
0000000000
0000000000
0000000000
0000000000
0000000000
0000000000
ENDCHAR

STARTCHAR cns1_216A
ENCODING 8554
SWIDTH 960 0
DWIDTH 34 0
BBX 34 34 0 -2
BITMAP
0000000000
0000000000
0000060000
00000F0000
0000078000
000003C000
000001E000
0000006000
0000003000
0000000000
0000000000
0000000000
0000000000
0000000000
0000000000
0000000000
0000000000
0000000000
0000000000
0000000000
0000000000
0000000000
0000000000
0000000000
0000000000
0000000000
0000000000
0000000000
0000000000
0000000000
0000000000
0000000000
0000000000
0000000000
ENDCHAR

STARTCHAR cns1_216B
ENCODING 8555
SWIDTH 960 0
DWIDTH 34 0
BBX 34 34 0 -2
BITMAP
0000000000
0000000000
000E000000
001E000000
003C000000
0070000000
00C0000000
0100000000
0000000000
0000000000
0000000000
0000000000
0000000000
0000000000
0000000000
0000000000
0000000000
0000000000
0000000000
0000000000
0000000000
0000000000
0000000000
0000000000
0000000000
0000000000
0000000000
0000000000
0000000000
0000000000
0000000000
0000000000
0000000000
0000000000
ENDCHAR

STARTCHAR cns1_216C
ENCODING 8556
SWIDTH 960 0
DWIDTH 34 0
BBX 34 34 0 -2
BITMAP
0000000000
0000000000
000C060000
000C060000
000C060000
000C060000
000C060000
000C060000
000C060000
03FFFFF800
03FFFFF800
001C0C0000
001C0C0000
001C0C0000
00180C0000
00180C0000
00180C0000
00180C0000
00180C0000
00180C0000
00180C0000
07FFFFF000
07FFFFF000
0038180000
0038180000
0038180000
0030180000
0030180000
0030180000
0030180000
0030180000
0030180000
0000200000
0000000000
ENDCHAR

STARTCHAR cns1_216D
ENCODING 8557
SWIDTH 960 0
DWIDTH 34 0
BBX 34 34 0 -2
BITMAP
0000000000
0000000000
0000000000
0000000000
0000000000
000FE00000
001C380000
003C380000
0038380000
0038380000
0038380000
003C380000
003C700000
001FC00000
001F000000
001E0FFC00
007F0BF800
00E701C000
01C780C000
038381C000
0383C18000
0781E18000
0780F30000
0780F30000
07807F0000
07C03E0000
03E01E0C00
01F03F9800
00FEE7F000
001F81C000
0000000000
0000000000
0000000000
0000000000
ENDCHAR

STARTCHAR cns1_216E
ENCODING 8558
SWIDTH 960 0
DWIDTH 34 0
BBX 34 34 0 -2
BITMAP
0000000000
0000000000
0000000000
0000000000
0000000000
0000000000
0000000000
0000000000
0000000000
0001E00000
0000E00000
0000E00000
003CE78000
007CEF8000
003EFF8000
001F7E0000
0001F00000
0000F00000
000FFE0000
003FFF8000
003EEF8000
003CE78000
0000E00000
0000E00000
0001E00000
0000E00000
0000000000
0000000000
0000000000
0000000000
0000000000
0000000000
0000000000
0000000000
ENDCHAR

STARTCHAR cns1_216F
ENCODING 8559
SWIDTH 960 0
DWIDTH 34 0
BBX 34 34 0 -2
BITMAP
0000000000
0000000000
0000000000
0000000000
0000000000
0000000000
0180002000
03C0C07000
00E1F0E000
0071F1C000
0039F38000
001DE70000
000C0E0000
00061C0000
0003380000
00F9B3E000
00F8E3E000
01F9E3E000
00F1B3E000
0003180000
00060C0000
000C060000
0018F30000
0031F18000
0061F0C000
00E1F06000
01C0007000
0180002000
0000000000
0000000000
0000000000
0000000000
0000000000
0000000000
ENDCHAR

STARTCHAR cns1_2170
ENCODING 8560
SWIDTH 960 0
DWIDTH 34 0
BBX 34 34 0 -2
BITMAP
0000000000
0000000000
0000000000
0001C00000
0007F00000
000E380000
000E300000
000E000000
000E000000
000F000000
0007000000
0003800000
0001C00000
000FE00000
000C700000
000C780000
000C380000
000E1C0000
000F1C0000
00079C0000
0003F80000
0001E00000
0000700000
0000700000
0000380000
0000380000
0006380000
000E380000
000E300000
0007700000
0001E00000
0000000000
0000000000
0000000000
ENDCHAR

STARTCHAR cns1_2171
ENCODING 8561
SWIDTH 960 0
DWIDTH 34 0
BBX 34 34 0 -2
BITMAP
0000000000
0000000000
0000000000
0000000000
0000000000
0000000000
0000000000
0000000000
0000000000
0000000000
0000000000
00039C0000
0003B80000
0007380000
0007300000
0007300000
0006700000
000E600000
000C600000
000C600000
000CC00000
0018C00000
0018C00000
0000000000
0000000000
0000000000
0000000000
0000000000
0000000000
0000000000
0000000000
0000000000
0000000000
0000000000
ENDCHAR

STARTCHAR cns1_2172
ENCODING 8562
SWIDTH 960 0
DWIDTH 34 0
BBX 34 34 0 -2
BITMAP
0000000000
0000000000
0000000000
0003F80000
003F1F0000
007003C000
01E000F000
0380003800
0700001800
0600001C00
0E00000E00
0C00000600
1C00000700
1800000700
1800000300
3800000300
3800000300
3800000300
3800000300
1800000300
1800000700
1C00000700
0C00000600
0E00000E00
0600001C00
0700001800
0380003800
01C000F000
00F001C000
003E0F0000
0007FC0000
0000000000
0000000000
0000000000
ENDCHAR

STARTCHAR cns1_2173
ENCODING 8563
SWIDTH 960 0
DWIDTH 34 0
BBX 34 34 0 -2
BITMAP
0000000000
0000000000
0000000000
0000000000
000FFE0000
003FFF8000
007FFFC000
01FFFFF000
03FFFFF000
03FFFFF800
07FFFFFC00
0FFFFFFC00
0FFFFFFE00
0FFFFFFE00
1FFFFFFE00
1FFFFFFE00
1FFFFFFF00
1FFFFFFF00
1FFFFFFE00
1FFFFFFE00
0FFFFFFE00
0FFFFFFE00
0FFFFFFC00
07FFFFFC00
07FFFFF800
03FFFFF800
01FFFFF000
00FFFFC000
003FFF8000
000FFE0000
0000000000
0000000000
0000000000
0000000000
ENDCHAR

STARTCHAR cns1_2174
ENCODING 8564
SWIDTH 960 0
DWIDTH 34 0
BBX 34 34 0 -2
BITMAP
0000000000
0000000000
0000000000
0000000000
0000000000
0000000000
0000000000
0000C00000
0001E00000
0001A00000
0003300000
0002180000
0006180000
000C0C0000
0008060000
0018060000
0030030000
0030010000
0060018000
004000C000
00C000C000
0180006000
0100003000
0300003000
0600001800
0600000800
0FFFFFFC00
0000000000
0000000000
0000000000
0000000000
0000000000
0000000000
0000000000
ENDCHAR

STARTCHAR cns1_2175
ENCODING 8565
SWIDTH 960 0
DWIDTH 34 0
BBX 34 34 0 -2
BITMAP
0000000000
0000000000
0000000000
0000000000
0000000000
0000000000
0000000000
0001E00000
0001F00000
0003F00000
0003F80000
0007F80000
000FFC0000
000FFE0000
001FFE0000
001FFF0000
003FFF0000
003FFF8000
007FFF8000
007FFFC000
00FFFFE000
01FFFFE000
01FFFFF000
03FFFFF000
03FFFFF800
07FFFFF800
07FFFFFC00
0800000000
0000000000
0000000000
0000000000
0000000000
0000000000
0000000000
ENDCHAR

STARTCHAR cns1_2176
ENCODING 8566
SWIDTH 960 0
DWIDTH 34 0
BBX 34 34 0 -2
BITMAP
0000000000
0000000000
0000000000
0000000000
000FFE0000
003C078000
007001C000
01C000F000
0380E03000
030FFC1800
061C071C00
0E38038C00
0C30018E00
0C6000C600
1CE000C600
18C000C600
18C0006700
18C0006700
18C000E600
1CE000C600
0C6000C600
0C7001C600
0E38038C00
061C071C00
070FFC1800
0381F03800
01C0007000
00F001C000
003C078000
000FFE0000
0000000000
0000000000
0000000000
0000000000
ENDCHAR

STARTCHAR cns1_2177
ENCODING 8567
SWIDTH 960 0
DWIDTH 34 0
BBX 34 34 0 -2
BITMAP
0000000000
0000000000
0000000000
0000000000
0000000000
0000C00000
0000C00000
0001E00000
0001E00000
0001E00000
0003E00000
0003300000
0003300000
0003300000
0FFE1FF800
0380007000
01C000E000
006001C000
0038070000
001C060000
001C060000
0018060000
0018C60000
0039F30000
00373B0000
003E1F0000
0038078000
0070038000
0060008000
0000000000
0000000000
0000000000
0000000000
0000000000
ENDCHAR

STARTCHAR cns1_2178
ENCODING 8568
SWIDTH 960 0
DWIDTH 34 0
BBX 34 34 0 -2
BITMAP
0000000000
0000000000
0000000000
0000000000
0000000000
0000C00000
0000C00000
0001E00000
0001E00000
0001E00000
0003E00000
0003F00000
0003F00000
0003F00000
0FFFFFF800
03FFFFF000
01FFFFE000
007FFFC000
003FFF0000
001FFE0000
001FFE0000
001FFE0000
001FFE0000
003FFF0000
003F3F0000
003E1F0000
0038078000
0070038000
0060008000
0000000000
0000000000
0000000000
0000000000
0000000000
ENDCHAR

STARTCHAR cns1_2179
ENCODING 8569
SWIDTH 960 0
DWIDTH 34 0
BBX 34 34 0 -2
BITMAP
0000000000
0000000000
0000000000
0001C00000
0001A00000
0003100000
0006080000
000C0C0000
0018060000
0038030000
0070018000
00E000C000
01C0006000
0380003000
0700001800
0E00000C00
1C00000600
0E00000E00
0700001C00
0380003800
01C0007000
00C000E000
006000C000
0030018000
0018030000
000C060000
00060C0000
0007180000
0003B80000
0001F00000
0000E00000
0000000000
0000000000
0000000000
ENDCHAR

STARTCHAR cns1_217A
ENCODING 8570
SWIDTH 960 0
DWIDTH 34 0
BBX 34 34 0 -2
BITMAP
0000000000
0000000000
0000000000
0001C00000
0001E00000
0003F00000
0007F80000
000FFC0000
001FFE0000
003FFF0000
007FFF8000
00FFFFC000
01FFFFE000
03FFFFF000
07FFFFF800
0FFFFFFC00
1FFFFFFE00
0FFFFFFE00
07FFFFFC00
03FFFFF800
01FFFFF000
00FFFFE000
007FFFC000
003FFF8000
001FFF0000
000FFE0000
0007FC0000
0007F80000
0003F80000
0001F00000
0000E00000
0000000000
0000000000
0000000000
ENDCHAR

STARTCHAR cns1_217B
ENCODING 8571
SWIDTH 960 0
DWIDTH 34 0
BBX 34 34 0 -2
BITMAP
0000000000
0000000000
0000000000
0000000000
0FFFFFFC00
0C00000C00
0C00000C00
0C00000C00
0C00000C00
0C00000C00
0C00000C00
0C00000C00
0C00000C00
0C00000C00
0C00000C00
0C00000C00
0C00000C00
0C00000C00
0C00000C00
0C00000C00
0C00000C00
0C00000C00
0C00000C00
0C00000C00
0C00000C00
0C00000C00
0C00000C00
0C00000C00
0C00000C00
0FFFFFFC00
0000000000
0000000000
0000000000
0000000000
ENDCHAR

STARTCHAR cns1_217C
ENCODING 8572
SWIDTH 960 0
DWIDTH 34 0
BBX 34 34 0 -2
BITMAP
0000000000
0000000000
0000000000
0000000000
0FFFFFFC00
0FFFFFFC00
0FFFFFFC00
0FFFFFFC00
0FFFFFFC00
0FFFFFFC00
0FFFFFFC00
0FFFFFFC00
0FFFFFFC00
0FFFFFFC00
0FFFFFFC00
0FFFFFFC00
0FFFFFFC00
0FFFFFFC00
0FFFFFFC00
0FFFFFFC00
0FFFFFFC00
0FFFFFFC00
0FFFFFFC00
0FFFFFFC00
0FFFFFFC00
0FFFFFFC00
0FFFFFFC00
0FFFFFFC00
0FFFFFFC00
0FFFFFFC00
0000000000
0000000000
0000000000
0000000000
ENDCHAR

STARTCHAR cns1_217D
ENCODING 8573
SWIDTH 960 0
DWIDTH 34 0
BBX 34 34 0 -2
BITMAP
0000000000
0000000000
0000000000
0000000000
0000000000
0000000000
0000000000
0FFFFFFC00
0600001800
0300001800
0380003000
0180006000
00C0006000
00E000C000
006001C000
0070018000
0030030000
0018030000
001C060000
000C0C0000
00060C0000
0007180000
0003380000
0003B00000
0001E00000
0000E00000
0000C00000
0000000000
0000000000
0000000000
0000000000
0000000000
0000000000
0000000000
ENDCHAR

STARTCHAR cns1_217E
ENCODING 8574
SWIDTH 960 0
DWIDTH 34 0
BBX 34 34 0 -2
BITMAP
0000000000
0000000000
0000000000
0000000000
0000000000
0000000000
0000000000
0FFFFFF800
03FFFFF800
01FFFFF000
01FFFFE000
00FFFFE000
00FFFFC000
007FFFC000
007FFF8000
003FFF8000
003FFF0000
001FFF0000
000FFE0000
000FFC0000
0007FC0000
0007F80000
0003F80000
0003F00000
0001F00000
0000E00000
0000C00000
0000400000
0000000000
0000000000
0000000000
0000000000
0000000000
0000000000
ENDCHAR

STARTCHAR cns1_2221
ENCODING 8737
SWIDTH 960 0
DWIDTH 34 0
BBX 34 34 0 -2
BITMAP
0000000000
0000000000
0001F00000
001F3F0000
007001C000
00C000E000
0380007000
070000F800
067FFFFC00
0C00600E00
1C00600600
1800600700
1800600300
3818600300
381C600380
3018600380
3018638380
30187FC380
3018600380
3018600300
3818600300
3818600300
1818600700
1C18600600
0E1860FE00
0FFFFFFC00
0700001C00
0380007800
01C000F000
00F003C000
001E1F0000
0007F80000
0000000000
0000000000
ENDCHAR

STARTCHAR cns1_2222
ENCODING 8738
SWIDTH 960 0
DWIDTH 34 0
BBX 34 34 0 -2
BITMAP
0000000000
0000000000
0000000000
007C000300
01BE000600
030E000C00
060E001C00
0E00003800
0E00007000
0E0000E000
0E0001C000
0E00038000
0E00070000
0E000E0000
0703180000
0386300000
01F8600000
0000C7F000
00018C1800
00031C1C00
0006380E00
000C380E00
0018380E00
0030380E00
0060380E00
00C0380E00
0180380E00
0300180E00
06001C1C00
0C000E3800
180003F000
0000000000
0000000000
0000000000
ENDCHAR

STARTCHAR cns1_2223
ENCODING 8739
SWIDTH 960 0
DWIDTH 34 0
BBX 34 34 0 -2
BITMAP
0000000000
0000000000
3FFFFFFF80
0000000000
0000000000
0000000000
0000000000
0000000000
0000000000
0000000000
0000000000
0000000000
0000000000
0000000000
0000000000
0000000000
0000000000
0000000000
0000000000
0000000000
0000000000
0000000000
0000000000
0000000000
0000000000
0000000000
0000000000
0000000000
0000000000
0000000000
0000000000
0000000000
0000000000
0000000000
ENDCHAR

STARTCHAR cns1_2224
ENCODING 8740
SWIDTH 960 0
DWIDTH 34 0
BBX 34 34 0 -2
BITMAP
0000000000
0000000000
1FFFFFFF00
1FFFFFFF00
0000000000
0000000000
0000000000
0000000000
0000000000
0000000000
0000000000
0000000000
0000000000
0000000000
0000000000
0000000000
0000000000
0000000000
0000000000
0000000000
0000000000
0000000000
0000000000
0000000000
0000000000
0000000000
0000000000
0000000000
0000000000
0000000000
0000000000
0000000000
0000000000
0000000000
ENDCHAR

STARTCHAR cns1_2225
ENCODING 8741
SWIDTH 960 0
DWIDTH 34 0
BBX 34 34 0 -2
BITMAP
0000000000
0000000000
0000000000
0000000000
0000000000
0000000000
0000000000
0000000000
0000000000
0000000000
0000000000
0000000000
0000000000
0000000000
0000000000
0000000000
0000000000
0000000000
0000000000
0000000000
0000000000
0000000000
0000000000
0000000000
0000000000
0000000000
0000000000
0000000000
0000000000
0000000000
0000000000
0000000000
3FFFFFFF80
0000000000
ENDCHAR

STARTCHAR cns1_2226
ENCODING 8742
SWIDTH 960 0
DWIDTH 34 0
BBX 34 34 0 -2
BITMAP
0000000000
0000000000
0000000000
0000000000
0000000000
0000000000
0000000000
0000000000
0000000000
0000000000
0000000000
0000000000
0000000000
0000000000
0000000000
0000000000
0000000000
0000000000
0000000000
0000000000
0000000000
0000000000
0000000000
0000000000
0000000000
0000000000
0000000000
0000000000
0000000000
0000000000
0000000000
1FFFFFFF00
1FFFFFFF00
0000000000
ENDCHAR

STARTCHAR cns1_2227
ENCODING 8743
SWIDTH 960 0
DWIDTH 34 0
BBX 34 34 0 -2
BITMAP
0000000000
0FC1F07E00
0FC1F07E00
0000000000
0000000000
0000000000
0000000000
0000000000
0000000000
0000000000
0000000000
0000000000
0000000000
0000000000
0000000000
0000000000
0000000000
0000000000
0000000000
0000000000
0000000000
0000000000
0000000000
0000000000
0000000000
0000000000
0000000000
0000000000
0000000000
0000000000
0000000000
0000000000
0000000000
0000000000
ENDCHAR

STARTCHAR cns1_2228
ENCODING 8744
SWIDTH 960 0
DWIDTH 34 0
BBX 34 34 0 -2
BITMAP
0000000000
0FF8C3FE00
0FF9C3FE00
0000000000
0000000000
0000000000
0000000000
0000000000
0000000000
0000000000
0000000000
0000000000
0000000000
0000000000
0000000000
0000000000
0000000000
0000000000
0000000000
0000000000
0000000000
0000000000
0000000000
0000000000
0000000000
0000000000
0000000000
0000000000
0000000000
0000000000
0000000000
0000000000
0000000000
0000000000
ENDCHAR

STARTCHAR cns1_2229
ENCODING 8745
SWIDTH 960 0
DWIDTH 34 0
BBX 34 34 0 -2
BITMAP
0000000000
0000000000
0000000000
0000000000
0000000000
0000000000
0000000000
0000000000
0000000000
0000000000
0000000000
0000000000
0000000000
0000000000
0000000000
0000000000
0000000000
0000000000
0000000000
0000000000
0000000000
0000000000
0000000000
0000000000
0000000000
0000000000
0000000000
0000000000
0000000000
0000000000
0000000000
0F83F07E00
0F83F07E00
0000000000
ENDCHAR

STARTCHAR cns1_222A
ENCODING 8746
SWIDTH 960 0
DWIDTH 34 0
BBX 34 34 0 -2
BITMAP
0000000000
0000000000
0000000000
0000000000
0000000000
0000000000
0000000000
0000000000
0000000000
0000000000
0000000000
0000000000
0000000000
0000000000
0000000000
0000000000
0000000000
0000000000
0000000000
0000000000
0000000000
0000000000
0000000000
0000000000
0000000000
0000000000
0000000000
0000000000
0000000000
0000000000
0000000000
0FF9C7FE00
0000400000
0000000000
ENDCHAR

STARTCHAR cns1_222B
ENCODING 8747
SWIDTH 960 0
DWIDTH 34 0
BBX 34 34 0 -2
BITMAP
0000000000
0000000000
0000000000
01F001E000
031C067800
060E0C1C00
0C07180600
3003F00380
0000000000
0000000000
0000000000
0000000000
0000000000
0000000000
0000000000
0000000000
0000000000
0000000000
0000000000
0000000000
0000000000
0000000000
0000000000
0000000000
0000000000
0000000000
0000000000
0000000000
0000000000
0000000000
0000000000
0000000000
0000000000
0000000000
ENDCHAR

STARTCHAR cns1_222C
ENCODING 8748
SWIDTH 960 0
DWIDTH 34 0
BBX 34 34 0 -2
BITMAP
0000000000
0000000000
0000000000
01F803F000
03FC07F800
070E0E1C00
1E07FC0F00
3C03F80780
0000000000
0000000000
0000000000
0000000000
0000000000
0000000000
0000000000
0000000000
0000000000
0000000000
0000000000
0000000000
0000000000
0000000000
0000000000
0000000000
0000000000
0000000000
0000000000
0000000000
0000000000
0000000000
0000000000
0000000000
0000000000
0000000000
ENDCHAR

STARTCHAR cns1_222D
ENCODING 8749
SWIDTH 960 0
DWIDTH 34 0
BBX 34 34 0 -2
BITMAP
0000000000
0000000000
0000000000
0000000000
00030C0000
00030C0000
00030C0000
00030C0000
00030C0000
00030C0000
00030C0000
003FFFC000
003FFFC000
00030C0000
00030C0000
00030C0000
00030C0000
00030C0000
00030C0000
00030C0000
003FFFC000
003FFFC000
00030C0000
00030C0000
00030C0000
00030C0000
00030C0000
00030C0000
00030C0000
0000000000
0000000000
0000000000
0000000000
0000000000
ENDCHAR

STARTCHAR cns1_222E
ENCODING 8750
SWIDTH 960 0
DWIDTH 34 0
BBX 34 34 0 -2
BITMAP
0000000000
0000000000
0000000000
0000000000
0000000000
0000000000
0000000000
0000000000
0000000000
0000000000
0003E00000
0006300000
000C380000
000C380000
000C780000
000C700000
0007F00000
0003E00000
0007C00000
000FE00000
001C71F000
001838C000
00301D8000
00300F0000
0030070000
00381F8000
001C79C000
000FF0F000
0003E06000
0000000000
0000000000
0000000000
0000000000
0000000000
ENDCHAR

STARTCHAR cns1_222F
ENCODING 8751
SWIDTH 960 0
DWIDTH 34 0
BBX 34 34 0 -2
BITMAP
0000000000
0000000000
0000000000
0000000000
0000000000
0000000000
0000000000
0100C02000
0180C06000
00C0C0C000
0060C18000
0030C30000
0018C60000
000CCC0000
0006D80000
0003F00000
0001E00000
0000C00000
0001E00000
0003F00000
0006D80000
000CCC0000
0018C60000
0030C30000
0060C18000
00C0C0C000
0180C06000
0100C02000
0000000000
0000000000
0000000000
0000000000
0000000000
0000000000
ENDCHAR

STARTCHAR cns1_2230
ENCODING 8752
SWIDTH 960 0
DWIDTH 34 0
BBX 34 34 0 -2
BITMAP
0000000000
0000000000
0000000000
0000000000
0000000000
0000000000
0000600000
0000600000
0000600000
0000600000
0000600000
0000600000
0000600000
0000600000
0000600000
0000600000
0000600000
01FFFFF800
0000600000
0000600000
0000600000
0000600000
0000600000
0000600000
0000600000
0000600000
0000600000
0000600000
0000000000
0000000000
0000000000
0000000000
0000000000
0000000000
ENDCHAR

STARTCHAR cns1_2231
ENCODING 8753
SWIDTH 960 0
DWIDTH 34 0
BBX 34 34 0 -2
BITMAP
0000000000
0000000000
0000000000
0000000000
0000000000
0000000000
0000000000
0000000000
0000000000
0000000000
0000000000
0000000000
0000000000
0000000000
0000000000
0000000000
0000000000
03FFFFF800
0000000000
0000000000
0000000000
0000000000
0000000000
0000000000
0000000000
0000000000
0000000000
0000000000
0000000000
0000000000
0000000000
0000000000
0000000000
0000000000
ENDCHAR

STARTCHAR cns1_2232
ENCODING 8754
SWIDTH 960 0
DWIDTH 34 0
BBX 34 34 0 -2
BITMAP
0000000000
0000000000
0000000000
0000000000
0000000000
0000000000
0000000000
00C0006000
01E000E000
006001C000
0030038000
0018070000
000C060000
00060C0000
0003180000
0003B00000
0001E00000
0000E00000
0001B00000
0003180000
00060C0000
000C0E0000
0018070000
0030038000
006001C000
00C000E000
0180006000
0000000000
0000000000
0000000000
0000000000
0000000000
0000000000
0000000000
ENDCHAR

STARTCHAR cns1_2233
ENCODING 8755
SWIDTH 960 0
DWIDTH 34 0
BBX 34 34 0 -2
BITMAP
0000000000
0000000000
0000000000
0000000000
0000000000
0000000000
0000000000
0000000000
0001E00000
0001F00000
0000E00000
0000000000
0000000000
0000000000
0000000000
0000000000
03FFFFF800
0000000000
0000000000
0000000000
0000000000
0000000000
0000000000
0000E00000
0001F00000
0001F00000
0000800000
0000000000
0000000000
0000000000
0000000000
0000000000
0000000000
0000000000
ENDCHAR

STARTCHAR cns1_2234
ENCODING 8756
SWIDTH 960 0
DWIDTH 34 0
BBX 34 34 0 -2
BITMAP
0000000000
0000000000
0000000000
0000000000
0000000000
0000000000
0000600000
0000600000
0000600000
0000600000
0000600000
0000600000
0000600000
0000600000
0000600000
01FFFFF800
0000600000
0000600000
0000600000
0000600000
0000600000
0000600000
0000600000
0000600000
0000600000
0000000000
0000000000
01FFFFF800
0000000000
0000000000
0000000000
0000000000
0000000000
0000000000
ENDCHAR

STARTCHAR cns1_2235
ENCODING 8757
SWIDTH 960 0
DWIDTH 34 0
BBX 34 34 0 -2
BITMAP
0000000000
0000000000
00001FFF00
00003FFF00
0000380000
0000780000
0000700000
0000700000
0000E00000
0000E00000
0001C00000
0001C00000
0003800000
0003800000
0007000000
0007000000
0006000000
000E000000
000C000000
061C000000
0E18000000
1E38000000
2F30000000
0F30000000
0760000000
0760000000
07C0000000
03C0000000
0380000000
0380000000
0300000000
0000000000
0000000000
0000000000
ENDCHAR

STARTCHAR cns1_2236
ENCODING 8758
SWIDTH 960 0
DWIDTH 34 0
BBX 34 34 0 -2
BITMAP
0000000000
0000000000
0000000000
0000000000
0000000000
0000000000
000000E000
0000038000
0000070000
00001C0000
0000700000
0001C00000
0007000000
001C000000
0070000000
01C0000000
0380000000
0780000000
00E0000000
0038000000
000E000000
0003800000
0001E00000
0000700000
00001C0000
0000070000
000001C000
000000F000
0000002000
0000000000
0000000000
0000000000
0000000000
0000000000
ENDCHAR

STARTCHAR cns1_2237
ENCODING 8759
SWIDTH 960 0
DWIDTH 34 0
BBX 34 34 0 -2
BITMAP
0000000000
0000000000
0000000000
0000000000
0000000000
0000000000
0780000000
01E0000000
0078000000
001C000000
0007000000
0001C00000
0000700000
00001C0000
0000070000
000001C000
0000007000
000000F000
000001C000
0000070000
00001C0000
0000700000
0001C00000
0007800000
001E000000
0078000000
00E0000000
0380000000
0600000000
0000000000
0000000000
0000000000
0000000000
0000000000
ENDCHAR

STARTCHAR cns1_2238
ENCODING 8760
SWIDTH 960 0
DWIDTH 34 0
BBX 34 34 0 -2
BITMAP
0000000000
0000000000
0000000000
0000000000
0000000000
0000000000
0000000000
0000000000
0000000000
0000000000
0000000000
0000000000
03FFFFF800
0000000000
0000000000
0000000000
0000000000
0000000000
0000000000
0000000000
03FFFFF800
0000000000
0000000000
0000000000
0000000000
0000000000
0000000000
0000000000
0000000000
0000000000
0000000000
0000000000
0000000000
0000000000
ENDCHAR

STARTCHAR cns1_2239
ENCODING 8761
SWIDTH 960 0
DWIDTH 34 0
BBX 34 34 0 -2
BITMAP
0000000000
0000000000
0000000000
0000000000
0000000000
0000000000
0000007000
000001C000
00000F0000
0000780000
0001E00000
000F000000
003C000000
01E0000000
07E0000000
003C000000
000F800000
0001E00000
00003C0000
0000078000
000000F000
0000001000
0000000000
03FFFFF800
0000000000
0000000000
0000000000
03FFFFF800
0000000000
0000000000
0000000000
0000000000
0000000000
0000000000
ENDCHAR

STARTCHAR cns1_223A
ENCODING 8762
SWIDTH 960 0
DWIDTH 34 0
BBX 34 34 0 -2
BITMAP
0000000000
0000000000
0000000000
0000000000
0000000000
0000000000
0380000000
00F0000000
001E000000
0003C00000
0000700000
00001E0000
000003C000
0000007800
000001E000
0000070000
00003C0000
0000E00000
0007800000
001C000000
00F0000000
0380000000
0000000000
03FFFFF800
0000000000
0000000000
0000000000
03FFFFF800
0000000000
0000000000
0000000000
0000000000
0000000000
0000000000
ENDCHAR

STARTCHAR cns1_223B
ENCODING 8763
SWIDTH 960 0
DWIDTH 34 0
BBX 34 34 0 -2
BITMAP
0000000000
0000000000
0000000000
0000000000
0000000000
0000000000
0000000000
0000000000
0000180000
0000300000
0000300000
0000300000
0000300000
00FFFFE000
0000600000
0000600000
0000E00000
0000C00000
0000C00000
0000C00000
00FFFFF000
0001800000
0001800000
0001800000
0003000000
0003000000
0000000000
0000000000
0000000000
0000000000
0000000000
0000000000
0000000000
0000000000
ENDCHAR

STARTCHAR cns1_223C
ENCODING 8764
SWIDTH 960 0
DWIDTH 34 0
BBX 34 34 0 -2
BITMAP
0000000000
0000000000
0000000000
0000000000
0000000000
0000000000
0000000000
0000000000
0000000000
0000000000
0000000000
01FC0FF000
07061C3800
0E03180C00
0C01B00E00
0C01E00600
1C00E00600
1C00C00600
0C00E00600
0C01B00E00
0E03180C00
07071C3800
039C07F000
00F8000000
0000000000
0000000000
0000000000
0000000000
0000000000
0000000000
0000000000
0000000000
0000000000
0000000000
ENDCHAR

STARTCHAR cns1_223D
ENCODING 8765
SWIDTH 960 0
DWIDTH 34 0
BBX 34 34 0 -2
BITMAP
0000000000
0000000000
0000000000
0000000000
0000000000
0000000000
0000000000
001C000000
003E000000
003E000000
001C000000
0000000000
0000000000
0000000000
03FFFFF800
0000000000
0000000000
0000000000
0000000000
03FFFFF800
0000000000
0000000000
0000000000
0000000000
00001E0000
00001E0000
00001E0000
0000000000
0000000000
0000000000
0000000000
0000000000
0000000000
0000000000
ENDCHAR

STARTCHAR cns1_223E
ENCODING 8766
SWIDTH 960 0
DWIDTH 34 0
BBX 34 34 0 -2
BITMAP
0000000000
0000000000
0000000000
0000000000
0000000000
0000000000
0000000000
0000000000
0000000000
0000000000
0000000000
03FFFFF800
0000000000
0000000000
0000000000
0000000000
0000000000
03FFFFF800
0000000000
0000000000
0000000000
0000000000
03FFFFF800
0000000000
0000000000
0000000000
0000000000
0000000000
0000000000
0000000000
0000000000
0000000000
0000000000
0000000000
ENDCHAR

STARTCHAR cns1_223F
ENCODING 8767
SWIDTH 960 0
DWIDTH 34 0
BBX 34 34 0 -2
BITMAP
0000000000
0000000000
0000000000
0000000000
0000000000
0000000000
0000000000
0000000000
0000000000
0000000000
0000000000
0000E00000
0000E00000
0000E00000
0000E00000
0000E00000
001FFE0000
0000E00000
0000E00000
0000E00000
0000E00000
0000E00000
0000E00000
0000000000
0000000000
0000000000
0000000000
0000000000
0000000000
0000000000
0000000000
0000000000
0000000000
0000000000
ENDCHAR

STARTCHAR cns1_2240
ENCODING 8768
SWIDTH 960 0
DWIDTH 34 0
BBX 34 34 0 -2
BITMAP
0000000000
0000000000
0000000000
0000000000
0000000000
0000000000
0000000000
0000000000
0000000000
0000000000
0000000000
0000000000
0000000000
0000000000
0000000000
0000000000
0000000000
001FFC0000
0000000000
0000000000
0000000000
0000000000
0000000000
0000000000
0000000000
0000000000
0000000000
0000000000
0000000000
0000000000
0000000000
0000000000
0000000000
0000000000
ENDCHAR

STARTCHAR cns1_2241
ENCODING 8769
SWIDTH 960 0
DWIDTH 34 0
BBX 34 34 0 -2
BITMAP
0000000000
0000000000
0000000000
0000000000
0000000000
0000000000
0000000000
0000000000
0000000000
0000000000
0000000000
0000070000
00000C0000
0000380000
0000E00000
0003800000
0006000000
001C000000
0007000000
0001C00000
0000700000
00001C0000
0000070000
0000000000
0000000000
0000000000
0000000000
0000000000
0000000000
0000000000
0000000000
0000000000
0000000000
0000000000
ENDCHAR

STARTCHAR cns1_2242
ENCODING 8770
SWIDTH 960 0
DWIDTH 34 0
BBX 34 34 0 -2
BITMAP
0000000000
0000000000
0000000000
0000000000
0000000000
0000000000
0000000000
0000000000
0000000000
0000000000
0000000000
000C000000
0016000000
0003800000
0000E00000
0000380000
00000E0000
00000E0000
0000380000
0000700000
0001C00000
0007000000
001E000000
0000000000
0000000000
0000000000
0000000000
0000000000
0000000000
0000000000
0000000000
0000000000
0000000000
0000000000
ENDCHAR

STARTCHAR cns1_2243
ENCODING 8771
SWIDTH 960 0
DWIDTH 34 0
BBX 34 34 0 -2
BITMAP
0000000000
0000000000
0000000000
0000000000
0000000000
0000000000
0000000000
0000000000
0000000000
0000000000
0000000000
0000000000
0000000000
001FFF0000
0000000000
0000000000
0000000000
0000000000
0000000000
0000000000
0000000000
000FFF0000
0000000000
0000000000
0000000000
0000000000
0000000000
0000000000
0000000000
0000000000
0000000000
0000000000
0000000000
0000000000
ENDCHAR

STARTCHAR cns1_2244
ENCODING 8772
SWIDTH 960 0
DWIDTH 34 0
BBX 34 34 0 -2
BITMAP
0000000000
0000000000
0000000000
0000000000
0000000000
0000000000
0000000000
0000000000
0000000000
0000000000
0000000000
0000000000
0000000000
0000000000
01FE000000
0383800200
0601C00600
1C00700C00
10001C1800
00000FF000
0000000000
0000000000
0000000000
0000000000
0000000000
0000000000
0000000000
0000000000
0000000000
0000000000
0000000000
0000000000
0000000000
0000000000
ENDCHAR

STARTCHAR cns1_2245
ENCODING 8773
SWIDTH 960 0
DWIDTH 34 0
BBX 34 34 0 -2
BITMAP
0000000000
0000000000
0000000000
0000000000
0000000000
0000000000
0003F00000
001FFE0000
0038070000
0060018000
0060018000
00C000C000
018000C000
0180006000
0180006000
0180006000
0180006000
0180006000
0180006000
0180006000
0180006000
0180006000
0180006000
0180006000
0180006000
0180006000
0180006000
0180006000
0180006000
0000000000
0000000000
0000000000
0000000000
0000000000
ENDCHAR

STARTCHAR cns1_2246
ENCODING 8774
SWIDTH 960 0
DWIDTH 34 0
BBX 34 34 0 -2
BITMAP
0000000000
0000000000
0000000000
0000000000
0000000000
0180006000
0180006000
0180006000
0180006000
0180006000
0180006000
0180006000
0180006000
0180006000
0180006000
0180006000
0180006000
0180006000
0180006000
0180006000
0180006000
018000E000
00C000C000
00C000C000
0060018000
0030030000
0018060000
000F3C0000
0003E00000
0000000000
0000000000
0000000000
0000000000
0000000000
ENDCHAR

STARTCHAR cns1_2247
ENCODING 8775
SWIDTH 960 0
DWIDTH 34 0
BBX 34 34 0 -2
BITMAP
0000000000
0000000000
0000000000
0000000000
0000000000
0000000000
0000C00000
0000C00000
0000C00000
0000C00000
0000C00000
0000C00000
0000C00000
0000C00000
0000C00000
0000C00000
0000C00000
0000C00000
0000C00000
0000C00000
0000C00000
0000C00000
0000C00000
0000C00000
0000C00000
0000C00000
0000C00000
03FFFFF800
0000000000
0000000000
0000000000
0000000000
0000000000
0000000000
ENDCHAR

STARTCHAR cns1_2248
ENCODING 8776
SWIDTH 960 0
DWIDTH 34 0
BBX 34 34 0 -2
BITMAP
0000000000
0000000000
0000000000
0000000000
0000000000
0000000000
0000003000
0000006000
000000E000
000001C000
0000038000
0000070000
00000E0000
00001C0000
0000380000
0000700000
0000E00000
0001C00000
0003800000
0003000000
0006000000
000C000000
0018000000
0030000000
0070000000
00E0000000
01C0000000
03FFFFF000
0400000000
0000000000
0000000000
0000000000
0000000000
0000000000
ENDCHAR

STARTCHAR cns1_2249
ENCODING 8777
SWIDTH 960 0
DWIDTH 34 0
BBX 34 34 0 -2
BITMAP
0000000000
0000000000
0000000000
0000000000
0000000000
0000000000
0000000000
0300000000
0300000000
0300000000
0300000000
0300000000
0300000000
0300000000
0300000000
0300000000
0300000000
0300000000
0300000000
0300000000
0300000000
0300000000
0300000000
0300000000
0300000000
0300000000
03FFFFF000
0000000000
0000000000
0000000000
0000000000
0000000000
0000000000
0000000000
ENDCHAR

STARTCHAR cns1_224A
ENCODING 8778
SWIDTH 960 0
DWIDTH 34 0
BBX 34 34 0 -2
BITMAP
0000000000
0000000000
0000000000
0000000000
0000000000
0000000000
0000003000
0000007000
000000F000
000001F000
000003B000
0000073000
00000E3000
00001C3000
0000383000
0000703000
0000603000
0000C03000
0001803000
0003003000
0006003000
000C003000
0018003000
0038003000
0070003000
00E0003000
01C0003000
03FFFFF000
0200000000
0000000000
0000000000
0000000000
0000000000
0000000000
ENDCHAR

STARTCHAR cns1_224B
ENCODING 8779
SWIDTH 960 0
DWIDTH 34 0
BBX 34 34 0 -2
BITMAP
0000000000
0000000000
0000000000
0000000000
0780000000
1F80000000
0F80000000
0780000000
0780000000
0780000000
0780000000
0780000000
0780000300
078FC1FF80
079CC31800
0798671800
07B8771C00
07B8771C00
07B8771C00
07B8731800
07B873B000
07B871E000
07B8770000
079867C000
079CE1F800
078FC33E00
1FE6060700
10400E0700
00000E0700
0000078E00
000001F000
0000000000
0000000000
0000000000
ENDCHAR

STARTCHAR cns1_224C
ENCODING 8780
SWIDTH 960 0
DWIDTH 34 0
BBX 34 34 0 -2
BITMAP
0000000000
0000000000
0000000000
0000000000
0000000000
0000000000
01E0000000
07E0000000
00E0000000
00E0000000
00E0000000
00E0000000
00E0000000
00E0000000
00E0000000
00E1CFC000
00E7FBF000
00E1F0F000
00E1E0F000
00E1C0F000
00E1C0F000
00E1C0F000
00E1C0F000
00E1C0F000
00E1C0F000
00E1C0F000
01F1C0F000
07FBC0F000
0007E3F800
0004000000
0000000000
0000000000
0000000000
0000000000
ENDCHAR

STARTCHAR cns1_224D
ENCODING 8781
SWIDTH 960 0
DWIDTH 34 0
BBX 34 34 0 -2
BITMAP
0000000000
0000000000
0000000000
0000000000
0000F00000
0001800000
0001000000
0003000000
0003000000
0003000000
0003000000
0003000000
0003000000
0003000000
0003000000
0003800000
0003800000
0001800000
0001C00000
0001C00000
0001C00000
0001C00000
0001C00000
0000C00000
0000C00000
0000C00000
0000C00000
0000C00000
0000C00000
0007C00000
0003800000
0000000000
0000000000
0000000000
ENDCHAR

STARTCHAR cns1_224E
ENCODING 8782
SWIDTH 960 0
DWIDTH 34 0
BBX 34 34 0 -2
BITMAP
0000000000
0000000000
0000000000
0000000000
0000700000
0000F00000
0001800000
0001800000
0001800000
0001800000
0001800000
0003F80000
000EDE0000
000CC60000
0018C30000
0018C30000
0018630000
0018630000
0018630000
0018630000
000C660000
000E3C0000
0003F80000
0000300000
0000300000
0000200000
0000600000
0000600000
0003600000
0003C00000
0000000000
0000000000
0000000000
0000000000
ENDCHAR

STARTCHAR cns1_224F
ENCODING 8783
SWIDTH 960 0
DWIDTH 34 0
BBX 34 34 0 -2
BITMAP
0000000000
0000000000
0000000000
0000000000
0000000000
0000000000
0000000000
03C000F000
07C000F800
07C000F800
03C000F000
0000000000
0000000000
0000000000
0000000000
0000000000
0000000000
0000000000
0000000000
0000000000
0000000000
0000000000
0000000000
0000E00000
0001E00000
0003F00000
0001E00000
0000000000
0000000000
0000000000
0000000000
0000000000
0000000000
0000000000
ENDCHAR

STARTCHAR cns1_2250
ENCODING 8784
SWIDTH 960 0
DWIDTH 34 0
BBX 34 34 0 -2
BITMAP
0000000000
0000000000
0000000000
0000000000
0000000000
0000000000
0000000000
0001E00000
0001F00000
0001F00000
0001E00000
0000000000
0000000000
0000000000
0000000000
0000000000
0000000000
0000000000
0000000000
0000000000
0000000000
0000000000
0000000000
01C0007000
03E000F800
03E000F800
03E000F800
0000000000
0000000000
0000000000
0000000000
0000000000
0000000000
0000000000
ENDCHAR

STARTCHAR cns1_2251
ENCODING 8785
SWIDTH 960 0
DWIDTH 34 0
BBX 34 34 0 -2
BITMAP
0000000000
0000000000
0000000000
0001F00000
0003DC0000
00060E0000
000C060000
000C060000
000C020000
000C060000
000C060000
0006060000
00071C0000
0001F80000
0000600000
0000600000
0000600000
0000600000
0000600000
01FFFFF000
0000600000
0000600000
0000600000
0000600000
0000600000
0000600000
0000600000
0000600000
0000600000
0000600000
0000600000
0000000000
0000000000
0000000000
ENDCHAR

STARTCHAR cns1_2252
ENCODING 8786
SWIDTH 960 0
DWIDTH 34 0
BBX 34 34 0 -2
BITMAP
0000000000
0000000000
0000000000
0000C00000
0001E00000
0003F00000
0003F00000
0006D80000
000CCC0000
001CCE0000
0018C70000
0030C38000
0060C18000
0020C08000
0000C00000
0000C00000
0000C00000
0000C00000
0000C00000
0003E00000
00073C0000
000E0C0000
001C060000
0018060000
0018060000
0018060000
0018060000
001C060000
000E0E0000
0007F80000
0001F00000
0000000000
0000000000
0000000000
ENDCHAR

STARTCHAR cns1_2253
ENCODING 8787
SWIDTH 960 0
DWIDTH 34 0
BBX 34 34 0 -2
BITMAP
0000000000
0000000000
0000000000
0000000000
0000000000
0000000000
0007F80000
001EDE0000
0038C78000
00F0C1C000
00C0C0C000
01C0C0E000
0380C07000
0380C07000
0300C03000
0300C03800
07FFFFF800
07FFFFF800
0700C03800
0300C03800
0300C03000
0380C07000
01C0C07000
01C0C0E000
00E0C1C000
0078C38000
003ECF0000
0007F80000
0000000000
0000000000
0000000000
0000000000
0000000000
0000000000
ENDCHAR

STARTCHAR cns1_2254
ENCODING 8788
SWIDTH 960 0
DWIDTH 34 0
BBX 34 34 0 -2
BITMAP
0000000000
0000000000
0000000000
0000000000
0000000000
0000000000
0003F80000
001FFF0000
003C078000
007001C000
00E000E000
01C0007000
0180007000
0380003800
0300003800
0300F03800
0301F01800
0301F01800
0300E01800
0300003800
0380003800
0180003000
01C0007000
00E000E000
007001C000
0038038000
001F1F0000
0007F80000
0000000000
0000000000
0000000000
0000000000
0000000000
0000000000
ENDCHAR

STARTCHAR cns1_2255
ENCODING 8789
SWIDTH 960 0
DWIDTH 34 0
BBX 34 34 0 -2
BITMAP
0000000000
0000000000
0000000000
0000600000
0000F00000
0000F00000
0001F80000
0001FC0000
0003FC0000
00076E0000
0006660000
0008630000
0000600000
0000600000
0000600000
0000600000
0000600000
0000600000
0000600000
0000600000
0000600000
0000600000
0000600000
0000600000
0000600000
0000600000
0000600000
0000600000
0000600000
0000600000
0000600000
0000000000
0000000000
0000000000
ENDCHAR

STARTCHAR cns1_2256
ENCODING 8790
SWIDTH 960 0
DWIDTH 34 0
BBX 34 34 0 -2
BITMAP
0000000000
0000000000
0000000000
0000600000
0000600000
0000600000
0000600000
0000600000
0000600000
0000600000
0000600000
0000600000
0000600000
0000600000
0000600000
0000600000
0000600000
0000600000
0000600000
0000600000
0000600000
0000600000
0008630000
000E660000
00076E0000
0003FC0000
0001F80000
0001F80000
0000F00000
0000700000
0000600000
0000000000
0000000000
0000000000
ENDCHAR

STARTCHAR cns1_2257
ENCODING 8791
SWIDTH 960 0
DWIDTH 34 0
BBX 34 34 0 -2
BITMAP
0000000000
0000000000
0000000000
0000000000
0000000000
0000000000
0000000000
0000000000
0000000000
0000000000
0000000000
0000000000
0000070000
0000038000
000001E000
000000F000
000000FC00
3FFFFFFE00
000000FC00
000000F000
000001E000
0000018000
0000030000
0000040000
0000000000
0000000000
0000000000
0000000000
0000000000
0000000000
0000000000
0000000000
0000000000
0000000000
ENDCHAR

STARTCHAR cns1_2258
ENCODING 8792
SWIDTH 960 0
DWIDTH 34 0
BBX 34 34 0 -2
BITMAP
0000000000
0000000000
0000000000
0000000000
0000000000
0000000000
0000000000
0000000000
0000000000
0000000000
0000000000
0010000000
0030000000
00E0000000
01C0000000
07C0000000
0F80000000
1FFFFFFF00
0780000000
03C0000000
00E0000000
0060000000
0030000000
0000000000
0000000000
0000000000
0000000000
0000000000
0000000000
0000000000
0000000000
0000000000
0000000000
0000000000
ENDCHAR

STARTCHAR cns1_2259
ENCODING 8793
SWIDTH 960 0
DWIDTH 34 0
BBX 34 34 0 -2
BITMAP
0000000000
0000000000
0000000000
0000000000
0000000000
0000000000
0000000000
0000000000
01FC000000
01F8000000
01F0000000
01F8000000
01CC000000
0186000000
0002000000
0001000000
0000800000
0000C00000
0000600000
0000300000
0000180000
00000C0000
0000060000
0000030000
0000018000
000000C000
0000000000
0000000000
0000000000
0000000000
0000000000
0000000000
0000000000
0000000000
ENDCHAR

STARTCHAR cns1_225A
ENCODING 8794
SWIDTH 960 0
DWIDTH 34 0
BBX 34 34 0 -2
BITMAP
0000000000
0000000000
0000000000
0000000000
0000000000
0000000000
0000000000
0000000000
00000FE000
000007E000
000003E000
000003E000
000006E000
00000C6000
0000180000
0000300000
0000600000
0000C00000
0001800000
0003000000
0006000000
000C000000
0018000000
0030000000
0060000000
00C0000000
0000000000
0000000000
0000000000
0000000000
0000000000
0000000000
0000000000
0000000000
ENDCHAR

STARTCHAR cns1_225B
ENCODING 8795
SWIDTH 960 0
DWIDTH 34 0
BBX 34 34 0 -2
BITMAP
0000000000
0000000000
0000000000
0000000000
0000000000
0000000000
0000000000
0000000000
0000008000
0000010000
0000020000
0000040000
0000080000
0000100000
0000200000
0000400000
0000800000
0001800000
0003000000
0006000000
018C000000
01D8000000
01F0000000
01F0000000
01F8000000
01FC000000
0008000000
0000000000
0000000000
0000000000
0000000000
0000000000
0000000000
0000000000
ENDCHAR

STARTCHAR cns1_225C
ENCODING 8796
SWIDTH 960 0
DWIDTH 34 0
BBX 34 34 0 -2
BITMAP
0000000000
0000000000
0000000000
0000000000
0000000000
0000000000
0000000000
0000000000
00C0000000
0060000000
0030000000
0018000000
000C000000
0006000000
0003000000
0001800000
0000C00000
0000600000
0000300000
0000180000
00000C6000
000006E000
000003E000
000003E000
000007E000
00000FE000
0000080000
0000000000
0000000000
0000000000
0000000000
0000000000
0000000000
0000000000
ENDCHAR

STARTCHAR cns1_225D
ENCODING 8797
SWIDTH 960 0
DWIDTH 34 0
BBX 34 34 0 -2
BITMAP
0000000000
0000000000
0006180000
0006180000
0006180000
0006180000
0006180000
0006180000
0006180000
0006180000
0006180000
0006180000
0006180000
0006180000
0006180000
0006180000
0006180000
0006180000
0006180000
0006180000
0006180000
0006180000
0006180000
0006180000
0006180000
0006180000
0006180000
0006180000
0006180000
0006180000
0006180000
0006180000
0000000000
0000000000
ENDCHAR

STARTCHAR cns1_225E
ENCODING 8798
SWIDTH 960 0
DWIDTH 34 0
BBX 34 34 0 -2
BITMAP
0000000000
0000000000
0000600000
0000600000
0000600000
0000600000
0000600000
0000600000
0000600000
0000600000
0000600000
0000600000
0000600000
0000600000
0000600000
0000600000
0000600000
0000600000
0000600000
0000600000
0000600000
0000600000
0000600000
0000600000
0000600000
0000600000
0000600000
0000600000
0000600000
0000600000
0000600000
0000600000
0000000000
0000000000
ENDCHAR

STARTCHAR cns1_225F
ENCODING 8799
SWIDTH 960 0
DWIDTH 34 0
BBX 34 34 0 -2
BITMAP
0000000000
0000000000
0000000000
0000000600
0000000E00
0000001800
0000003000
0000006000
000000C000
0000018000
0000030000
0000060000
00000C0000
00001C0000
0000380000
0000700000
0000E00000
0000C00000
0001800000
0003000000
0006000000
000C000000
0018000000
0030000000
0060000000
00C0000000
0180000000
0300000000
0600000000
0E00000000
1C00000000
0000000000
0000000000
0000000000
ENDCHAR

STARTCHAR cns1_2260
ENCODING 8800
SWIDTH 960 0
DWIDTH 34 0
BBX 34 34 0 -2
BITMAP
0000000000
0000000000
0000000000
1C00000000
0E00000000
0700000000
0380000000
01C0000000
00E0000000
0060000000
0030000000
0018000000
000C000000
0006000000
0003000000
0001800000
0000C00000
0000600000
0000300000
0000180000
00001C0000
00000E0000
0000070000
0000038000
000001C000
000000C000
0000006000
0000003000
0000001800
0000000C00
0000000600
0000000000
0000000000
0000000000
ENDCHAR

STARTCHAR cns1_2261
ENCODING 8801
SWIDTH 960 0
DWIDTH 34 0
BBX 34 34 0 -2
BITMAP
0000000000
0000000000
0000000000
0000038000
0000030000
0000030000
0000060000
0000060000
00000C0000
00000C0000
0000180000
0000180000
0000180000
0000300000
0000300000
0000600000
0000600000
0000C00000
0000C00000
0001C00000
0001800000
0001800000
0003000000
0003000000
0006000000
0006000000
000C000000
000C000000
000C000000
0018000000
0018000000
0030000000
0000000000
0000000000
ENDCHAR

STARTCHAR cns1_2262
ENCODING 8802
SWIDTH 960 0
DWIDTH 34 0
BBX 34 34 0 -2
BITMAP
0000000000
0000000000
0000000000
3000000000
0800000000
0400000000
0200000000
0100000000
0080000000
0040000000
0020000000
0010000000
0008000000
000C000000
0006000000
0003000000
0001800000
0000C00000
0000600000
0000300000
0000180000
00000C0000
0000060000
0000030000
0000018000
000000C000
0000006000
0000003000
0000001800
0000001C00
0000000E00
0000000000
0000000000
0000000000
ENDCHAR

STARTCHAR cns1_2263
ENCODING 8803
SWIDTH 960 0
DWIDTH 34 0
BBX 34 34 0 -2
BITMAP
0000000000
0000000000
0000000000
0000C00000
0000C00000
0003F80000
000EDE0000
000CC60000
0018C70000
0018C70000
0018CF0000
0018C00000
0018C00000
001CC00000
000FC00000
0007E00000
0001F80000
0000FE0000
0000DF0000
0000C78000
0000C38000
003CC38000
003CC38000
003CC38000
0038C30000
0018C60000
001CCC0000
0007F80000
0001C00000
0000C00000
0000C00000
0000800000
0000000000
0000000000
ENDCHAR

STARTCHAR cns1_2264
ENCODING 8804
SWIDTH 960 0
DWIDTH 34 0
BBX 34 34 0 -2
BITMAP
0000000000
0000000000
0000000000
0000000000
0000000000
0000000000
03FF0FF800
00FC03C000
0038018000
003C030000
001E030000
001E060000
000F0E0000
07FFFFF000
0003D80000
0003D80000
0001F80000
0001F00000
0000F00000
07FFFFF000
0000F00000
0000F00000
0000F00000
0000F00000
0000F00000
0000F00000
0000F00000
0001F80000
000FFE0000
0000000000
0000000000
0000000000
0000000000
0000000000
ENDCHAR

STARTCHAR cns1_2265
ENCODING 8805
SWIDTH 960 0
DWIDTH 34 0
BBX 34 34 0 -2
BITMAP
0000000000
0000000000
0000000000
0000000000
0FFFFFFE00
0FFFFFFE00
0000000000
0000000000
0000000000
0000000000
0000000000
0FFFFFFE00
0FFFFFFE00
0000E00000
0000E00000
0000E00000
0000E00000
0000E00000
0000E00000
0000E00000
0000E00000
0000E00000
0000E00000
0000E00000
0000E00000
0000E00000
0000E00000
0000E00000
0000E00000
0000E00000
0000000000
0000000000
0000000000
0000000000
ENDCHAR

STARTCHAR cns1_2266
ENCODING 8806
SWIDTH 960 0
DWIDTH 34 0
BBX 34 34 0 -2
BITMAP
0000000000
0000000000
0000000000
0000000000
0000000000
0000000000
0000180000
0000180000
0000100000
0001F80000
00073C0000
000E6E0000
001C6E0000
003C600000
0038600000
0038C00000
0038C00000
0038C00000
0038C00000
0039800000
003D800000
003D830000
001F8E0000
000FFC0000
0003F00000
0007000000
0006000000
0006000000
0006000000
0000000000
0000000000
0000000000
0000000000
0000000000
ENDCHAR

STARTCHAR cns1_2267
ENCODING 8807
SWIDTH 960 0
DWIDTH 34 0
BBX 34 34 0 -2
BITMAP
0000000000
0000000000
0000000000
0000000000
0000000000
00001F8000
000071E000
0000E0E000
0001C0E000
0001C1F000
000380E000
0003800000
0003800000
0003800000
0003800000
0003C00000
00FFFF8000
00FFFF8000
0003C00000
0003C00000
0003C00000
0003C00000
0003C00000
00FB801000
01CF803000
0187C0F000
0186FFE000
01DC3FC000
00F8070000
0000000000
0000000000
0000000000
0000000000
0000000000
ENDCHAR

STARTCHAR cns1_2268
ENCODING 8808
SWIDTH 960 0
DWIDTH 34 0
BBX 34 34 0 -2
BITMAP
0000000000
0000000000
0000000000
0000000800
00F8001800
018C003000
0386006000
030300C000
070301C000
0703018000
0703030000
0703060000
03030C0000
03871C0000
018E180000
00FC300000
0000600000
0000C00000
0001C7E000
00018C3000
00031C1800
0006181C00
000C181C00
0018181C00
0038181C00
0030181C00
00601C1800
00C00C3800
0180067000
038003C000
0700000000
0000000000
0000000000
0000000000
ENDCHAR

STARTCHAR cns1_2269
ENCODING 8809
SWIDTH 960 0
DWIDTH 34 0
BBX 34 34 0 -2
BITMAP
0000000000
0000000000
0000000000
0000000000
0000000000
0000000000
0001E00000
000FFE0000
0038030000
0070018000
00E000C000
01C000C000
0181FE6000
03839E6000
030F1C6000
030E0C6000
031C0C6000
031C1C6000
031818C000
031838C000
039CF98000
039FDB0000
018F0E0000
00C0004000
006000C000
0030030000
001C0E0000
0007F80000
0000000000
0000000000
0000000000
0000000000
0000000000
0000000000
ENDCHAR

STARTCHAR cns1_226A
ENCODING 8810
SWIDTH 960 0
DWIDTH 34 0
BBX 34 34 0 -2
BITMAP
0000000000
0000000000
0000000000
0000000000
0100000000
0FE00E1800
0C607FF800
1C30E07800
1C31C03800
0C63801C00
0EE3800C00
0387000000
0007000000
000F000000
000F000000
000E000000
000E000000
000E000000
000E000000
000F000000
000F000000
000F000000
000F000600
0007800600
0007800E00
0003C01C00
0001E03800
0001F8F000
00007FC000
00000E0000
0000000000
0000000000
0000000000
0000000000
ENDCHAR

STARTCHAR cns1_226B
ENCODING 8811
SWIDTH 960 0
DWIDTH 34 0
BBX 34 34 0 -2
BITMAP
0000000000
0000000000
0000000000
0000000000
0000000000
0F00000000
3B80000000
3180000000
31BFFFFE00
1983800E00
1F03800600
0003800300
0003800000
0003800000
000380C000
000380C000
000381C000
0003FFC000
000381C000
000380C000
000380C000
000380C000
0003800000
0003800000
0003800000
0003800000
0003800000
0007C00000
001FFC0000
0000000000
0000000000
0000000000
0000000000
0000000000
ENDCHAR

STARTCHAR cns1_226C
ENCODING 8812
SWIDTH 960 0
DWIDTH 34 0
BBX 34 34 0 -2
BITMAP
0000000000
0000000000
0000000000
0001800000
0001800000
0003C00000
0007E00000
0005B00000
000DB00000
000DF00000
000DB00000
000D800000
000F800000
0007800000
0007800000
0003C00000
0001E00000
0001F00000
0001F00000
0001B00000
0001B00000
000FB00000
000FB00000
000FB00000
000DB00000
000DB00000
0007E00000
0003C00000
0001800000
0001800000
0001800000
0000000000
0000000000
0000000000
ENDCHAR

STARTCHAR cns1_226D
ENCODING 8813
SWIDTH 960 0
DWIDTH 34 0
BBX 34 34 0 -2
BITMAP
0000000000
0000000000
0000000000
0000070000
000F060000
000D860000
000D8C0000
001DCC0000
001DCC0000
001DD80000
001DD80000
001DB00000
001DB00000
000DB00000
000FE00000
0007600000
0000600000
0000CC0000
0000DE0000
00019E0000
0001B70000
0001B30000
0003330000
0003330000
0003330000
0006330000
00063F0000
000C3F0000
000C1E0000
000C0C0000
0018000000
0000000000
0000000000
0000000000
ENDCHAR

STARTCHAR cns1_226E
ENCODING 8814
SWIDTH 960 0
DWIDTH 34 0
BBX 34 34 0 -2
BITMAP
0000000000
0000000000
0000000000
0000000000
0000000000
0000000000
0001E00000
0003700000
0006180000
000C080000
000C0C0000
000CFC0000
0019FC0000
001BBC0000
001B340000
001B3C0000
001F2C0000
001F6C0000
001F6C0000
001FEC0000
001FF80000
001BB80000
000C000000
000C0C0000
000E180000
0006180000
0003300000
0001C00000
0000000000
0000000000
0000000000
0000000000
0000000000
0000000000
ENDCHAR

STARTCHAR cns1_226F
ENCODING 8815
SWIDTH 960 0
DWIDTH 34 0
BBX 34 34 0 -2
BITMAP
0000000000
0000000000
0000000000
0000000000
0000000000
0000000000
00003C3000
00001CF800
0000007800
0000003800
0000003800
0000003800
0000003800
0000003800
0FCF0C3800
1FFFBC3800
0EF19C3800
0EF19C3800
0EF19C3800
0EF19C3800
0EF19C3800
0EF19C3800
0EF19C3800
0EF19C3800
0EF19C3800
0EF19C3800
0EF19C3800
0EF19C3800
1FFFFFFE00
000C018400
0000000000
0000000000
0000000000
0000000000
ENDCHAR

STARTCHAR cns1_2270
ENCODING 8816
SWIDTH 960 0
DWIDTH 34 0
BBX 34 34 0 -2
BITMAP
0000000000
0000000000
0000000000
0000000000
0000000000
0000000000
0000000000
0000000000
0000000000
0000000000
0000000000
0000000000
0000000000
0000000000
0F8E1FB800
3FFF7FFC00
1CE73DCC00
1CC739CC00
1CC739CC00
1CC739CC00
1CC739CC00
1CC739CC00
1CC739CC00
1CC739CC00
1CC739CC00
1CC739CC00
1CC739CC00
1CC739CC00
3FFFFFFF00
0220042200
0000000000
0000000000
0000000000
0000000000
ENDCHAR

STARTCHAR cns1_2271
ENCODING 8817
SWIDTH 960 0
DWIDTH 34 0
BBX 34 34 0 -2
BITMAP
0000000000
0000000000
0000000000
0000000000
0000000000
0000000000
0000000000
0000000000
0000000000
0000000000
0000000000
0000000000
0000000000
03F0000000
0779DE3800
0C3FF7FC00
1C1DE38C00
1801C30C00
3801C30C00
3801C30C00
3801C30C00
3801C30C00
3801C30C00
3C01C30C00
1C01C30C00
1C0DC30C00
0E1DC30C00
07B9C30C00
01E3FFFF80
000028C300
0000000000
0000000000
0000000000
0000000000
ENDCHAR

STARTCHAR cns1_2272
ENCODING 8818
SWIDTH 960 0
DWIDTH 34 0
BBX 34 34 0 -2
BITMAP
0000000000
0000000000
0000000000
0000000000
0000000000
0000000000
1E00000000
1E00000000
0E00000000
0E00000000
0E00000000
0E00000000
0E00000000
0E00000000
0E3EFF7C00
0E19FFDE00
0E38FBCE00
0E30F38E00
0E60F38E00
0EF0F38E00
0FF0F38E00
0F70F38E00
0E70F38E00
0E38F38E00
0E38F38E00
0E18F38E00
0E1CF38E00
1E1EF38E00
3F7FFFDF00
0000000000
0000000000
0000000000
0000000000
0000000000
ENDCHAR

STARTCHAR cns1_2273
ENCODING 8819
SWIDTH 960 0
DWIDTH 34 0
BBX 34 34 0 -2
BITMAP
0000000000
0000000000
0000000000
0000000000
0000000000
0000000000
1F7EF07E00
0E38707C00
0E10787C00
0E30787C00
0E2078FC00
0E6078FC00
0E4078BC00
0EC078BC00
0E807CBC00
0F806CBC00
0FC06CBC00
0FC06CBC00
0EE06DBC00
0EE06FBC00
0E60673C00
0E70673C00
0E70673C00
0E30673C00
0E38673C00
0E18673C00
0E1C633C00
0E1C633C00
3F7FF27E00
0042000000
0000000000
0000000000
0000000000
0000000000
ENDCHAR

STARTCHAR cns1_2274
ENCODING 8820
SWIDTH 960 0
DWIDTH 34 0
BBX 34 34 0 -2
BITMAP
0000000000
0000000000
0000000000
0000000000
0000000000
0000000000
0000001E00
0000003F00
0000007300
0000000300
0000000600
0000000E00
0000000C00
0000001900
0F7E3F3300
1FCF67BE00
0F83C1C000
0F0381C000
0F0381C000
0F0381C000
0F0381C000
0F0381C000
0F0381C000
0F0381C000
0F0381C000
0F0381C000
0F0381C000
1F03C1C000
3FDFEFF000
0000000000
0000000000
0000000000
0000000000
0000000000
ENDCHAR

STARTCHAR cns1_2275
ENCODING 8821
SWIDTH 960 0
DWIDTH 34 0
BBX 34 34 0 -2
BITMAP
0000000000
0000000000
0000000000
0000000000
0000000000
0000000000
0000000000
0000000000
0000000000
0000000000
0000000000
0000000000
0000000000
01C7000600
1FEF87FF80
3EFBCE3B00
1CF3CC3800
1CF3DC1800
1CF3DC1800
1CF3DC1800
1CF3CE3800
1CF3CE3000
1CF3C3E000
1CF3CF8000
1CF3DE0000
1CF3CFC000
1CF3C3FC00
3FFFEE0E00
0000180700
0000180700
0000180600
00000E1C00
000007E000
0000000000
ENDCHAR

STARTCHAR cns1_2276
ENCODING 8822
SWIDTH 960 0
DWIDTH 34 0
BBX 34 34 0 -2
BITMAP
0000000000
0000000000
0000000000
0000000000
0000000000
0000000000
0F00000000
3F00000000
1F00000000
0F00000000
0F00000000
0F00000000
0F00000000
0F00000C00
0F1F0FDE00
0F0E1C6600
0F0C387000
0F18387000
0F30383000
0F60387000
0F70387000
0FF01C6000
0FB80FC000
0F381F0000
0F1C3C0000
0F1C3F0000
0F0E07F000
0F0E1C7C00
3FBFB00E00
2021700E00
0000300C00
0000381800
00001FE000
0000000000
ENDCHAR

STARTCHAR cns1_2277
ENCODING 8823
SWIDTH 960 0
DWIDTH 34 0
BBX 34 34 0 -2
BITMAP
0000000000
0000000000
0000000000
0000000000
0000000000
0000000000
0000000000
0000000000
0000000000
0000000000
0000000000
0000000000
0000000000
03FC03F800
070E061C00
0E0F1C1E00
0E0F1C1E00
1C04380000
1C00380000
1C00380000
1C00380000
1C00380000
1C00380000
1C003C0000
1E003C0000
0F011E0200
07870F0600
03FC07FC00
0000000000
0000000000
0000000000
0000000000
0000000000
0000000000
ENDCHAR

STARTCHAR cns1_2278
ENCODING 8824
SWIDTH 960 0
DWIDTH 34 0
BBX 34 34 0 -2
BITMAP
0000000000
0000000000
0000000000
0000000000
0000000000
0000000000
0000000000
000C000000
003F000000
0031800000
0071C00000
0071C00000
0031800000
003F800000
000C000000
0000000000
0000000000
0000000000
0000000000
0000000000
0000000000
0000000000
0000000000
0000000000
0000000000
0000000000
0000000000
0000000000
0000000000
0000000000
0000000000
0000000000
0000000000
0000000000
ENDCHAR

STARTCHAR cns1_2279
ENCODING 8825
SWIDTH 960 0
DWIDTH 34 0
BBX 34 34 0 -2
BITMAP
0000000000
0000000000
0000000000
003000C000
003800E000
003000C000
0030C0C000
1FFFE0C000
003000C000
003000C000
003000C000
043180C000
07FFC0CC00
06019FFE00
060180C000
060180C000
060180C000
060180C000
07FF80C000
06CD80C000
00CC00C000
00CC00C000
00CC00C000
00CC00C000
00CC00C000
00CC00C200
018C00C200
018C000200
030C000300
060E000700
0C07FFFE00
3800000000
0000000000
0000000000
ENDCHAR

STARTCHAR cns1_227A
ENCODING 8826
SWIDTH 960 0
DWIDTH 34 0
BBX 34 34 0 -2
BITMAP
0000000000
0000000000
0000000000
0060000000
0070000C00
0060003E00
006000F000
0063078000
1FFFBD8000
0060018000
0060018000
0863018000
0FFF818000
0C03018600
0C037FFF00
0C03018000
0C03018000
0C03018000
0FFF018000
0D9B018000
0198018000
0198018000
0198018000
0198018000
0198018000
0198018200
0318018200
0718018200
0E18000300
1C1C000700
300FFFFE00
0000000000
0000000000
0000000000
ENDCHAR

STARTCHAR cns1_227B
ENCODING 8827
SWIDTH 960 0
DWIDTH 34 0
BBX 34 34 0 -2
BITMAP
0000000000
0000000000
0000000000
0070000000
0060001800
0060007C00
006301E000
1FFF9F0000
0060760000
0060060000
0060063000
0863067800
0FFF87C000
0C037E0000
0C03060000
0C03060000
0C03060C00
0C03067F00
0FFF0FC000
0D9B7E0000
0198060000
0198060200
0198060200
0198060300
0198060700
019807FE00
0318000000
0318000400
0618000400
0C18000E00
181FFFFC00
0000000000
0000000000
0000000000
ENDCHAR

STARTCHAR cns1_227C
ENCODING 8828
SWIDTH 960 0
DWIDTH 34 0
BBX 34 34 0 -2
BITMAP
0000000000
0000000000
00C0000000
00E0006000
00C007F000
00C0006000
00C60E6000
1FFF0C3000
00C0183000
00C0381800
10C6301C00
1FFF600F00
1806C01800
18063FFC00
1806061800
1806061800
1806061800
1806061800
1FFE061800
1B36061800
0330061800
03300C1800
03300C1800
0330181800
0330183000
0330307200
073067E200
063041C200
0C30000300
0C30000700
183FFFFE00
3000000000
0000000000
0000000000
ENDCHAR

STARTCHAR cns1_227D
ENCODING 8829
SWIDTH 960 0
DWIDTH 34 0
BBX 34 34 0 -2
BITMAP
0000000000
0000000000
0000000000
01C0000000
0180000C00
01807FFE00
018C030000
7FFE030000
0180060000
0180461800
01807FFC00
218C601800
3FFE601800
300C601800
300C601800
300C601800
300C601800
300C7FF800
3FFC601800
36CC601800
06C0601800
06C0601800
06C0601800
06C0601800
06C07FF800
06C0601900
0CC0000100
0CC0000100
18C0000180
38E0000380
707FFFFF00
0000000000
0000000000
0000000000
ENDCHAR

STARTCHAR cns1_227E
ENCODING 8830
SWIDTH 960 0
DWIDTH 34 0
BBX 34 34 0 -2
BITMAP
0000000000
0000000000
0000000000
01C0800C00
0180FFFE00
0180C00000
018CC00000
7FFEC80C00
0180CFFE00
0180CCCC00
0180CCCC00
118CCCCC00
1FFECFFC00
180CCCCC00
180CCCCC00
180CCCCC00
180CCFFC00
180CCCCC00
1FFCC0C000
1B6CC0CC00
0360CFFE00
0360C0C000
036180C000
036180C000
036180C300
03633FFF80
0663000000
0660000100
0C60000100
1870000380
707FFFFF00
0000000000
0000000000
0000000000
ENDCHAR

STARTCHAR cns1_2321
ENCODING 8993
SWIDTH 960 0
DWIDTH 34 0
BBX 34 34 0 -2
BITMAP
0000000000
0000000000
0038000000
0030000000
0031880C00
07FFCFFE00
00318C0C00
00318C0C00
00618C0C00
00618C0C00
00C18C0C00
01C38FFC00
033F0C0C00
0E0EE00000
0001F00000
00071E0000
001C07C000
007001FE00
03C00C3800
0E1FFE0000
0000000000
0100003000
01FFFFF800
01860C3000
01860C3000
01860C3000
01FFFFF000
01860C3000
01860C3000
01860C3000
01860C3000
01860DF000
0180006000
0000000000
ENDCHAR

STARTCHAR cns1_2322
ENCODING 8994
SWIDTH 960 0
DWIDTH 34 0
BBX 34 34 0 -2
BITMAP
0000000000
0000000000
0000000000
0000000000
0007001800
1FFF807C00
038001E000
03800F8000
0380FB0000
0300030000
0300030000
0306030000
03FF030000
0306030000
0306030E00
0307FFFE00
0366030000
0726030000
0736030000
0636030000
063E030000
0636030000
0606030000
0606030600
060E030600
067E030600
07C6030600
0F06000600
3C06000E00
0003FFFE00
0000000000
0000000000
0000000000
0000000000
ENDCHAR

STARTCHAR cns1_2323
ENCODING 8995
SWIDTH 1000 0
DWIDTH 34 0
BBX 34 34 0 -2
BITMAP
0000000000
0000000000
0000000000
0380000000
0302000C00
0313FFFE00
331B000000
333B000000
1B33200C00
1B633FFE00
0B43318C00
0303318C00
0303318C00
0333318C00
3FFB3FFC00
0303318C00
0303318C00
0783318C00
07C3318C00
0FE33FFC00
0F73318C00
0F23018000
1B03018000
1B06018C00
33063FFE00
6306018000
030C018000
030C018000
0318018300
0319FFFF80
0330000000
0000000000
0000000000
0000000000
ENDCHAR

STARTCHAR cns1_2324
ENCODING 8996
SWIDTH 1000 0
DWIDTH 34 0
BBX 34 34 0 -2
BITMAP
0000000000
0000000000
0000000000
0000000000
0000000000
0000000000
0000000000
0000000000
0000000000
0000000000
0000000000
0000000000
0000000000
0000000000
0000000000
0000000000
0000000000
0000000000
0000000000
0000000000
0000000000
0000000000
0000000000
0000000000
0000000000
0000000000
0000000000
0000000000
7FFFFFFF80
7FFFFFFF80
7FFFFFFF80
7FFFFFFF80
7FFFFFFF80
0000000000
ENDCHAR

STARTCHAR cns1_2325
ENCODING 8997
SWIDTH 1000 0
DWIDTH 34 0
BBX 34 34 0 -2
BITMAP
0000000000
0000000000
0000000000
0000000000
0000000000
0000000000
0000000000
0000000000
0000000000
0000000000
0000000000
0000000000
0000000000
0000000000
0000000000
0000000000
0000000000
0000000000
0000000000
0000000000
0000000000
0000000000
0000000000
0000000000
7FFFFFFF80
7FFFFFFF80
7FFFFFFF80
7FFFFFFF80
7FFFFFFF80
7FFFFFFF80
7FFFFFFF80
7FFFFFFF80
7FFFFFFF80
0000000000
ENDCHAR

STARTCHAR cns1_2326
ENCODING 8998
SWIDTH 1000 0
DWIDTH 34 0
BBX 34 34 0 -2
BITMAP
0000000000
0000000000
0000000000
0000000000
0000000000
0000000000
0000000000
0000000000
0000000000
0000000000
0000000000
0000000000
0000000000
0000000000
0000000000
0000000000
0000000000
0000000000
0000000000
0000000000
7FFFFFFF80
7FFFFFFF80
7FFFFFFF80
7FFFFFFF80
7FFFFFFF80
7FFFFFFF80
7FFFFFFF80
7FFFFFFF80
7FFFFFFF80
7FFFFFFF80
7FFFFFFF80
7FFFFFFF80
7FFFFFFF80
0000000000
ENDCHAR

STARTCHAR cns1_2327
ENCODING 8999
SWIDTH 1000 0
DWIDTH 34 0
BBX 34 34 0 -2
BITMAP
0000000000
0000000000
0000000000
0000000000
0000000000
0000000000
0000000000
0000000000
0000000000
0000000000
0000000000
0000000000
0000000000
0000000000
0000000000
0000000000
7FFFFFFF80
7FFFFFFF80
7FFFFFFF80
7FFFFFFF80
7FFFFFFF80
7FFFFFFF80
7FFFFFFF80
7FFFFFFF80
7FFFFFFF80
7FFFFFFF80
7FFFFFFF80
7FFFFFFF80
7FFFFFFF80
7FFFFFFF80
7FFFFFFF80
7FFFFFFF80
7FFFFFFF80
0000000000
ENDCHAR

STARTCHAR cns1_2328
ENCODING 9000
SWIDTH 1000 0
DWIDTH 34 0
BBX 34 34 0 -2
BITMAP
0000000000
0000000000
0000000000
0000000000
0000000000
0000000000
0000000000
0000000000
0000000000
0000000000
0000000000
0000000000
0000000000
7FFFFFFF80
7FFFFFFF80
7FFFFFFF80
7FFFFFFF80
7FFFFFFF80
7FFFFFFF80
7FFFFFFF80
7FFFFFFF80
7FFFFFFF80
7FFFFFFF80
7FFFFFFF80
7FFFFFFF80
7FFFFFFF80
7FFFFFFF80
7FFFFFFF80
7FFFFFFF80
7FFFFFFF80
7FFFFFFF80
7FFFFFFF80
7FFFFFFF80
0000000000
ENDCHAR

STARTCHAR cns1_2329
ENCODING 9001
SWIDTH 1000 0
DWIDTH 34 0
BBX 34 34 0 -2
BITMAP
0000000000
0000000000
0000000000
0000000000
0000000000
0000000000
0000000000
0000000000
0000000000
7FFFFFFF80
7FFFFFFF80
7FFFFFFF80
7FFFFFFF80
7FFFFFFF80
7FFFFFFF80
7FFFFFFF80
7FFFFFFF80
7FFFFFFF80
7FFFFFFF80
7FFFFFFF80
7FFFFFFF80
7FFFFFFF80
7FFFFFFF80
7FFFFFFF80
7FFFFFFF80
7FFFFFFF80
7FFFFFFF80
7FFFFFFF80
7FFFFFFF80
7FFFFFFF80
7FFFFFFF80
7FFFFFFF80
7FFFFFFF80
0000000000
ENDCHAR

STARTCHAR cns1_232A
ENCODING 9002
SWIDTH 1000 0
DWIDTH 34 0
BBX 34 34 0 -2
BITMAP
0000000000
0000000000
0000000000
0000000000
0000000000
0000000000
7FFFFFFF80
7FFFFFFF80
7FFFFFFF80
7FFFFFFF80
7FFFFFFF80
7FFFFFFF80
7FFFFFFF80
7FFFFFFF80
7FFFFFFF80
7FFFFFFF80
7FFFFFFF80
7FFFFFFF80
7FFFFFFF80
7FFFFFFF80
7FFFFFFF80
7FFFFFFF80
7FFFFFFF80
7FFFFFFF80
7FFFFFFF80
7FFFFFFF80
7FFFFFFF80
7FFFFFFF80
7FFFFFFF80
7FFFFFFF80
7FFFFFFF80
7FFFFFFF80
7FFFFFFF80
0000000000
ENDCHAR

STARTCHAR cns1_232B
ENCODING 9003
SWIDTH 1000 0
DWIDTH 34 0
BBX 34 34 0 -2
BITMAP
0000000000
7FFFFFFF80
7FFFFFFF80
7FFFFFFF80
7FFFFFFF80
7FFFFFFF80
7FFFFFFF80
7FFFFFFF80
7FFFFFFF80
7FFFFFFF80
7FFFFFFF80
7FFFFFFF80
7FFFFFFF80
7FFFFFFF80
7FFFFFFF80
7FFFFFFF80
7FFFFFFF80
7FFFFFFF80
7FFFFFFF80
7FFFFFFF80
7FFFFFFF80
7FFFFFFF80
7FFFFFFF80
7FFFFFFF80
7FFFFFFF80
7FFFFFFF80
7FFFFFFF80
7FFFFFFF80
7FFFFFFF80
7FFFFFFF80
7FFFFFFF80
7FFFFFFF80
7FFFFFFF80
0000000000
ENDCHAR

STARTCHAR cns1_232C
ENCODING 9004
SWIDTH 1000 0
DWIDTH 34 0
BBX 34 34 0 -2
BITMAP
0000000000
7C00000000
7C00000000
7C00000000
7C00000000
7C00000000
7C00000000
7C00000000
7C00000000
7C00000000
7C00000000
7C00000000
7C00000000
7C00000000
7C00000000
7C00000000
7C00000000
7C00000000
7C00000000
7C00000000
7C00000000
7C00000000
7C00000000
7C00000000
7C00000000
7C00000000
7C00000000
7C00000000
7C00000000
7C00000000
7C00000000
7C00000000
7C00000000
0000000000
ENDCHAR

STARTCHAR cns1_232D
ENCODING 9005
SWIDTH 1000 0
DWIDTH 34 0
BBX 34 34 0 -2
BITMAP
0000000000
7FC0000000
7FC0000000
7FC0000000
7FC0000000
7FC0000000
7FC0000000
7FC0000000
7FC0000000
7FC0000000
7FC0000000
7FC0000000
7FC0000000
7FC0000000
7FC0000000
7FC0000000
7FC0000000
7FC0000000
7FC0000000
7FC0000000
7FC0000000
7FC0000000
7FC0000000
7FC0000000
7FC0000000
7FC0000000
7FC0000000
7FC0000000
7FC0000000
7FC0000000
7FC0000000
7FC0000000
7FC0000000
0000000000
ENDCHAR

STARTCHAR cns1_232E
ENCODING 9006
SWIDTH 1000 0
DWIDTH 34 0
BBX 34 34 0 -2
BITMAP
0000000000
7FFC000000
7FFC000000
7FFC000000
7FFC000000
7FFC000000
7FFC000000
7FFC000000
7FFC000000
7FFC000000
7FFC000000
7FFC000000
7FFC000000
7FFC000000
7FFC000000
7FFC000000
7FFC000000
7FFC000000
7FFC000000
7FFC000000
7FFC000000
7FFC000000
7FFC000000
7FFC000000
7FFC000000
7FFC000000
7FFC000000
7FFC000000
7FFC000000
7FFC000000
7FFC000000
7FFC000000
7FFC000000
0000000000
ENDCHAR

STARTCHAR cns1_232F
ENCODING 9007
SWIDTH 1000 0
DWIDTH 34 0
BBX 34 34 0 -2
BITMAP
0000000000
7FFFC00000
7FFFC00000
7FFFC00000
7FFFC00000
7FFFC00000
7FFFC00000
7FFFC00000
7FFFC00000
7FFFC00000
7FFFC00000
7FFFC00000
7FFFC00000
7FFFC00000
7FFFC00000
7FFFC00000
7FFFC00000
7FFFC00000
7FFFC00000
7FFFC00000
7FFFC00000
7FFFC00000
7FFFC00000
7FFFC00000
7FFFC00000
7FFFC00000
7FFFC00000
7FFFC00000
7FFFC00000
7FFFC00000
7FFFC00000
7FFFC00000
7FFFC00000
0000000000
ENDCHAR

STARTCHAR cns1_2330
ENCODING 9008
SWIDTH 1000 0
DWIDTH 34 0
BBX 34 34 0 -2
BITMAP
0000000000
7FFFF80000
7FFFF80000
7FFFF80000
7FFFF80000
7FFFF80000
7FFFF80000
7FFFF80000
7FFFF80000
7FFFF80000
7FFFF80000
7FFFF80000
7FFFF80000
7FFFF80000
7FFFF80000
7FFFF80000
7FFFF80000
7FFFF80000
7FFFF80000
7FFFF80000
7FFFF80000
7FFFF80000
7FFFF80000
7FFFF80000
7FFFF80000
7FFFF80000
7FFFF80000
7FFFF80000
7FFFF80000
7FFFF80000
7FFFF80000
7FFFF80000
7FFFF80000
0000000000
ENDCHAR

STARTCHAR cns1_2331
ENCODING 9009
SWIDTH 1000 0
DWIDTH 34 0
BBX 34 34 0 -2
BITMAP
0000000000
7FFFFF8000
7FFFFF8000
7FFFFF8000
7FFFFF8000
7FFFFF8000
7FFFFF8000
7FFFFF8000
7FFFFF8000
7FFFFF8000
7FFFFF8000
7FFFFF8000
7FFFFF8000
7FFFFF8000
7FFFFF8000
7FFFFF8000
7FFFFF8000
7FFFFF8000
7FFFFF8000
7FFFFF8000
7FFFFF8000
7FFFFF8000
7FFFFF8000
7FFFFF8000
7FFFFF8000
7FFFFF8000
7FFFFF8000
7FFFFF8000
7FFFFF8000
7FFFFF8000
7FFFFF8000
7FFFFF8000
7FFFFF8000
0000000000
ENDCHAR

STARTCHAR cns1_2332
ENCODING 9010
SWIDTH 1000 0
DWIDTH 34 0
BBX 34 34 0 -2
BITMAP
0000000000
7FFFFFF000
7FFFFFF000
7FFFFFF000
7FFFFFF000
7FFFFFF000
7FFFFFF000
7FFFFFF000
7FFFFFF000
7FFFFFF000
7FFFFFF000
7FFFFFF000
7FFFFFF000
7FFFFFF000
7FFFFFF000
7FFFFFF000
7FFFFFF000
7FFFFFF000
7FFFFFF000
7FFFFFF000
7FFFFFF000
7FFFFFF000
7FFFFFF000
7FFFFFF000
7FFFFFF000
7FFFFFF000
7FFFFFF000
7FFFFFF000
7FFFFFF000
7FFFFFF000
7FFFFFF000
7FFFFFF000
7FFFFFF000
0000000000
ENDCHAR

STARTCHAR cns1_2333
ENCODING 9011
SWIDTH 1000 0
DWIDTH 34 0
BBX 34 34 0 -2
BITMAP
0000600000
0000600000
0000600000
0000600000
0000600000
0000600000
0000600000
0000600000
0000600000
0000600000
0000600000
0000600000
0000600000
0000600000
0000600000
0000600000
FFFFFFFFC0
FFFFFFFFC0
0000600000
0000600000
0000600000
0000600000
0000600000
0000600000
0000600000
0000600000
0000600000
0000600000
0000600000
0000600000
0000600000
0000600000
0000600000
0000600000
ENDCHAR

STARTCHAR cns1_2334
ENCODING 9012
SWIDTH 1000 0
DWIDTH 34 0
BBX 34 34 0 -2
BITMAP
0000600000
0000600000
0000600000
0000600000
0000600000
0000600000
0000600000
0000600000
0000600000
0000600000
0000600000
0000600000
0000600000
0000600000
0000600000
0000600000
FFFFFFFFC0
FFFFFFFFC0
0000000000
0000000000
0000000000
0000000000
0000000000
0000000000
0000000000
0000000000
0000000000
0000000000
0000000000
0000000000
0000000000
0000000000
0000000000
0000000000
ENDCHAR

STARTCHAR cns1_2335
ENCODING 9013
SWIDTH 1000 0
DWIDTH 34 0
BBX 34 34 0 -2
BITMAP
0000000000
0000000000
0000000000
0000000000
0000000000
0000000000
0000000000
0000000000
0000000000
0000000000
0000000000
0000000000
0000000000
0000000000
0000000000
0000000000
FFFFFFFFC0
FFFFFFFFC0
0000600000
0000600000
0000600000
0000600000
0000600000
0000600000
0000600000
0000600000
0000600000
0000600000
0000600000
0000600000
0000600000
0000600000
0000600000
0000600000
ENDCHAR

STARTCHAR cns1_2336
ENCODING 9014
SWIDTH 1000 0
DWIDTH 34 0
BBX 34 34 0 -2
BITMAP
0000600000
0000600000
0000600000
0000600000
0000600000
0000600000
0000600000
0000600000
0000600000
0000600000
0000600000
0000600000
0000600000
0000600000
0000600000
0000600000
FFFFE00000
FFFFE00000
0000600000
0000600000
0000600000
0000600000
0000600000
0000600000
0000600000
0000600000
0000600000
0000600000
0000600000
0000600000
0000600000
0000600000
0000600000
0000600000
ENDCHAR

STARTCHAR cns1_2337
ENCODING 9015
SWIDTH 1000 0
DWIDTH 34 0
BBX 34 34 0 -2
BITMAP
0000600000
0000600000
0000600000
0000600000
0000600000
0000600000
0000600000
0000600000
0000600000
0000600000
0000600000
0000600000
0000600000
0000600000
0000600000
0000600000
00007FFFC0
00007FFFC0
0000600000
0000600000
0000600000
0000600000
0000600000
0000600000
0000600000
0000600000
0000600000
0000600000
0000600000
0000600000
0000600000
0000600000
0000600000
0000600000
ENDCHAR

STARTCHAR cns1_2338
ENCODING 9016
SWIDTH 1000 0
DWIDTH 34 0
BBX 34 34 0 -2
BITMAP
0000000000
7FFFFFFF80
7FFFFFFF80
0000000000
0000000000
0000000000
0000000000
0000000000
0000000000
0000000000
0000000000
0000000000
0000000000
0000000000
0000000000
0000000000
0000000000
0000000000
0000000000
0000000000
0000000000
0000000000
0000000000
0000000000
0000000000
0000000000
0000000000
0000000000
0000000000
0000000000
0000000000
0000000000
0000000000
0000000000
ENDCHAR

STARTCHAR cns1_2339
ENCODING 9017
SWIDTH 1000 0
DWIDTH 34 0
BBX 34 34 0 -2
BITMAP
0000000000
0000000000
0000000000
0000000000
0000000000
0000000000
0000000000
0000000000
0000000000
0000000000
0000000000
0000000000
0000000000
0000000000
0000000000
0000000000
FFFFFFFFC0
FFFFFFFFC0
0000000000
0000000000
0000000000
0000000000
0000000000
0000000000
0000000000
0000000000
0000000000
0000000000
0000000000
0000000000
0000000000
0000000000
0000000000
0000000000
ENDCHAR

STARTCHAR cns1_233A
ENCODING 9018
SWIDTH 1000 0
DWIDTH 34 0
BBX 34 34 0 -2
BITMAP
0000600000
0000600000
0000600000
0000600000
0000600000
0000600000
0000600000
0000600000
0000600000
0000600000
0000600000
0000600000
0000600000
0000600000
0000600000
0000600000
0000600000
0000600000
0000600000
0000600000
0000600000
0000600000
0000600000
0000600000
0000600000
0000600000
0000600000
0000600000
0000600000
0000600000
0000600000
0000600000
0000600000
0000600000
ENDCHAR

STARTCHAR cns1_233B
ENCODING 9019
SWIDTH 1000 0
DWIDTH 34 0
BBX 34 34 0 -2
BITMAP
0000000000
0000000F80
0000000F80
0000000F80
0000000F80
0000000F80
0000000F80
0000000F80
0000000F80
0000000F80
0000000F80
0000000F80
0000000F80
0000000F80
0000000F80
0000000F80
0000000F80
0000000F80
0000000F80
0000000F80
0000000F80
0000000F80
0000000F80
0000000F80
0000000F80
0000000F80
0000000F80
0000000F80
0000000F80
0000000F80
0000000F80
0000000F80
0000000F80
0000000000
ENDCHAR

STARTCHAR cns1_233C
ENCODING 9020
SWIDTH 1000 0
DWIDTH 34 0
BBX 34 34 0 -2
BITMAP
0000000000
0000000000
0000000000
0000000000
0000000000
0000000000
0000000000
0000000000
0000000000
0000000000
0000000000
0000000000
0000000000
0000000000
0000000000
0000000000
00007FFFC0
00007FFFC0
0000600000
0000600000
0000600000
0000600000
0000600000
0000600000
0000600000
0000600000
0000600000
0000600000
0000600000
0000600000
0000600000
0000600000
0000600000
0000600000
ENDCHAR

STARTCHAR cns1_233D
ENCODING 9021
SWIDTH 1000 0
DWIDTH 34 0
BBX 34 34 0 -2
BITMAP
0000000000
0000000000
0000000000
0000000000
0000000000
0000000000
0000000000
0000000000
0000000000
0000000000
0000000000
0000000000
0000000000
0000000000
0000000000
0000000000
FFFFE00000
FFFFE00000
0000600000
0000600000
0000600000
0000600000
0000600000
0000600000
0000600000
0000600000
0000600000
0000600000
0000600000
0000600000
0000600000
0000600000
0000600000
0000600000
ENDCHAR

STARTCHAR cns1_233E
ENCODING 9022
SWIDTH 1000 0
DWIDTH 34 0
BBX 34 34 0 -2
BITMAP
0000600000
0000600000
0000600000
0000600000
0000600000
0000600000
0000600000
0000600000
0000600000
0000600000
0000600000
0000600000
0000600000
0000600000
0000600000
0000600000
00007FFFC0
00007FFFC0
0000000000
0000000000
0000000000
0000000000
0000000000
0000000000
0000000000
0000000000
0000000000
0000000000
0000000000
0000000000
0000000000
0000000000
0000000000
0000000000
ENDCHAR

STARTCHAR cns1_233F
ENCODING 9023
SWIDTH 1000 0
DWIDTH 34 0
BBX 34 34 0 -2
BITMAP
0000600000
0000600000
0000600000
0000600000
0000600000
0000600000
0000600000
0000600000
0000600000
0000600000
0000600000
0000600000
0000600000
0000600000
0000600000
0000600000
FFFFE00000
FFFFE00000
0000000000
0000000000
0000000000
0000000000
0000000000
0000000000
0000000000
0000000000
0000000000
0000000000
0000000000
0000000000
0000000000
0000000000
0000000000
0000000000
ENDCHAR

STARTCHAR cns1_2340
ENCODING 9024
SWIDTH 1000 0
DWIDTH 34 0
BBX 34 34 0 -2
BITMAP
0000000000
0000000000
0000000000
0000000000
0000000000
0000000000
0000000000
0000000000
0000000000
0000000000
0000000000
0000000000
0000000000
0000000000
0000000000
0000000000
000000FFC0
000001FFC0
0000078000
00000E0000
00001C0000
0000180000
0000300000
0000300000
0000600000
0000600000
0000600000
0000600000
0000600000
0000600000
0000600000
0000600000
0000600000
0000600000
ENDCHAR

STARTCHAR cns1_2341
ENCODING 9025
SWIDTH 1000 0
DWIDTH 34 0
BBX 34 34 0 -2
BITMAP
0000000000
0000000000
0000000000
0000000000
0000000000
0000000000
0000000000
0000000000
0000000000
0000000000
0000000000
0000000000
0000000000
0000000000
0000000000
0000000000
FFC0000000
FFF8000000
003C000000
0006000000
0003800000
0001C00000
0001C00000
0000C00000
0000600000
0000600000
0000600000
0000600000
0000600000
0000600000
0000600000
0000600000
0000600000
0000600000
ENDCHAR

STARTCHAR cns1_2342
ENCODING 9026
SWIDTH 1000 0
DWIDTH 34 0
BBX 34 34 0 -2
BITMAP
0000600000
0000600000
0000600000
0000600000
0000600000
0000600000
0000600000
0000600000
0000600000
0000600000
0000600000
0000700000
0000300000
0000380000
0000180000
00000E0000
000007FFC0
000003FFC0
0000000000
0000000000
0000000000
0000000000
0000000000
0000000000
0000000000
0000000000
0000000000
0000000000
0000000000
0000000000
0000000000
0000000000
0000000000
0000000000
ENDCHAR

STARTCHAR cns1_2343
ENCODING 9027
SWIDTH 1000 0
DWIDTH 34 0
BBX 34 34 0 -2
BITMAP
0000600000
0000600000
0000600000
0000600000
0000600000
0000600000
0000600000
0000600000
0000600000
0000600000
0000C00000
0000C00000
0000C00000
0001800000
0007000000
000E000000
FFFC000000
FFF0000000
0000000000
0000000000
0000000000
0000000000
0000000000
0000000000
0000000000
0000000000
0000000000
0000000000
0000000000
0000000000
0000000000
0000000000
0000000000
0000000000
ENDCHAR

STARTCHAR cns1_2344
ENCODING 9028
SWIDTH 1000 0
DWIDTH 34 0
BBX 34 34 0 -2
BITMAP
0000000000
0000000000
0000000000
0000000000
0000000000
0000000000
0000000000
0000000000
0000000000
0000000000
FFFFFFFFC0
FFFFFFFFC0
0000000000
0000000000
0000000000
0000000000
0000000000
0000000000
0000000000
0000000000
0000000000
0000000000
FFFFFFFFC0
FFFFFFFFC0
0000000000
0000000000
0000000000
0000000000
0000000000
0000000000
0000000000
0000000000
0000000000
0000000000
ENDCHAR

STARTCHAR cns1_2345
ENCODING 9029
SWIDTH 1000 0
DWIDTH 34 0
BBX 34 34 0 -2
BITMAP
0000600000
0000600000
0000600000
0000600000
0000600000
0000600000
0000600000
0000600000
0000600000
0000600000
00007FFFC0
00007FFFC0
0000600000
0000600000
0000600000
0000600000
0000600000
0000600000
0000600000
0000600000
0000600000
0000600000
00007FFFC0
00007FFFC0
0000600000
0000600000
0000600000
0000600000
0000600000
0000600000
0000600000
0000600000
0000600000
0000600000
ENDCHAR

STARTCHAR cns1_2346
ENCODING 9030
SWIDTH 1000 0
DWIDTH 34 0
BBX 34 34 0 -2
BITMAP
0000600000
0000600000
0000600000
0000600000
0000600000
0000600000
0000600000
0000600000
0000600000
0000600000
FFFFFFFFC0
FFFFFFFFC0
0000600000
0000600000
0000600000
0000600000
0000600000
0000600000
0000600000
0000600000
0000600000
0000600000
FFFFFFFFC0
FFFFFFFFC0
0000600000
0000600000
0000600000
0000600000
0000600000
0000600000
0000600000
0000600000
0000600000
0000600000
ENDCHAR

STARTCHAR cns1_2347
ENCODING 9031
SWIDTH 1000 0
DWIDTH 34 0
BBX 34 34 0 -2
BITMAP
0000600000
0000600000
0000600000
0000600000
0000600000
0000600000
0000600000
0000600000
0000600000
0000600000
FFFFE00000
FFFFE00000
0000600000
0000600000
0000600000
0000600000
0000600000
0000600000
0000600000
0000600000
0000600000
0000600000
FFFFE00000
FFFFE00000
0000600000
0000600000
0000600000
0000600000
0000600000
0000600000
0000600000
0000600000
0000600000
0000600000
ENDCHAR

STARTCHAR cns1_2348
ENCODING 9032
SWIDTH 1000 0
DWIDTH 34 0
BBX 34 34 0 -2
BITMAP
0000000000
0000000000
0000000080
0000000180
0000000380
0000000780
0000000F80
0000001F80
0000003F80
0000007F80
000000FF80
000001FF80
000003FF80
000007FF80
00000FFF80
00001FFF80
00003FFF80
00007FFF80
0000FFFF80
0001FFFF80
0003FFFF80
0007FFFF80
000FFFFF80
001FFFFF80
003FFFFF80
007FFFFF80
00FFFFFF80
01FFFFFF80
03FFFFFF80
07FFFFFF80
0FFFFFFF80
1FFFFFFF80
3FFFFFFF80
0000000000
ENDCHAR

STARTCHAR cns1_2349
ENCODING 9033
SWIDTH 1000 0
DWIDTH 34 0
BBX 34 34 0 -2
BITMAP
0000000000
4000000000
6000000000
7000000000
7800000000
7C00000000
7E00000000
7F00000000
7F80000000
7FC0000000
7FE0000000
7FF0000000
7FF8000000
7FFC000000
7FFE000000
7FFF000000
7FFF800000
7FFFC00000
7FFFE00000
7FFFF00000
7FFFF80000
7FFFFC0000
7FFFFE0000
7FFFFF0000
7FFFFF8000
7FFFFFC000
7FFFFFE000
7FFFFFF000
7FFFFFF800
7FFFFFFC00
7FFFFFFE00
7FFFFFFF00
7FFFFFFF80
0000000000
ENDCHAR

STARTCHAR cns1_234A
ENCODING 9034
SWIDTH 1000 0
DWIDTH 34 0
BBX 34 34 0 -2
BITMAP
0000000000
7FFFFFFF80
1FFFFFFF80
0FFFFFFF80
07FFFFFF80
03FFFFFF80
01FFFFFF80
00FFFFFF80
007FFFFF80
003FFFFF80
001FFFFF80
000FFFFF80
0007FFFF80
0003FFFF80
0001FFFF80
0000FFFF80
00007FFF80
00003FFF80
00001FFF80
00000FFF80
000007FF80
000003FF80
000001FF80
000000FF80
0000007F80
0000003F80
0000001F80
0000000F80
0000000780
0000000380
0000000180
0000000080
0000000000
0000000000
ENDCHAR

STARTCHAR cns1_234B
ENCODING 9035
SWIDTH 1000 0
DWIDTH 34 0
BBX 34 34 0 -2
BITMAP
0000000000
7FFFFFFF80
7FFFFFFF00
7FFFFFFE00
7FFFFFFC00
7FFFFFF800
7FFFFFF000
7FFFFFE000
7FFFFFC000
7FFFFF8000
7FFFFF0000
7FFFFE0000
7FFFFC0000
7FFFF80000
7FFFF00000
7FFFE00000
7FFFC00000
7FFF800000
7FFF000000
7FFE000000
7FFC000000
7FF8000000
7FF0000000
7FE0000000
7FC0000000
7F80000000
7F00000000
7E00000000
7C00000000
7800000000
7000000000
6000000000
4000000000
0000000000
ENDCHAR

STARTCHAR cns1_234C
ENCODING 9036
SWIDTH 1000 0
DWIDTH 34 0
BBX 34 34 0 -2
BITMAP
00000000C0
00000001C0
0000000380
0000000700
0000000E00
0000001C00
0000003800
0000007000
000000E000
000001C000
0000038000
0000070000
00000E0000
00001C0000
0000380000
0000700000
0000E00000
0001C00000
0003800000
0007000000
000E000000
001C000000
0038000000
0070000000
00E0000000
01C0000000
0380000000
0700000000
0E00000000
1C00000000
3800000000
7000000000
E000000000
C000000000
ENDCHAR

STARTCHAR cns1_234D
ENCODING 9037
SWIDTH 1000 0
DWIDTH 34 0
BBX 34 34 0 -2
BITMAP
C000000000
E000000000
7000000000
3800000000
1C00000000
0E00000000
0700000000
0380000000
01C0000000
00E0000000
0070000000
0038000000
001C000000
000E000000
0007000000
0003800000
0001C00000
0000E00000
0000700000
0000380000
00001C0000
00000E0000
0000070000
0000038000
000001C000
000000E000
0000007000
0000003800
0000001C00
0000000E00
0000000700
0000000380
00000001C0
00000000C0
ENDCHAR

STARTCHAR cns1_234E
ENCODING 9038
SWIDTH 1000 0
DWIDTH 34 0
BBX 34 34 0 -2
BITMAP
0000000000
0000000000
7000000380
1800000700
0C00000E00
0600001C00
0300003800
0180007000
00C000E000
006001C000
0030038000
0018070000
000C0E0000
000E1C0000
0007180000
0003B00000
0001F00000
0001F00000
0003B80000
00071C0000
000E0E0000
001C070000
0038038000
0070018000
00E000C000
01C0006000
0380003000
0300001800
0600001C00
0C00000E00
1C00000700
3800000380
1000000100
0000000000
ENDCHAR

STARTCHAR cns1_234F
ENCODING 9039
SWIDTH 1000 0
DWIDTH 34 0
BBX 34 34 0 -2
BITMAP
0000000000
0000000000
3000000300
3000000300
0000000000
0000000000
0000000000
0000000000
0000000000
0000000000
0000000000
0000000000
0000000000
0000000000
0000000000
0000000000
0000000000
0000000000
0000000000
0000000000
0000000000
0000000000
0000000000
0000000000
0000000000
0000000000
0000000000
0000000000
0000000000
0000000000
3000000300
3000000300
0000000000
0000000000
ENDCHAR

STARTCHAR cns1_2421
ENCODING 9249
SWIDTH 960 0
DWIDTH 34 0
BBX 34 34 0 -2
BITMAP
0000000000
0000000000
0000000000
0000000000
0000000000
0000000000
0001F00000
0003380000
00071C0000
00061C0000
000E0E0000
000E0E0000
000E0E0000
001E0F0000
001E0F0000
001C0F0000
001C0F0000
001C0F0000
001C0F0000
001C0F0000
001E0F0000
001E0F0000
000E0E0000
000E0E0000
000E0E0000
00061C0000
00071C0000
0003380000
0001F00000
0000000000
0000000000
0000000000
0000000000
0000000000
ENDCHAR

STARTCHAR cns1_2422
ENCODING 9250
SWIDTH 960 0
DWIDTH 34 0
BBX 34 34 0 -2
BITMAP
0000000000
0000000000
0000000000
0000000000
0000000000
0000000000
0000E00000
000FE00000
0001E00000
0000E00000
0000E00000
0000E00000
0000E00000
0000E00000
0000E00000
0000E00000
0000E00000
0000E00000
0000E00000
0000E00000
0000E00000
0000E00000
0000E00000
0000E00000
0000E00000
0000E00000
0000E00000
0001F00000
0007FC0000
0000000000
0000000000
0000000000
0000000000
0000000000
ENDCHAR

STARTCHAR cns1_2423
ENCODING 9251
SWIDTH 960 0
DWIDTH 34 0
BBX 34 34 0 -2
BITMAP
0000000000
0000000000
0000000000
0000000000
0000000000
0000000000
0003F80000
00073C0000
000E1E0000
000E0E0000
001E0F0000
001E0F0000
001E0F0000
00000E0000
00001E0000
00001C0000
0000380000
0000380000
0000700000
0000E00000
0001C00000
0001C00000
0003800000
0007020000
0006060000
000C060000
000C0E0000
001FFE0000
001FFC0000
0000000000
0000000000
0000000000
0000000000
0000000000
ENDCHAR

STARTCHAR cns1_2424
ENCODING 9252
SWIDTH 960 0
DWIDTH 34 0
BBX 34 34 0 -2
BITMAP
0000000000
0000000000
0000000000
0000000000
0000000000
0000000000
0003F80000
000E1C0000
000E1E0000
001E0E0000
001C0E0000
00000E0000
00000E0000
00000E0000
00001C0000
0000380000
0001E00000
0000F80000
00001C0000
00000E0000
00000F0000
00000F0000
0000070000
001C0F0000
001E0F0000
001E0E0000
001E0E0000
000E1C0000
0003F00000
0000000000
0000000000
0000000000
0000000000
0000000000
ENDCHAR

STARTCHAR cns1_2425
ENCODING 9253
SWIDTH 960 0
DWIDTH 34 0
BBX 34 34 0 -2
BITMAP
0000000000
0000000000
0000000000
0000000000
0000000000
0000000000
0000180000
0000380000
0000380000
0000780000
0000780000
0000F80000
0000F80000
0001F80000
0001B80000
0003B80000
0003380000
0007380000
0006380000
000E380000
000C380000
001C380000
001FFE0000
001FFE0000
0000380000
0000380000
0000380000
0000380000
0001FC0000
0000000000
0000000000
0000000000
0000000000
0000000000
ENDCHAR

STARTCHAR cns1_2426
ENCODING 9254
SWIDTH 960 0
DWIDTH 34 0
BBX 34 34 0 -2
BITMAP
0000000000
0000000000
0000000000
0000000000
0000000000
0000000000
000FFE0000
000FFE0000
000C000000
000C000000
000C000000
000C000000
000C000000
000C000000
000CF00000
000F780000
000E1E0000
000C0E0000
00000F0000
00000F0000
00000F0000
00000F0000
00000F0000
000C0F0000
001E0E0000
001E0E0000
000C1E0000
000E3C0000
0003F00000
0000000000
0000000000
0000000000
0000000000
0000000000
ENDCHAR

STARTCHAR cns1_2427
ENCODING 9255
SWIDTH 960 0
DWIDTH 34 0
BBX 34 34 0 -2
BITMAP
0000000000
0000000000
0000000000
0000000000
0000000000
0000000000
0000FC0000
00019C0000
00031E0000
00071E0000
0007000000
000E000000
000E000000
000E000000
000C000000
001CF80000
001F1C0000
001E0E0000
001E0E0000
001C0F0000
001C0F0000
001C0F0000
001C0E0000
000E0E0000
000E0E0000
000E0E0000
00071C0000
0003B80000
0001F00000
0000000000
0000000000
0000000000
0000000000
0000000000
ENDCHAR

STARTCHAR cns1_2428
ENCODING 9256
SWIDTH 960 0
DWIDTH 34 0
BBX 34 34 0 -2
BITMAP
0000000000
0000000000
0000000000
0000000000
0000000000
0000000000
000FFF0000
000FFF0000
001E060000
001C060000
00180C0000
00181C0000
0000180000
0000380000
0000380000
0000700000
0000700000
0000600000
0000E00000
0000E00000
0001E00000
0001C00000
0001C00000
0003C00000
0003C00000
0003C00000
0003C00000
0003C00000
0003800000
0000000000
0000000000
0000000000
0000000000
0000000000
ENDCHAR

STARTCHAR cns1_2429
ENCODING 9257
SWIDTH 960 0
DWIDTH 34 0
BBX 34 34 0 -2
BITMAP
0000000000
0000000000
0000000000
0000000000
0000000000
0000000000
0001F00000
0007380000
000C1C0000
001C0E0000
001C0E0000
001C0E0000
001C0E0000
001E0E0000
000F1C0000
0007B80000
0003E00000
0003F80000
00067C0000
000E1E0000
001C0F0000
001C070000
001C070000
001C070000
001C070000
001C070000
001C0E0000
000E1C0000
0003F00000
0000000000
0000000000
0000000000
0000000000
0000000000
ENDCHAR

STARTCHAR cns1_242A
ENCODING 9258
SWIDTH 960 0
DWIDTH 34 0
BBX 34 34 0 -2
BITMAP
0000000000
0000000000
0000000000
0000000000
0000000000
0000000000
0001F00000
0007380000
000E1C0000
000E0C0000
001C0E0000
001C0E0000
001C0E0000
001C0E0000
001C0E0000
001C0E0000
001E0E0000
000E1E0000
0007FE0000
0003EE0000
00000E0000
00000E0000
00000E0000
00001C0000
00001C0000
000E180000
000F380000
000F700000
0007E00000
0000000000
0000000000
0000000000
0000000000
0000000000
ENDCHAR

STARTCHAR cns1_242B
ENCODING 9259
SWIDTH 960 0
DWIDTH 34 0
BBX 34 34 0 -2
BITMAP
0000000000
0000000000
0000000000
0000000000
0000000000
0007FC0000
0003F00000
0001E00000
0001E00000
0001E00000
0001E00000
0001E00000
0001E00000
0001E00000
0001E00000
0001E00000
0001E00000
0001E00000
0001E00000
0001E00000
0001E00000
0001E00000
0001E00000
0001E00000
0001E00000
0001E00000
0003F00000
000FF80000
0000000000
0000000000
0000000000
0000000000
0000000000
0000000000
ENDCHAR

STARTCHAR cns1_242C
ENCODING 9260
SWIDTH 960 0
DWIDTH 34 0
BBX 34 34 0 -2
BITMAP
0000000000
0000000000
0000000000
0000000000
0000000000
01FF800000
007E3FF000
00380FC000
0038078000
0038078000
0038078000
0038078000
0038078000
0038078000
0038078000
0038078000
0038078000
0038078000
0038078000
0038078000
0038078000
0038078000
0038078000
0038078000
0038078000
0038078000
0038078000
007C0FC000
03FFFFE000
0000000000
0000000000
0000000000
0000000000
0000000000
ENDCHAR

STARTCHAR cns1_242D
ENCODING 9261
SWIDTH 960 0
DWIDTH 34 0
BBX 34 34 0 -2
BITMAP
0000000000
0000000000
0000000000
0000000000
0000000000
0FF7FDFE00
07E1F0FC00
03C0E07800
03C0E07800
03C0E07800
03C0E07800
03C0E07800
03C0E07800
03C0E07800
03C0E07800
03C0E07800
03C0E07800
03C0E07800
03C0E07800
03C0E07800
03C0E07800
03C0E07800
03C0E07800
03C0E07800
03C0E07800
03C0E07800
03C0E07800
1FFFFFFE00
0000000000
0000000000
0000000000
0000000000
0000000000
0000000000
ENDCHAR

STARTCHAR cns1_242E
ENCODING 9262
SWIDTH 960 0
DWIDTH 34 0
BBX 34 34 0 -2
BITMAP
0000000000
0000000000
0000000000
0000000000
0000000000
1FF7F8FF00
0FC3E03C00
0781E01800
0780E03000
0780602000
0780706000
0780706000
0780706000
0780304000
078038C000
078038C000
078038C000
0780188000
07801D8000
07801D8000
07801D8000
07800D0000
07800F0000
07800F0000
07800F0000
0780060000
0780060000
1FE0060000
0000000000
0000000000
0000000000
0000000000
0000000000
0000000000
ENDCHAR

STARTCHAR cns1_242F
ENCODING 9263
SWIDTH 960 0
DWIDTH 34 0
BBX 34 34 0 -2
BITMAP
0000000000
0000000000
0000000000
0000000000
0000000000
0FFC0FF000
03F003C000
01E0018000
00F0030000
0070060000
0078060000
00780C0000
00380C0000
003C0C0000
003C180000
001C180000
001E180000
001E300000
001E300000
000F600000
000F600000
000F600000
0007C00000
0007C00000
0007C00000
0003800000
0003800000
0003000000
0001000000
0000000000
0000000000
0000000000
0000000000
0000000000
ENDCHAR

STARTCHAR cns1_2430
ENCODING 9264
SWIDTH 960 0
DWIDTH 34 0
BBX 34 34 0 -2
BITMAP
0000000000
0000000000
0000000000
0000000000
0000000000
1FF1FFFF00
07C0787C00
0380303C00
01C0603C00
01C0403C00
00C0C03C00
00E0C03C00
00E0C03C00
00E0803C00
0061803C00
0071803C00
0071803C00
0071003C00
0033003C00
003B003C00
003B003C00
003A003C00
001E003C00
001E003C00
001E003C00
001C003C00
000C003C00
000C01FF00
0000000000
0000000000
0000000000
0000000000
0000000000
0000000000
ENDCHAR

STARTCHAR cns1_2431
ENCODING 9265
SWIDTH 960 0
DWIDTH 34 0
BBX 34 34 0 -2
BITMAP
0000000000
0000000000
0000000000
0000000000
0000000000
1FCFFF7E00
0F879E3C00
03831E3C00
03861E3C00
03861E3C00
03841E3C00
01841E3C00
018C1E3C00
01CC1E3C00
01CC1E3C00
01CC1E3C00
01C81E3C00
00D81E3C00
00F81E3C00
00F81E3C00
00F81E3C00
00F01E3C00
00701E3C00
00701E3C00
00701E3C00
00701E3C00
00601E3C00
00207FFE00
0000000000
0000000000
0000000000
0000000000
0000000000
0000000000
ENDCHAR

STARTCHAR cns1_2432
ENCODING 9266
SWIDTH 960 0
DWIDTH 34 0
BBX 34 34 0 -2
BITMAP
0000000000
0000000000
0000000000
0000000000
0000000000
3F1FFFFF00
1E0E77FF00
0E0C73DE00
0E0873DE00
0E1873DE00
0F1873DE00
071873DE00
071073DE00
071073DE00
073073DE00
073073DE00
03B073DE00
03A073DE00
03A073DE00
03A073DE00
03E073DE00
01E073DE00
01C073DE00
01C073DE00
01C073DE00
01C073DE00
01C073DE00
00C1FFFF00
0000000000
0000000000
0000000000
0000000000
0000000000
0000000000
ENDCHAR

STARTCHAR cns1_2433
ENCODING 9267
SWIDTH 960 0
DWIDTH 34 0
BBX 34 34 0 -2
BITMAP
0000000000
0000000000
0000000000
0000000000
0000000000
1FF7F0FE00
0FC3E07800
0780E07000
0780F06000
0780F0C000
078071C000
0780798000
07803B0000
07803F0000
07801E0000
07801E0000
07801F0000
07801F0000
07803F8000
0780338000
078073C000
078061C000
0780E1E000
0780C0F000
0781C0F000
0781807800
0F83807C00
3FEFE1FF00
0000000000
0000000000
0000000000
0000000000
0000000000
0000000000
ENDCHAR

STARTCHAR cns1_2434
ENCODING 9268
SWIDTH 960 0
DWIDTH 34 0
BBX 34 34 0 -2
BITMAP
0000000000
0000000000
0000000000
0000000000
0000000000
0000000000
03FF0FF800
00FC03C000
003C018000
001E030000
001E060000
000F060000
000F8C0000
0007980000
0003D80000
0003F00000
0001F00000
0001F00000
0001F80000
00037C0000
00033C0000
00063E0000
000C1E0000
000C0F0000
00180F0000
0030078000
007003C000
00F807E000
07FC1FF800
0000000000
0000000000
0000000000
0000000000
0000000000
ENDCHAR

STARTCHAR cns1_2435
ENCODING 9269
SWIDTH 960 0
DWIDTH 34 0
BBX 34 34 0 -2
BITMAP
0000000000
0000000000
0000000000
0000000000
0001C00000
0001800000
0001800000
0001800000
0001800000
0001800000
0001800000
0001800000
0001800000
0001800000
0001800000
0001800000
0001800000
0001800000
0001800000
0001800000
0001800000
0001800000
0001800000
0001800000
0001800000
0001800000
0001800000
0001800000
0001800000
0001800000
0000000000
0000000000
0000000000
0000000000
ENDCHAR

STARTCHAR cns1_2436
ENCODING 9270
SWIDTH 960 0
DWIDTH 34 0
BBX 34 34 0 -2
BITMAP
0000000000
0000000000
0000000000
0000020000
0000038000
0000030000
0000030000
0000030000
0000030000
0070030000
0060030000
0060030000
0060030000
0060030000
0060030000
0060030000
0060030000
0060030000
0060030000
0060030000
0060030000
0060030000
0060030000
0060030000
0060030000
0000030000
0000030000
0000030000
0000030000
0000030000
0000000000
0000000000
0000000000
0000000000
ENDCHAR

STARTCHAR cns1_2437
ENCODING 9271
SWIDTH 960 0
DWIDTH 34 0
BBX 34 34 0 -2
BITMAP
0000000000
0000000000
0000000000
0000000000
000000E000
038000C000
038000C000
030000C000
030180C000
0301C0C000
030180C000
030180C000
030180C000
030180C000
030180C000
030180C000
030180C000
030180C000
030180C000
030180C000
030180C000
030180C000
030180C000
030180C000
030180C000
030100C000
030000C000
030000C000
000000C000
000000C000
0000000000
0000000000
0000000000
0000000000
ENDCHAR

STARTCHAR cns1_2438
ENCODING 9272
SWIDTH 960 0
DWIDTH 34 0
BBX 34 34 0 -2
BITMAP
0000000000
0000000000
0000000000
0000000000
0000000000
000000E000
000001E000
010001C000
03C0038000
00E0038000
0070070000
0038070000
001E0E0000
00070E0000
00039C0000
0001FC0000
0000F80000
0000380000
00007C0000
0000EE0000
0001C70000
0003838000
000703C000
000E01E000
001C00F000
0038007800
0070003800
00C0003C00
0380001C00
0000000000
0000000000
0000000000
0000000000
0000000000
ENDCHAR

STARTCHAR cns1_2439
ENCODING 9273
SWIDTH 960 0
DWIDTH 34 0
BBX 34 34 0 -2
BITMAP
0000000000
0000000000
0000000000
0000000000
0000018000
000003C000
000603C000
001E03C000
003C07C000
00380F8000
00383F0000
001C7C0000
001FF80000
0007E00000
000FF80000
001E3C0000
003C1E0000
00780F0000
00F0070000
00E0078000
01E0078000
01C0038000
01C0038000
01C0078000
01C0078000
01E0070000
00F00F0000
00F81E0000
007C7C0000
003FF80000
0007E00000
0000000000
0000000000
0000000000
ENDCHAR

STARTCHAR cns1_243A
ENCODING 9274
SWIDTH 960 0
DWIDTH 34 0
BBX 34 34 0 -2
BITMAP
0000000000
0000000000
0000000000
0000000000
0000000000
0000000000
0000000000
0000000000
0000000000
0000000000
0000000000
0000000000
0000000000
0000000000
0000700000
0000600000
0000600000
0000600000
0000600C00
0000601E00
1FFFFFFE00
0000000000
0000000000
0000000000
0000000000
0000000000
0000000000
0000000000
0000000000
0000000000
0000000000
0000000000
0000000000
0000000000
ENDCHAR

STARTCHAR cns1_243B
ENCODING 9275
SWIDTH 960 0
DWIDTH 34 0
BBX 34 34 0 -2
BITMAP
0000000000
0000000000
0000000000
0000000000
0000000000
0000000000
0000000000
0000000000
0000000000
0000E00000
0000E00000
0000C00000
0000C00000
0000C00000
0000C01C00
1FFFFFFE00
0000000000
0000000000
0000000000
0000000000
0000000000
0000000000
0000000000
000000E000
01FFFFE000
0000000000
0000000000
0000000000
0000000000
0000000000
0000000000
0000000000
0000000000
0000000000
ENDCHAR

STARTCHAR cns1_243C
ENCODING 9276
SWIDTH 960 0
DWIDTH 34 0
BBX 34 34 0 -2
BITMAP
0000000000
0000000000
0000000000
0000000000
0000000000
0000000000
0000E00000
0000E00000
0000C00000
0000C00000
0000C01C00
1FFFFFFE00
0000000000
0000000000
0000000000
0000000000
0000000000
0000000000
000000E000
01FFFFE000
0000000000
0000000000
0000000000
0000000000
0000000000
0000000000
0000000000
0000003C00
0FFFFFFC00
0000000000
0000000000
0000000000
0000000000
0000000000
ENDCHAR

STARTCHAR cns1_243D
ENCODING 9277
SWIDTH 960 0
DWIDTH 34 0
BBX 34 34 0 -2
BITMAP
0000000000
0000000000
0000000000
0006000000
000E000000
001C000000
0038000000
0060000000
00C0007000
01FFFFF800
0000007800
00C0006000
006000E000
006000E000
006000C000
003001C000
0038018000
0018038000
000C070000
000E060000
00060E0000
00031C0000
0001B80000
0001F00000
0000E00000
0003B80000
00071E0000
001C07C000
007001F800
03C0007E00
0E00000000
0000000000
0000000000
0000000000
ENDCHAR

STARTCHAR cns1_243E
ENCODING 9278
SWIDTH 960 0
DWIDTH 34 0
BBX 34 34 0 -2
BITMAP
0000000000
0000000000
0000000000
0000C00000
0000E00000
0000C00000
0000C00000
0000C00000
0000C00000
0000C00000
0000C00000
0000C00000
0000C00000
0000C00000
0000C00000
0000C01E00
1FFFFFFE00
0000C00000
0000C00000
0000C00000
0000C00000
0000C00000
0000C00000
0000C00000
0000C00000
0000C00000
0000C00000
0000C00000
0000C00000
0000C00000
0000C00000
0000000000
0000000000
0000000000
ENDCHAR

STARTCHAR cns1_243F
ENCODING 9279
SWIDTH 960 0
DWIDTH 34 0
BBX 34 34 0 -2
BITMAP
0000000000
0000000000
0000000000
0000040000
0038070000
0038060000
0030060000
0030060000
0030060000
0030060000
0030060000
0030060000
0030060000
0030060000
0030060E00
1FFFFFFE00
0030060000
0030060000
0030060000
0030060000
0030060000
0030060000
0030060000
0030060000
0030060000
0030060000
0030060000
0030060000
0030060000
0030060000
0020000000
0000000000
0000000000
0000000000
ENDCHAR

STARTCHAR cns1_2440
ENCODING 9280
SWIDTH 960 0
DWIDTH 34 0
BBX 34 34 0 -2
BITMAP
0000000000
0000000000
0000000000
00C0000000
00E0C0E000
00C0E0C000
00C0C0C000
00C0C0C000
00C0C0C000
00C0C0C000
00C0C0C000
00C0C0C000
00C0C0C000
00C0C0C000
00C0C0CC00
1FFFFFFE00
00C0C0C000
00C0C0C000
00C0C0C000
00C0C0C000
00C0C0C000
00C0C0C000
00C0C0C000
00C0C0C000
00C0C0C000
00C0C0C000
00C0C0C000
00C0C0C000
00C0C0C000
00C000C000
0000000000
0000000000
0000000000
0000000000
ENDCHAR

STARTCHAR cns1_2441
ENCODING 9281
SWIDTH 960 0
DWIDTH 34 0
BBX 34 34 0 -2
BITMAP
0000000000
0000000000
0000000000
0000000000
0000000000
0000000000
0001F00000
0001F80000
0003F80000
0003780000
00037C0000
00073C0000
00063C0000
00063C0000
000E1E0000
000C1E0000
000C0E0000
001C0F0000
00180F0000
001FFF0000
001FFF8000
0038078000
0030038000
003003C000
007003C000
006001C000
00F001E000
01F003F000
07F80FFC00
0008000000
0000000000
0000000000
0000000000
0000000000
ENDCHAR

STARTCHAR cns1_2442
ENCODING 9282
SWIDTH 960 0
DWIDTH 34 0
BBX 34 34 0 -2
BITMAP
0000000000
0000000000
0000000000
0000000000
0000000000
0000000000
01FFFE0000
007E078000
003C03C000
003C01C000
003C01E000
003C01E000
003C01C000
003C03C000
003C078000
003C0E0000
003FFC0000
003C070000
003C03C000
003C01E000
003C00E000
003C00E000
003C00F000
003C00F000
003C00F000
003C01E000
007C03C000
007E078000
01FFFE0000
0000000000
0000000000
0000000000
0000000000
0000000000
ENDCHAR

STARTCHAR cns1_2443
ENCODING 9283
SWIDTH 960 0
DWIDTH 34 0
BBX 34 34 0 -2
BITMAP
0000000000
0000000000
0000000000
0000000000
0000000000
0000000000
0003FF8000
000E078000
001C03C000
003801C000
007000E000
0070000000
00F0000000
00E0000000
00E0000000
01E0000000
01E0000000
01E0000000
01E0000000
01E0000000
01E0000000
00F0000000
00F0002000
00F8006000
007800C000
003C018000
001F070000
000FFE0000
0003F80000
0000000000
0000000000
0000000000
0000000000
0000000000
ENDCHAR

STARTCHAR cns1_2444
ENCODING 9284
SWIDTH 960 0
DWIDTH 34 0
BBX 34 34 0 -2
BITMAP
0000000000
0000000000
0000000000
0000000000
0000000000
0000000000
01FFF80000
00FC3E0000
0038078000
003803C000
003801E000
003801E000
003800E000
003800F000
003800F000
003800F800
003800F800
003800F800
003800F800
003800F000
003800F000
003800F000
003800F000
003801E000
003801E000
003803C000
0038078000
007C1F0000
01FFFC0000
0100000000
0000000000
0000000000
0000000000
0000000000
ENDCHAR

STARTCHAR cns1_2445
ENCODING 9285
SWIDTH 960 0
DWIDTH 34 0
BBX 34 34 0 -2
BITMAP
0000000000
0000000000
0000000000
0000000000
0000000000
0000000000
01FFFF8000
003F1FC000
001E01C000
001C00E000
001C006000
001C000000
001C000000
001C0C0000
001C0C0000
001C1C0000
001FFC0000
001FFC0000
001C1C0000
001C1C0000
001C0C0000
001C000000
001C000000
001C000000
001C007000
001C00E000
001C01E000
003E07C000
00FFFFC000
0100000000
0000000000
0000000000
0000000000
0000000000
ENDCHAR

STARTCHAR cns1_2446
ENCODING 9286
SWIDTH 960 0
DWIDTH 34 0
BBX 34 34 0 -2
BITMAP
0000000000
0000000000
0000000000
0000000000
0000000000
0000000000
00FFFF8000
003E07C000
001C01E000
001C00E000
001C006000
001C000000
001C000000
001C0C0000
001C0C0000
001C1C0000
001FFC0000
001C1C0000
001C1C0000
001C0C0000
001C0C0000
001C000000
001C000000
001C000000
001C000000
001C000000
001C000000
003E000000
00FF800000
0000000000
0000000000
0000000000
0000000000
0000000000
ENDCHAR

STARTCHAR cns1_2447
ENCODING 9287
SWIDTH 960 0
DWIDTH 34 0
BBX 34 34 0 -2
BITMAP
0000000000
0000000000
0000000000
0000000000
0000000000
0000000000
0007FF0000
001C078000
0038038000
007801C000
00F000C000
00F0000000
01E0000000
01E0000000
01E0000000
03E0000000
03E0000000
03E0000000
03E0000000
03E01FF000
01E007E000
01E003C000
01E003C000
00E003C000
00F003C000
007807C000
001C07C000
000F1C0000
0001E00000
0000000000
0000000000
0000000000
0000000000
0000000000
ENDCHAR

STARTCHAR cns1_2448
ENCODING 9288
SWIDTH 960 0
DWIDTH 34 0
BBX 34 34 0 -2
BITMAP
0000000000
0000000000
0000000000
0000000000
0000000000
0000000000
03FE0FF800
00F803E000
007001C000
007001C000
007001C000
007001C000
007001C000
007001C000
007001C000
007001C000
007001C000
007FFFC000
007001C000
007001C000
007001C000
007001C000
007001C000
007001C000
007001C000
007001C000
007001C000
00F803E000
03FE0FF800
0000000000
0000000000
0000000000
0000000000
0000000000
ENDCHAR

STARTCHAR cns1_2449
ENCODING 9289
SWIDTH 960 0
DWIDTH 34 0
BBX 34 34 0 -2
BITMAP
0000000000
0000000000
0000000000
0000000000
0000000000
0000000000
0007FC0000
0001F00000
0000E00000
0000E00000
0000E00000
0000E00000
0000E00000
0000E00000
0000E00000
0000E00000
0000E00000
0000E00000
0000E00000
0000E00000
0000E00000
0000E00000
0000E00000
0000E00000
0000E00000
0000E00000
0000E00000
0001F00000
0007FC0000
0000000000
0000000000
0000000000
0000000000
0000000000
ENDCHAR

STARTCHAR cns1_244A
ENCODING 9290
SWIDTH 960 0
DWIDTH 34 0
BBX 34 34 0 -2
BITMAP
0000000000
0000000000
0000000000
0000000000
0000000000
0000000000
0003FF0000
0000FC0000
0000780000
0000780000
0000780000
0000780000
0000780000
0000780000
0000780000
0000780000
0000780000
0000780000
0000780000
0000780000
0000780000
0000780000
0000780000
0000780000
0000780000
0000700000
001CF00000
001FE00000
000FC00000
0000000000
0000000000
0000000000
0000000000
0000000000
ENDCHAR

STARTCHAR cns1_244B
ENCODING 9291
SWIDTH 960 0
DWIDTH 34 0
BBX 34 34 0 -2
BITMAP
0000000000
0000000000
0000000000
0000000000
0000000000
0000000000
03FE1FF000
00F8078000
0070070000
00700E0000
00701C0000
0070380000
0070700000
0070E00000
0071C00000
0073C00000
0077E00000
007FE00000
007CF00000
0078780000
0070780000
00703C0000
00701E0000
00700F0000
00700F0000
0070078000
007007C000
00F807E000
03FE1FFC00
0000000800
0000000000
0000000000
0000000000
0000000000
ENDCHAR

STARTCHAR cns1_244C
ENCODING 9292
SWIDTH 960 0
DWIDTH 34 0
BBX 34 34 0 -2
BITMAP
0000000000
0000000000
0000000000
0000000000
0000000000
0000000000
00FFC00000
003F000000
001E000000
001E000000
001E000000
001E000000
001E000000
001E000000
001E000000
001E000000
001E000000
001E000000
001E000000
001E000000
001E000000
001E000000
001E000000
001E000000
001E006000
001E00E000
001E01C000
003F03C000
00FFFFC000
0000000000
0000000000
0000000000
0000000000
0000000000
ENDCHAR

STARTCHAR cns1_244D
ENCODING 9293
SWIDTH 960 0
DWIDTH 34 0
BBX 34 34 0 -2
BITMAP
0000000000
0000000000
0000000000
0000000000
0000000000
0000000000
1FC000FF00
07E001FC00
03E001F800
03F001F800
03F003F800
0370037800
0378037800
0378067800
033C067800
033C0E7800
033C0C7800
031E0C7800
031E1C7800
031F187800
030F187800
030F307800
0307B07800
0307F07800
0303E07800
0303E07800
0301E07800
0701C0FC00
1FE1C3FF00
0000000000
0000000000
0000000000
0000000000
0000000000
ENDCHAR

STARTCHAR cns1_244E
ENCODING 9294
SWIDTH 960 0
DWIDTH 34 0
BBX 34 34 0 -2
BITMAP
0000000000
0000000000
0000000000
0000000000
0000000000
0000000000
03F003F800
00F800F000
007C006000
007E006000
007E006000
006F006000
0067806000
0063C06000
0063C06000
0061E06000
0060F06000
0060786000
0060786000
00603C6000
00601E6000
00600F6000
00600F6000
006007E000
006003E000
006001E000
006001E000
00F000E000
03FC006000
0000000000
0000000000
0000000000
0000000000
0000000000
ENDCHAR

STARTCHAR cns1_244F
ENCODING 9295
SWIDTH 960 0
DWIDTH 34 0
BBX 34 34 0 -2
BITMAP
0000000000
0000000000
0000000000
0000000000
0000000000
0000000000
0007FC0000
000E0F0000
003C078000
007801E000
00F001E000
00F000F000
00E000F000
01E000F000
01E000F800
01E0007800
01E0007800
01E0007800
01E0007800
01E0007800
01E000F800
01E000F000
00F000F000
00F000E000
007001E000
003803C000
001C078000
000F0E0000
0001FC0000
0000000000
0000000000
0000000000
0000000000
0000000000
ENDCHAR

STARTCHAR cns1_2450
ENCODING 9296
SWIDTH 960 0
DWIDTH 34 0
BBX 34 34 0 -2
BITMAP
0000000000
0000000000
0000000000
0000000000
0000000000
0000000000
00FFFC0000
003E0F8000
001E03C000
001E01E000
001E00E000
001E00E000
001E00E000
001E01E000
001E01E000
001E03C000
001E078000
001FFE0000
001E000000
001E000000
001E000000
001E000000
001E000000
001E000000
001E000000
001E000000
001E000000
003F000000
00FFC00000
0000000000
0000000000
0000000000
0000000000
0000000000
ENDCHAR

STARTCHAR cns1_2451
ENCODING 9297
SWIDTH 960 0
DWIDTH 34 0
BBX 34 34 0 -2
BITMAP
0000000000
0000000000
0000000000
0000000000
0000000000
0000000000
0007F80000
001E0C0000
0038070000
0078038000
007001C000
00F001E000
00E001E000
01E001E000
01E000F000
01E000F000
01E000F000
01E000F000
01E000F000
01E000F000
01E000F000
01E000E000
00E7E1E000
00FC31E000
007839C000
00781F8000
001C1F0000
000F1E0000
0003FE0000
00000F0000
00000FF000
000007E000
0000000000
0000000000
ENDCHAR

STARTCHAR cns1_2452
ENCODING 9298
SWIDTH 960 0
DWIDTH 34 0
BBX 34 34 0 -2
BITMAP
0000000000
0000000000
0000000000
0000000000
0000000000
0001C00000
01FF380000
007E0F0000
003C078000
003C03C000
003C03C000
003C03C000
003C03C000
003C038000
003C070000
003C1E0000
003FF80000
003C700000
003C780000
003C380000
003C3C0000
003C1C0000
003C1E0000
003C0E0000
003C0E0000
003C0F0000
003C070000
003C078000
01FF83F000
0000000000
0000000000
0000000000
0000000000
0000000000
ENDCHAR

STARTCHAR cns1_2453
ENCODING 9299
SWIDTH 960 0
DWIDTH 34 0
BBX 34 34 0 -2
BITMAP
0000000000
0000000000
0000000000
0000000000
0000000000
0007860000
001EFE0000
00381E0000
0070070000
0070070000
0070038000
00F0000000
00F0000000
0078000000
007E000000
003FC00000
001FFC0000
0003FE0000
00007F8000
000007C000
000003C000
000001C000
000001C000
00E001C000
007001C000
0078038000
003E070000
003F9E0000
0010F80000
0000000000
0000000000
0000000000
0000000000
0000000000
ENDCHAR

STARTCHAR cns1_2454
ENCODING 9300
SWIDTH 960 0
DWIDTH 34 0
BBX 34 34 0 -2
BITMAP
0000000000
0000000000
0000000000
0000000000
0000000000
0000000000
00FFFFE000
01F1E3F000
01E0E0F000
01C0E07000
0380E03800
0300E01800
0000E00000
0000E00000
0000E00000
0000E00000
0000E00000
0000E00000
0000E00000
0000E00000
0000E00000
0000E00000
0000E00000
0000E00000
0000E00000
0000E00000
0000E00000
0001F00000
0007FC0000
0008000000
0000000000
0000000000
0000000000
0000000000
ENDCHAR

STARTCHAR cns1_2455
ENCODING 9301
SWIDTH 960 0
DWIDTH 34 0
BBX 34 34 0 -2
BITMAP
0000000000
0000000000
0000000000
0000000000
0000000000
0000000000
03FF07F000
00FE01F000
007800C000
007800C000
007800C000
007800C000
007800C000
007800C000
007800C000
007800C000
007800C000
007800C000
007800C000
007800C000
007800C000
007800C000
007800C000
007800C000
007C01C000
003C018000
001E030000
000FCF0000
0003FC0000
0000000000
0000000000
0000000000
0000000000
0000000000
ENDCHAR

STARTCHAR cns1_2456
ENCODING 9302
SWIDTH 960 0
DWIDTH 34 0
BBX 34 34 0 -2
BITMAP
0000000000
0000000000
0000000000
0000000000
0000000000
0000000000
03FE07F800
00F801E000
00F801C000
007801C000
0038030000
003C030000
003C070000
001C060000
001E060000
000E060000
000F0C0000
000F0C0000
00070C0000
0007980000
0007980000
0003980000
0003F00000
0001F00000
0001F00000
0001E00000
0000E00000
0000E00000
0000600000
0000000000
0000000000
0000000000
0000000000
0000000000
ENDCHAR

STARTCHAR cns1_2457
ENCODING 9303
SWIDTH 960 0
DWIDTH 34 0
BBX 34 34 0 -2
BITMAP
0000000000
0000000000
0000000000
0000000000
0000000000
0000000000
1FE7F8FF00
0781E03C00
0781E01800
03C0E01800
03C0F03000
01C0F03000
01E0F06000
01E0F86000
00E1B86000
00F1B86000
00F1B8C000
00F19CC000
00731CC000
007B1CC000
007B1D8000
003B0F8000
003E0F8000
003E0F8000
001E0F0000
001E070000
001C070000
000C070000
0000000000
0000000000
0000000000
0000000000
0000000000
0000000000
ENDCHAR

STARTCHAR cns1_2458
ENCODING 9304
SWIDTH 960 0
DWIDTH 34 0
BBX 34 34 0 -2
BITMAP
0000000000
0000000000
0000000000
0000000000
0000000000
0000000000
01FE0FE000
007C078000
003C030000
001C060000
001E0E0000
000F0C0000
0007180000
0007B80000
0003F00000
0003E00000
0001E00000
0001F00000
0001F00000
0003780000
0003780000
00063C0000
000E1C0000
000C1E0000
00180F0000
00380F0000
0030078000
007807C000
03FC1FF800
0000000000
0000000000
0000000000
0000000000
0000000000
ENDCHAR

STARTCHAR cns1_2459
ENCODING 9305
SWIDTH 960 0
DWIDTH 34 0
BBX 34 34 0 -2
BITMAP
0000000000
0000000000
0000000000
0000000000
0000000000
0000000000
03FF07F800
00FC01E000
003C01C000
001C018000
001E038000
000E030000
000F070000
0007860000
00078C0000
0003CC0000
0003D80000
0001F80000
0000F00000
0000F00000
0000F00000
0000F00000
0000F00000
0000F00000
0000F00000
0000F00000
0000F00000
0001F00000
0007FE0000
0000000000
0000000000
0000000000
0000000000
0000000000
ENDCHAR

STARTCHAR cns1_245A
ENCODING 9306
SWIDTH 960 0
DWIDTH 34 0
BBX 34 34 0 -2
BITMAP
0000000000
0000000000
0000000000
0000000000
0000000000
0000000000
001FFFC000
003E078000
0038078000
00380F0000
00700F0000
00001E0000
00003C0000
00003C0000
0000780000
0000F00000
0000F00000
0001E00000
0001E00000
0003C00000
0007800000
0007800000
000F000000
001E000000
001E00C000
003C01C000
003C03C000
0078078000
00FFFF8000
0000000000
0000000000
0000000000
0000000000
0000000000
ENDCHAR

STARTCHAR cns1_245B
ENCODING 9307
SWIDTH 960 0
DWIDTH 34 0
BBX 34 34 0 -2
BITMAP
0000000000
0000000000
0000000000
0000000000
0000000000
0000000000
0000000000
0000000000
0000000000
0000000000
0000000000
0000000000
0000000000
0007E00000
001FFC0000
003E1E0000
003C1E0000
00381E0000
00001E0000
00003E0000
0003FE0000
000F1E0000
001C1E0000
003C1E0000
00381E0000
00381E0000
003C3F0000
001FEF8000
000F878000
0000000000
0000000000
0000000000
0000000000
0000000000
ENDCHAR

STARTCHAR cns1_245C
ENCODING 9308
SWIDTH 960 0
DWIDTH 34 0
BBX 34 34 0 -2
BITMAP
0000000000
0000000000
0000000000
0000000000
0000000000
0000000000
000E000000
007E000000
003E000000
001E000000
001E000000
001E000000
001E000000
001EFC0000
001FDE0000
001F0F0000
001E078000
001E078000
001E03C000
001E03C000
001E03C000
001E03C000
001E03C000
001E03C000
001E038000
001E078000
001E0F0000
001F9E0000
001DF80000
0000000000
0000000000
0000000000
0000000000
0000000000
ENDCHAR

STARTCHAR cns1_245D
ENCODING 9309
SWIDTH 960 0
DWIDTH 34 0
BBX 34 34 0 -2
BITMAP
0000000000
0000000000
0000000000
0000000000
0000000000
0000000000
0000000000
0000000000
0000000000
0000000000
0000000000
0000000000
0000000000
0001FC0000
00070F0000
000E0F0000
000E070000
001E000000
001C000000
001C000000
003C000000
003C000000
003C000000
001C000000
001E000000
001F030000
000F870000
0007FC0000
0000F80000
0000000000
0000000000
0000000000
0000000000
0000000000
ENDCHAR

STARTCHAR cns1_245E
ENCODING 9310
SWIDTH 960 0
DWIDTH 34 0
BBX 34 34 0 -2
BITMAP
0000000000
0000000000
0000000000
0000000000
0000000000
0000000000
00000F0000
00007F0000
00001F0000
00000F0000
00000F0000
00000F0000
00000F0000
0003EF0000
000FFF0000
001C0F0000
00380F0000
00780F0000
00780F0000
00700F0000
00700F0000
00700F0000
00700F0000
00780F0000
00780F0000
00780F0000
003C1F0000
001FFF0000
0007EFC000
0000000000
0000000000
0000000000
0000000000
0000000000
ENDCHAR

STARTCHAR cns1_245F
ENCODING 9311
SWIDTH 960 0
DWIDTH 34 0
BBX 34 34 0 -2
BITMAP
0000000000
0000000000
0000000000
0000000000
0000000000
0000000000
0000000000
0000000000
0000000000
0000000000
0000000000
0000000000
0000000000
0001F80000
00071E0000
000E0F0000
001E070000
001C070000
003C038000
003FFF8000
003C000000
003C000000
003C000000
003C000000
001E000000
001E018000
000F070000
0003FE0000
0000F80000
0000000000
0000000000
0000000000
0000000000
0000000000
ENDCHAR

STARTCHAR cns1_2460
ENCODING 9312
SWIDTH 960 0
DWIDTH 34 0
BBX 34 34 0 -2
BITMAP
0000000000
0000000000
0000000000
0000000000
0000000000
0000000000
00003E0000
00007E0000
0000E00000
0001C00000
0001C00000
0001C00000
0001C00000
000FFC0000
0001C00000
0001C00000
0001C00000
0001C00000
0001C00000
0001C00000
0001C00000
0001C00000
0001C00000
0001C00000
0001C00000
0001C00000
0001C00000
0003E00000
0007F80000
000C000000
0000000000
0000000000
0000000000
0000000000
ENDCHAR

STARTCHAR cns1_2461
ENCODING 9313
SWIDTH 960 0
DWIDTH 34 0
BBX 34 34 0 -2
BITMAP
0000000000
0000000000
0000000000
0000000000
0000000000
0000000000
0000000000
0000000000
0000000000
0000000000
0000000000
0000000000
0000000000
0007FBC000
001E3FC000
001C1E0000
003C0E0000
003C0E0000
003C0E0000
003C1E0000
001C1E0000
000E380000
0007E00000
001C000000
001C000000
003FE00000
000FFE0000
00381F0000
0070038000
00F0038000
0078070000
003FFC0000
0007E00000
0000000000
ENDCHAR

STARTCHAR cns1_2462
ENCODING 9314
SWIDTH 960 0
DWIDTH 34 0
BBX 34 34 0 -2
BITMAP
0000000000
0000000000
0000000000
0000000000
0000000000
0000000000
003C000000
007C000000
003C000000
001C000000
001C000000
001C000000
001C000000
001CFC0000
001FDE0000
001F0E0000
001C070000
001C070000
001C070000
001C070000
001C070000
001C070000
001C070000
001C070000
001C070000
001C070000
001C070000
003E070000
007F1FC000
0000000000
0000000000
0000000000
0000000000
0000000000
ENDCHAR

STARTCHAR cns1_2463
ENCODING 9315
SWIDTH 960 0
DWIDTH 34 0
BBX 34 34 0 -2
BITMAP
0000000000
0000000000
0000000000
0000000000
0000000000
0000000000
0000E00000
0001F00000
0001F00000
0000400000
0000000000
0000000000
0000000000
0000F00000
0003F00000
0001F00000
0000F00000
0000F00000
0000F00000
0000F00000
0000F00000
0000F00000
0000F00000
0000F00000
0000F00000
0000F00000
0000F00000
0000F00000
0003F80000
0000000000
0000000000
0000000000
0000000000
0000000000
ENDCHAR

STARTCHAR cns1_2464
ENCODING 9316
SWIDTH 960 0
DWIDTH 34 0
BBX 34 34 0 -2
BITMAP
0000000000
0000000000
0000000000
0000000000
0000000000
0000000000
0000780000
00007C0000
0000780000
0000000000
0000000000
0000000000
0000000000
0000780000
0000F80000
0000780000
0000380000
0000380000
0000380000
0000380000
0000380000
0000380000
0000380000
0000380000
0000380000
0000380000
0000380000
0000380000
0000380000
0003B80000
0007F00000
0003E00000
0000000000
0000000000
ENDCHAR

STARTCHAR cns1_2465
ENCODING 9317
SWIDTH 960 0
DWIDTH 34 0
BBX 34 34 0 -2
BITMAP
0000000000
0000000000
0000000000
0000000000
0000000000
0000000000
000E000000
007E000000
003E000000
001E000000
001E000000
001E000000
001E000000
001E1F8000
001E0F0000
001E0C0000
001E180000
001E300000
001E600000
001EE00000
001FE00000
001F700000
001E380000
001E380000
001E1C0000
001E1E0000
001E0E0000
001E0F0000
007F1FC000
0000000000
0000000000
0000000000
0000000000
0000000000
ENDCHAR

STARTCHAR cns1_2466
ENCODING 9318
SWIDTH 960 0
DWIDTH 34 0
BBX 34 34 0 -2
BITMAP
0000000000
0000000000
0000000000
0000000000
0000000000
0000000000
0000700000
0007F00000
0001F00000
0000F00000
0000F00000
0000F00000
0000F00000
0000F00000
0000F00000
0000F00000
0000F00000
0000F00000
0000F00000
0000F00000
0000F00000
0000F00000
0000F00000
0000F00000
0000F00000
0000F00000
0000F00000
0001F00000
0003FC0000
0000000000
0000000000
0000000000
0000000000
0000000000
ENDCHAR

STARTCHAR cns1_2467
ENCODING 9319
SWIDTH 960 0
DWIDTH 34 0
BBX 34 34 0 -2
BITMAP
0000000000
0000000000
0000000000
0000000000
0000000000
0000000000
0000000000
0000000000
0000000000
0000000000
0000000000
0000000000
0000000000
01CFC7F000
07FBDDF000
03E1F87000
01C0E03800
01C0E03800
01C0E03800
01C0E03800
01C0E03800
01C0E03800
01C0E03800
01C0E03800
01C0E03800
01C0E03800
01C0E03800
01C0E07800
07F3F8FC00
0000000000
0000000000
0000000000
0000000000
0000000000
ENDCHAR

STARTCHAR cns1_2468
ENCODING 9320
SWIDTH 960 0
DWIDTH 34 0
BBX 34 34 0 -2
BITMAP
0000000000
0000000000
0000000000
0000000000
0000000000
0000000000
0000000000
0000000000
0000000000
0000000000
0000000000
0000000000
0000000000
000E7C0000
003ECE0000
001F0F0000
000E070000
000E070000
000E070000
000E070000
000E070000
000E070000
000E070000
000E070000
000E070000
000E070000
000E070000
001F0F0000
003F1F8000
0000000000
0000000000
0000000000
0000000000
0000000000
ENDCHAR

STARTCHAR cns1_2469
ENCODING 9321
SWIDTH 960 0
DWIDTH 34 0
BBX 34 34 0 -2
BITMAP
0000000000
0000000000
0000000000
0000000000
0000000000
0000000000
0000000000
0000000000
0000000000
0000000000
0000000000
0000000000
0000000000
0003FC0000
00071E0000
000E070000
001C070000
003C038000
003C038000
003C03C000
003C03C000
003C03C000
003C03C000
003C038000
001C078000
001E070000
000F0F0000
00079E0000
0001F80000
0000000000
0000000000
0000000000
0000000000
0000000000
ENDCHAR

STARTCHAR cns1_246A
ENCODING 9322
SWIDTH 960 0
DWIDTH 34 0
BBX 34 34 0 -2
BITMAP
0000000000
0000000000
0000000000
0000000000
0000000000
0000000000
0000000000
0000000000
0000000000
0000000000
0000000000
0000000000
0000000000
001EFC0000
003F8F0000
000E078000
000E038000
000E038000
000E03C000
000E03C000
000E03C000
000E03C000
000E03C000
000E038000
000E038000
000E078000
000F0F0000
000FFE0000
000E000000
000E000000
000E000000
001F800000
0020000000
0000000000
ENDCHAR

STARTCHAR cns1_246B
ENCODING 9323
SWIDTH 960 0
DWIDTH 34 0
BBX 34 34 0 -2
BITMAP
0000000000
0000000000
0000000000
0000000000
0000000000
0000000000
0000000000
0000000000
0000000000
0000000000
0000000000
0000000000
0000000000
0007FF0000
000E0F0000
001C070000
003C070000
0038070000
0038070000
0038070000
0038070000
0038070000
0038070000
003C070000
003C070000
001E070000
000E0F0000
0007FF0000
0001E70000
0000070000
0000070000
00001F8000
0000000000
0000000000
ENDCHAR

STARTCHAR cns1_246C
ENCODING 9324
SWIDTH 960 0
DWIDTH 34 0
BBX 34 34 0 -2
BITMAP
0000000000
0000000000
0000000000
0000000000
0000000000
0000000000
0000000000
0000000000
0000000000
0000000000
0000000000
0000000000
0000000000
00019F0000
000FBF0000
0017E70000
0003C00000
0003800000
0003800000
0003800000
0003800000
0003800000
0003800000
0003800000
0003800000
0003800000
0003800000
0003800000
000FE00000
0000000000
0000000000
0000000000
0000000000
0000000000
ENDCHAR

STARTCHAR cns1_246D
ENCODING 9325
SWIDTH 960 0
DWIDTH 34 0
BBX 34 34 0 -2
BITMAP
0000000000
0000000000
0000000000
0000000000
0000000000
0000000000
0000000000
0000000000
0000000000
0000000000
0000000000
0000000000
0000000000
0007FC0000
000E1C0000
001C0E0000
001C060000
001E020000
000F000000
0007E00000
0001F80000
00007C0000
00000F0000
0000070000
001C070000
000C070000
000F060000
000F8E0000
0001F80000
0000000000
0000000000
0000000000
0000000000
0000000000
ENDCHAR

STARTCHAR cns1_246E
ENCODING 9326
SWIDTH 960 0
DWIDTH 34 0
BBX 34 34 0 -2
BITMAP
0000000000
0000000000
0000000000
0000000000
0000000000
0000000000
0000000000
0000C00000
0000C00000
0001C00000
0001C00000
0003C00000
0007C00000
000FFC0000
0003C00000
0003C00000
0003C00000
0003C00000
0003C00000
0003C00000
0003C00000
0003C00000
0003C00000
0003C00000
0003C00000
0003C00000
0003C60000
0001FE0000
0000F80000
0000000000
0000000000
0000000000
0000000000
0000000000
ENDCHAR

STARTCHAR cns1_246F
ENCODING 9327
SWIDTH 960 0
DWIDTH 34 0
BBX 34 34 0 -2
BITMAP
0000000000
0000000000
0000000000
0000000000
0000000000
0000000000
0000000000
0000000000
0000000000
0000000000
0000000000
0000000000
0000000000
003E0F0000
007E1F0000
003E0F0000
001E070000
001E070000
001E070000
001E070000
001E070000
001E070000
001E070000
001E070000
001E070000
001E070000
001F0F0000
000FFF0000
0007F7C000
0000000000
0000000000
0000000000
0000000000
0000000000
ENDCHAR

STARTCHAR cns1_2470
ENCODING 9328
SWIDTH 960 0
DWIDTH 34 0
BBX 34 34 0 -2
BITMAP
0000000000
0000000000
0000000000
0000000000
0000000000
0000000000
0000000000
0000000000
0000000000
0000000000
0000000000
0000000000
0000000000
003F0FC000
007E178000
000E070000
000E060000
000F060000
00070C0000
00070C0000
00078C0000
0003980000
0003980000
0001F00000
0001F00000
0001F00000
0000E00000
0000E00000
0000600000
0000000000
0000000000
0000000000
0000000000
0000000000
ENDCHAR

STARTCHAR cns1_2471
ENCODING 9329
SWIDTH 960 0
DWIDTH 34 0
BBX 34 34 0 -2
BITMAP
0000000000
0000000000
0000000000
0000000000
0000000000
0000000000
0000000000
0000000000
0000000000
0000000000
0000000000
0000000000
0000000000
07F3F9F800
01E0F07000
00E0E06000
00E0F04000
0070F04000
0070F8C000
0071B88000
0079B88000
00393D8000
003B1D8000
003F1F0000
001E1F0000
001E0F0000
001E0E0000
000E0E0000
0000020000
0000000000
0000000000
0000000000
0000000000
0000000000
ENDCHAR

STARTCHAR cns1_2472
ENCODING 9330
SWIDTH 960 0
DWIDTH 34 0
BBX 34 34 0 -2
BITMAP
0000000000
0000000000
0000000000
0000000000
0000000000
0000000000
0000000000
0000000000
0000000000
0000000000
0000000000
0000000000
0000000000
007F1F8000
001E0E0000
000E0C0000
0007180000
0007300000
0003B00000
0001E00000
0001E00000
0000F00000
0001F00000
0003380000
00061C0000
00061E0000
000C0E0000
001C0F0000
007F1FC000
0000000000
0000000000
0000000000
0000000000
0000000000
ENDCHAR

STARTCHAR cns1_2473
ENCODING 9331
SWIDTH 960 0
DWIDTH 34 0
BBX 34 34 0 -2
BITMAP
0000000000
0000000000
0000000000
0000000000
0000000000
0000000000
0000000000
0000000000
0000000000
0000000000
0000000000
0000000000
0000000000
007E0F8000
001E070000
000E070000
0007060000
00070E0000
00070C0000
00038C0000
00039C0000
0001980000
0001D80000
0001F00000
0000F00000
0000E00000
0000E00000
0000E00000
0000C00000
0018C00000
003F800000
003F000000
0000000000
0000000000
ENDCHAR

STARTCHAR cns1_2474
ENCODING 9332
SWIDTH 960 0
DWIDTH 34 0
BBX 34 34 0 -2
BITMAP
0000000000
0000000000
0000000000
0000000000
0000000000
0000000000
0000000000
0000000000
0000000000
0000000000
0000000000
0000000000
0000000000
0007FF0000
000F0E0000
000E1E0000
000C1C0000
0018380000
0000700000
0000700000
0000E00000
0001C00000
0001C00000
0003800000
0007030000
0007030000
000E0F0000
001C1E0000
001FFE0000
0000000000
0000000000
0000000000
0000000000
0000000000
ENDCHAR

STARTCHAR cns1_2475
ENCODING 9333
SWIDTH 960 0
DWIDTH 34 0
BBX 34 34 0 -2
BITMAP
0000000000
0000000000
0000000000
0000000000
0000000000
0000000000
0000000000
0001F00000
0001F00000
0001F00000
0003F80000
0003780000
0003780000
00077C0000
00063C0000
00063C0000
00063C0000
000C1E0000
000C1E0000
000FFE0000
00180F0000
00180F0000
0018070000
0030078000
0030078000
0030038000
007807C000
01FE1FF000
0000000000
0000000000
0000000000
0000000000
0000000000
0000000000
ENDCHAR

STARTCHAR cns1_2476
ENCODING 9334
SWIDTH 960 0
DWIDTH 34 0
BBX 34 34 0 -2
BITMAP
0000000000
0000000000
0000000000
0000000000
0000000000
0000000000
0000000000
007FFC0000
001E070000
001E038000
001E038000
001E01C000
001E01C000
001E03C000
001E038000
001E038000
001E070000
001FFE0000
001E078000
001E01C000
001E01E000
001E01E000
001E01E000
001E01E000
001E01E000
001E01E000
001E03C000
00FFFF0000
0000000000
0000000000
0000000000
0000000000
0000000000
0000000000
ENDCHAR

STARTCHAR cns1_2477
ENCODING 9335
SWIDTH 960 0
DWIDTH 34 0
BBX 34 34 0 -2
BITMAP
0000000000
0000000000
0000000000
0000000000
0000000000
0000000000
01FFFFC000
003C0FC000
003C07C000
003C03C000
003C01C000
003C01C000
003C00C000
003C000000
003C000000
003C000000
003C000000
003C000000
003C000000
003C000000
003C000000
003C000000
003C000000
003C000000
003C000000
003C000000
003C000000
00FF800000
0000000000
0000000000
0000000000
0000000000
0000000000
0000000000
ENDCHAR

STARTCHAR cns1_2478
ENCODING 9336
SWIDTH 960 0
DWIDTH 34 0
BBX 34 34 0 -2
BITMAP
0000000000
0000000000
0000000000
0000000000
0000000000
0000000000
0001E00000
0001E00000
0001E00000
0003F00000
0003700000
0007780000
0006380000
00063C0000
000E3C0000
000C1C0000
000C1E0000
00180E0000
00180F0000
0038070000
0030078000
0030078000
007003C000
006003C000
006001C000
00FFFFE000
00FFFFE000
01FFFFF000
0000000000
0000000000
0000000000
0000000000
0000000000
0000000000
ENDCHAR

STARTCHAR cns1_2479
ENCODING 9337
SWIDTH 960 0
DWIDTH 34 0
BBX 34 34 0 -2
BITMAP
0000000000
0000000000
0000000000
0000000000
0000000000
0000000000
0000000000
00FFFFC000
001E03C000
001E01C000
001E01C000
001E00C000
001E0C0000
001E0C0000
001E1C0000
001E1C0000
001FFC0000
001E1C0000
001E1C0000
001E0C0000
001E0C2000
001E002000
001E006000
001E006000
001E00E000
001E00E000
001E03E000
007FFFE000
0000000000
0000000000
0000000000
0000000000
0000000000
0000000000
ENDCHAR

STARTCHAR cns1_247A
ENCODING 9338
SWIDTH 960 0
DWIDTH 34 0
BBX 34 34 0 -2
BITMAP
0000000000
0000000000
0000000000
0000000000
0000000000
0000000000
003FFFE000
003E03C000
003C078000
0038078000
00380F0000
00381E0000
00303E0000
00003C0000
0000780000
0000F00000
0000F00000
0001E00000
0003C00000
0003C06000
0007806000
000F006000
000F00E000
001E00E000
003C01E000
003C03E000
007807E000
007FFFE000
0000000000
0000000000
0000000000
0000000000
0000000000
0000000000
ENDCHAR

STARTCHAR cns1_247B
ENCODING 9339
SWIDTH 960 0
DWIDTH 34 0
BBX 34 34 0 -2
BITMAP
0000000000
0000000000
0000000000
0000000000
0000000000
0000000000
01FF1FE000
003C07C000
0038038000
0038038000
0038038000
0038038000
0038038000
0038038000
0038038000
0038038000
0038038000
003FFF8000
0038038000
0038038000
0038038000
0038038000
0038038000
0038038000
0038038000
0038038000
003C038000
03FF3FE000
0302304000
0000000000
0000000000
0000000000
0000000000
0000000000
ENDCHAR

STARTCHAR cns1_247C
ENCODING 9340
SWIDTH 960 0
DWIDTH 34 0
BBX 34 34 0 -2
BITMAP
0000000000
0000000000
0000000000
0000000000
0000000000
0000000000
0003FC0000
000E0E0000
001C070000
0038038000
007803C000
007001C000
00F607E000
00F607E000
00E70EE000
00E7FEE000
00E7FEF000
00E7FEF000
00E70EE000
00E706E000
00F607E000
00F607E000
007001C000
007803C000
0038038000
001C070000
000E0E0000
0003FC0000
0000C00000
0000000000
0000000000
0000000000
0000000000
0000000000
ENDCHAR

STARTCHAR cns1_247D
ENCODING 9341
SWIDTH 960 0
DWIDTH 34 0
BBX 34 34 0 -2
BITMAP
0000000000
0000000000
0000000000
0000000000
0000000000
0000000000
0007FC0000
0007FC0000
0001F00000
0000E00000
0000E00000
0000E00000
0000E00000
0000E00000
0000E00000
0000E00000
0000E00000
0000E00000
0000E00000
0000E00000
0000E00000
0000E00000
0000E00000
0000E00000
0000E00000
0000E00000
0001F00000
0007FC0000
0000000000
0000000000
0000000000
0000000000
0000000000
0000000000
ENDCHAR

STARTCHAR cns1_247E
ENCODING 9342
SWIDTH 960 0
DWIDTH 34 0
BBX 34 34 0 -2
BITMAP
0000000000
0000000000
0000000000
0000000000
0000000000
0000000000
0000000000
007F1FE000
003C078000
001C060000
001C0C0000
001C180000
001C300000
001C600000
001CC00000
001DE00000
001FF00000
001F700000
001E780000
001C3C0000
001C1C0000
001C1E0000
001C0E0000
001C070000
001C078000
00BC07C000
007F9FF000
007F8FF000
0000000000
0000000000
0000000000
0000000000
0000000000
0000000000
ENDCHAR

STARTCHAR cns1_2521
ENCODING 9505
SWIDTH 960 0
DWIDTH 34 0
BBX 34 34 0 -2
BITMAP
0000000000
0000000000
0000000000
0000000000
0000000000
0000000000
0000000000
0000E00000
0000F00000
0001F00000
0001F00000
0001780000
0003380000
0002380000
00023C0000
00061C0000
00041E0000
000C1E0000
000C0E0000
000C0F0000
00180F0000
0018070000
0018078000
0030078000
003007C000
007003C000
00F807E000
01FE1FF000
0000000000
0000000000
0000000000
0000000000
0000000000
0000000000
ENDCHAR

STARTCHAR cns1_2522
ENCODING 9506
SWIDTH 960 0
DWIDTH 34 0
BBX 34 34 0 -2
BITMAP
0000000000
0000000000
0000000000
0000000000
0000000000
0000000000
0FE001FC00
03F001F000
01F803E000
01F803E000
01F807E000
01BC06E000
01BC06E000
01BC0EE000
019E0CE000
019E0CE000
018F18E000
018F18E000
018F38E000
0187B0E000
0187B0E000
0187F0E000
0183E0E000
0183E0E000
0181C0E000
0181C1F000
03C1C7FC00
0FF0000000
0000000000
0000000000
0000000000
0000000000
0000000000
0000000000
ENDCHAR

STARTCHAR cns1_2523
ENCODING 9507
SWIDTH 960 0
DWIDTH 34 0
BBX 34 34 0 -2
BITMAP
0000000000
0000000000
0000000000
0000000000
0000000000
0000000000
01F80FF000
007C03C000
003E018000
003F018000
0037018000
0037818000
0033C18000
0033C18000
0031E18000
0030F18000
0030F18000
0030798000
0030398000
00303D8000
00301F8000
00301F8000
00300F8000
0030078000
0030078000
0078038000
03FE018000
010C000000
0000000000
0000000000
0000000000
0000000000
0000000000
0000000000
ENDCHAR

STARTCHAR cns1_2524
ENCODING 9508
SWIDTH 960 0
DWIDTH 34 0
BBX 34 34 0 -2
BITMAP
0000000000
0000000000
0000000000
0000000000
0000000000
00C0002000
00FFFFE000
00FFFFE000
00FFFFE000
00C000E000
01C000C000
0180000000
0000000000
003000C000
0038018000
003FFF8000
003FFF8000
003FFF8000
0070038000
0070030000
0000000000
0000000000
0000002000
0060006000
00E000E000
00FFFFE000
00FFFFE000
00FFFFE000
0000000000
0000000000
0000000000
0000000000
0000000000
0000000000
ENDCHAR

STARTCHAR cns1_2525
ENCODING 9509
SWIDTH 960 0
DWIDTH 34 0
BBX 34 34 0 -2
BITMAP
0000000000
0000000000
0000000000
0000000000
0000000000
0000000000
0003F00000
000F3E0000
001C070000
0038038000
007803C000
00F001C000
00F001E000
00F001E000
01E001E000
01E000E000
01E000F000
01E000F000
01E000E000
01E000E000
00F001E000
00F001E000
00F001C000
007803C000
0038038000
001C070000
000F1E0000
0003F80000
0000000000
0000000000
0000000000
0000000000
0000000000
0000000000
ENDCHAR

STARTCHAR cns1_2526
ENCODING 9510
SWIDTH 960 0
DWIDTH 34 0
BBX 34 34 0 -2
BITMAP
0000000000
0000000000
0000000000
0000000000
0000000000
0000000000
03FFFFE000
03FFFFE000
003C0F0000
003C0F0000
003C0F0000
003C0F0000
003C0F0000
003C0F0000
003C0F0000
003C0F0000
003C0F0000
003C0F0000
003C0F0000
003C0F0000
003C0F0000
003C0F0000
003C0F0000
003C0F0000
003C0F0000
003C0F0000
007E1F8000
01FFBFC000
0000000000
0000000000
0000000000
0000000000
0000000000
0000000000
ENDCHAR

STARTCHAR cns1_2527
ENCODING 9511
SWIDTH 960 0
DWIDTH 34 0
BBX 34 34 0 -2
BITMAP
0000000000
0000000000
0000000000
0000000000
0000000000
0000000000
00FFFE0000
000E078000
000E03C000
000E01C000
000E01C000
000E01E000
000E01E000
000E01E000
000E03C000
000E03C000
000E078000
000FFE0000
000E000000
000E000000
000E000000
000E000000
000E000000
000E000000
000E000000
000E000000
001F000000
007FE00000
0000000000
0000000000
0000000000
0000000000
0000000000
0000000000
ENDCHAR

STARTCHAR cns1_2528
ENCODING 9512
SWIDTH 960 0
DWIDTH 34 0
BBX 34 34 0 -2
BITMAP
0000000000
0000000000
0000000000
0000000000
0000000000
0000000000
00FFFF0000
01F80F0000
007C070000
003E018000
001F000000
000F800000
0007C00000
0003E00000
0001F00000
0000780000
00003C0000
0000300000
0000600000
0000C00000
0001800000
0007000000
000E00C000
001C00C000
003801C000
00FFFFC000
00FFFF8000
01FFFF8000
0000038000
0000000000
0000000000
0000000000
0000000000
0000000000
ENDCHAR

STARTCHAR cns1_2529
ENCODING 9513
SWIDTH 960 0
DWIDTH 34 0
BBX 34 34 0 -2
BITMAP
0000000000
0000000000
0000000000
0000000000
0000000000
0000000000
01FFFFC000
01F1C7C000
01E1C1C000
01C1C1C000
01C1C0C000
0181C0C000
0181C0C000
0001C00000
0001C00000
0001C00000
0001C00000
0001C00000
0001C00000
0001C00000
0001C00000
0001C00000
0001C00000
0001C00000
0001C00000
0001C00000
0003E00000
001FFE0000
0000000000
0000000000
0000000000
0000000000
0000000000
0000000000
ENDCHAR

STARTCHAR cns1_252A
ENCODING 9514
SWIDTH 960 0
DWIDTH 34 0
BBX 34 34 0 -2
BITMAP
0000000000
0000000000
0000000000
0000000000
0000000000
0000000000
0000000000
003F0FC000
007F9FE000
00F3FCF000
00E1F87000
00C1F83000
0000F00000
0000F00000
0000F00000
0000F00000
0000F00000
0000F00000
0000F00000
0000F00000
0000F00000
0000F00000
0000F00000
0000F00000
0000F00000
0000F00000
0001F80000
0007FE0000
00000C0000
0000000000
0000000000
0000000000
0000000000
0000000000
ENDCHAR

STARTCHAR cns1_252B
ENCODING 9515
SWIDTH 960 0
DWIDTH 34 0
BBX 34 34 0 -2
BITMAP
0000000000
0000000000
0000000000
0000000000
0000000000
0000000000
0000000000
000FFE0000
0001F00000
0000E00000
0000E00000
001FFF0000
0078E7C000
00F0E1C000
01E0E0E000
01E0E0F000
01E0E0F000
01E0E0F000
01E0E07000
01E0E07000
01E0E0F000
00E0E0E000
00F0E1E000
0038E7C000
000FFF0000
0000E00000
0000E00000
0000F00000
000FFC0000
0000000000
0000000000
0000000000
0000000000
0000000000
ENDCHAR

STARTCHAR cns1_252C
ENCODING 9516
SWIDTH 960 0
DWIDTH 34 0
BBX 34 34 0 -2
BITMAP
0000000000
0000000000
0000000000
0000000000
0000000000
0000000000
01FF3FC000
007C0F0000
003C060000
001C0C0000
001E1C0000
000E180000
000F300000
0007600000
0007E00000
0003C00000
0003C00000
0001E00000
0003E00000
0003F00000
0006780000
000C780000
000C3C0000
00181C0000
00381E0000
00300F0000
00781F8000
03FE7FE000
0000000000
0000000000
0000000000
0000000000
0000000000
0000000000
ENDCHAR

STARTCHAR cns1_252D
ENCODING 9517
SWIDTH 960 0
DWIDTH 34 0
BBX 34 34 0 -2
BITMAP
0000000000
0000000000
0000000000
0000000000
0000000000
0000000000
000FFE0000
0001F00000
0000E00000
0780E07C00
0FC0E0FC00
0FC0E0FC00
01C0E0E000
01E0E0E000
01E0E0E000
00E0E0E000
00E0E1C000
00E0E1C000
0070E1C000
0078E38000
003CE70000
001FFE0000
0001E00000
0000E00000
0000E00000
0000E00000
0001E00000
001FFE0000
000C0C0000
0000000000
0000000000
0000000000
0000000000
0000000000
ENDCHAR

STARTCHAR cns1_252E
ENCODING 9518
SWIDTH 960 0
DWIDTH 34 0
BBX 34 34 0 -2
BITMAP
0000000000
0000000000
0000000000
0000000000
0000000000
0000000000
0000E00000
000FFE0000
001C070000
003C038000
007803C000
007001C000
007001E000
00F001E000
00F001C000
00F001C000
007001C000
007001C000
007001C000
0038038000
0038038000
0038076000
0198066000
00CC0E6000
00CC0C6000
00FE1FE000
00FF1FE000
00FF3FE000
0000000000
0000000000
0000000000
0000000000
0000000000
0000000000
ENDCHAR

STARTCHAR cns1_252F
ENCODING 9519
SWIDTH 960 0
DWIDTH 34 0
BBX 34 34 0 -2
BITMAP
0000000000
0000000000
0000000000
0000000000
0000000000
0000000000
0000000000
0000000000
0000000000
0000000000
0000000000
0000000000
0000000000
0000000000
0000000000
0001F8C000
000399E000
000F19C000
001E1B8000
001C1B8000
00381B0000
00781E0000
00701C0000
0070380000
00F0380000
0070F80000
0079FF0000
007F1F0000
001C000000
0000000000
0000000000
0000000000
0000000000
0000000000
ENDCHAR

STARTCHAR cns1_2530
ENCODING 9520
SWIDTH 960 0
DWIDTH 34 0
BBX 34 34 0 -2
BITMAP
0000000000
0000000000
0000000000
0000000000
0000000000
00003F8000
000073C000
0000E0E000
0001C0E000
000180E000
000381E000
000301C000
00073B8000
00077E0000
0006060000
000E030000
000E038000
000C038000
001C038000
001C038000
0038078000
0038070000
00380F0000
007F1E0000
0071FC0000
0070700000
00F0000000
00E0000000
00E0000000
0000000000
0000000000
0000000000
0000000000
0000000000
ENDCHAR

STARTCHAR cns1_2531
ENCODING 9521
SWIDTH 960 0
DWIDTH 34 0
BBX 34 34 0 -2
BITMAP
0000000000
0000000000
0000000000
0000000000
0000000000
0000000000
0000000000
0000000000
0006070000
003F8F0000
00199C0000
0001F00000
0001E00000
0000C00000
0001C00000
0001800000
0003800000
0003800000
0007800000
0007000000
000F000000
000F000000
000E000000
000E000000
001C000000
001C000000
0000000000
0000000000
0000000000
0000000000
0000000000
0000000000
0000000000
0000000000
ENDCHAR

STARTCHAR cns1_2532
ENCODING 9522
SWIDTH 960 0
DWIDTH 34 0
BBX 34 34 0 -2
BITMAP
0000000000
0000000000
0000000000
0000000000
0000000000
0000000000
0000000000
0000780000
0000FC0000
0001CE0000
0001CF0000
0000C78000
0000C38000
0000E00000
0000700000
0007380000
001E380000
003C380000
00381C0000
00781C0000
00703C0000
0070380000
0070380000
0070780000
0030700000
0039E00000
001FC00000
0000000000
0000000000
0000000000
0000000000
0000000000
0000000000
0000000000
ENDCHAR

STARTCHAR cns1_2533
ENCODING 9523
SWIDTH 960 0
DWIDTH 34 0
BBX 34 34 0 -2
BITMAP
0000000000
0000000000
0000000000
0000000000
0000000000
0000000000
0000000000
0000000000
0000000000
0000000000
0001F80000
0003FE0000
0007840000
0007000000
0007000000
0003800000
0001F80000
0007F80000
000F000000
001E000000
001E030000
001F070000
000FFE0000
0007F80000
0000000000
0000000000
0000000000
0000000000
0000000000
0000000000
0000000000
0000000000
0000000000
0000000000
ENDCHAR

STARTCHAR cns1_2534
ENCODING 9524
SWIDTH 960 0
DWIDTH 34 0
BBX 34 34 0 -2
BITMAP
0000000000
0000000000
0000000000
0000000000
0000000000
0000F00000
0001E00000
0003000000
0007000000
00061E0000
0003FF8000
0003FF8000
0006000000
000C000000
000C000000
0018000000
0018000000
0038000000
0030000000
0030000000
0030000000
0038000000
001FC00000
000FF80000
0003FC0000
00000C0000
00001C0000
00063C0000
0007F80000
0000000000
0000000000
0000000000
0000000000
0000000000
ENDCHAR

STARTCHAR cns1_2535
ENCODING 9525
SWIDTH 960 0
DWIDTH 34 0
BBX 34 34 0 -2
BITMAP
0000000000
0000000000
0000000000
0000000000
0000000000
0000000000
0000000000
0000000000
000F0F8000
001FBF8000
003FF38000
0073E38000
0007C70000
0007870000
0007070000
000F0E0000
000E0E0000
001E1E0000
001C1C0000
003C1C0000
0038380000
0000380000
0000780000
0000780000
0000F00000
0000700000
0000000000
0000000000
0000000000
0000000000
0000000000
0000000000
0000000000
0000000000
ENDCHAR

STARTCHAR cns1_2536
ENCODING 9526
SWIDTH 960 0
DWIDTH 34 0
BBX 34 34 0 -2
BITMAP
0000000000
0000000000
0000000000
0000000000
0000000000
00007C0000
0000F60000
0001C60000
0003860000
0007070000
0007070000
000E070000
000E070000
001E0E0000
001FFE0000
001FFE0000
003C1E0000
00381C0000
00381C0000
00383C0000
0038380000
0030300000
0030700000
0030E00000
0039C00000
001F800000
0006000000
0000000000
0000000000
0000000000
0000000000
0000000000
0000000000
0000000000
ENDCHAR

STARTCHAR cns1_2537
ENCODING 9527
SWIDTH 960 0
DWIDTH 34 0
BBX 34 34 0 -2
BITMAP
0000000000
0000000000
0000000000
0000000000
0000000000
0000000000
0000000000
0000000000
0000000000
0000000000
0000000000
0003C00000
0003C00000
0003800000
0007800000
0007800000
0007800000
0007800000
0007000000
0007000000
0007180000
000F380000
0007F00000
0007C00000
0000000000
0000000000
0000000000
0000000000
0000000000
0000000000
0000000000
0000000000
0000000000
0000000000
ENDCHAR

STARTCHAR cns1_2538
ENCODING 9528
SWIDTH 960 0
DWIDTH 34 0
BBX 34 34 0 -2
BITMAP
0000000000
0000000000
0000000000
0000000000
0000000000
0000000000
0000000000
0000000000
0000000000
0000000000
000E030000
003F070000
00070F0000
00071C0000
0006380000
0006700000
000EF00000
000FE00000
001F600000
001EE00000
003CE00000
0078F00000
0070FE0000
00707C0000
0000000000
0000000000
0000000000
0000000000
0000000000
0000000000
0000000000
0000000000
0000000000
0000000000
ENDCHAR

STARTCHAR cns1_2539
ENCODING 9529
SWIDTH 960 0
DWIDTH 34 0
BBX 34 34 0 -2
BITMAP
0000000000
0000000000
0000000000
0000000000
0000000000
0000000000
0003800000
000FC00000
0005E00000
0000E00000
0000E00000
0000E00000
0000E00000
0000600000
0000600000
0000E00000
0000E00000
0001E00000
0003E00000
0003700000
0007700000
000E700000
000E700000
001C700000
003C700000
0078780000
00383F0000
00001E0000
0000000000
0000000000
0000000000
0000000000
0000000000
0000000000
ENDCHAR

STARTCHAR cns1_253A
ENCODING 9530
SWIDTH 960 0
DWIDTH 34 0
BBX 34 34 0 -2
BITMAP
0000000000
0000000000
0000000000
0000000000
0000000000
0000000000
0000000000
0000000000
0000000000
0000000000
0003020000
0007870000
0007070000
000F0F0000
000E0E0000
000E0E0000
000E1C0000
000E1C0000
000E1C0000
000E380000
001E380000
001E7F0000
001BCE0000
0038000000
0038000000
0070000000
00F0000000
0060000000
0000000000
0000000000
0000000000
0000000000
0000000000
0000000000
ENDCHAR

STARTCHAR cns1_253B
ENCODING 9531
SWIDTH 960 0
DWIDTH 34 0
BBX 34 34 0 -2
BITMAP
0000000000
0000000000
0000000000
0000000000
0000000000
0000000000
0000000000
0000000000
0000000000
0000000000
0000000000
0000000000
0000000000
001F0E0000
000F0F0000
000F0E0000
000F0E0000
000E0E0000
000E1C0000
001E1C0000
001E180000
001E380000
001E700000
001FE00000
001F800000
001F000000
0000000000
0000000000
0000000000
0000000000
0000000000
0000000000
0000000000
0000000000
ENDCHAR

STARTCHAR cns1_253C
ENCODING 9532
SWIDTH 960 0
DWIDTH 34 0
BBX 34 34 0 -2
BITMAP
0000000000
0000000000
0000000000
0000000000
0000000000
0000F00000
0001C00000
0003000000
0003FF0000
0003FF0000
0006000000
000C000000
000C000000
000C000000
000C000000
0007FC0000
0007FC0000
000FFC0000
001C000000
0018000000
0030000000
0030000000
0030000000
003C000000
001F800000
000FE00000
0000F00000
0000700000
0001E00000
0003C00000
0000000000
0000000000
0000000000
0000000000
ENDCHAR

STARTCHAR cns1_253D
ENCODING 9533
SWIDTH 960 0
DWIDTH 34 0
BBX 34 34 0 -2
BITMAP
0000000000
0000000000
0000000000
0000000000
0000000000
0000000000
0000000000
0000000000
0000000000
0000000000
0001F00000
00079C0000
000E0C0000
001E0E0000
001C0E0000
003C0E0000
003C0E0000
00380E0000
00381E0000
00381E0000
00383C0000
001C3C0000
001C700000
0007E00000
0000000000
0000000000
0000000000
0000000000
0000000000
0000000000
0000000000
0000000000
0000000000
0000000000
ENDCHAR

STARTCHAR cns1_253E
ENCODING 9534
SWIDTH 960 0
DWIDTH 34 0
BBX 34 34 0 -2
BITMAP
0000000000
0000000000
0000000000
0000000000
0000000000
0000000000
0000000000
0000000000
0000000000
0000000000
000000C000
000FFFC000
003FFFC000
003FDF0000
00219C0000
00039C0000
0003180000
0007380000
000F380000
001E780000
001E700000
003C730000
00787E0000
00387C0000
0000000000
0000000000
0000000000
0000000000
0000000000
0000000000
0000000000
0000000000
0000000000
0000000000
ENDCHAR

STARTCHAR cns1_253F
ENCODING 9535
SWIDTH 960 0
DWIDTH 34 0
BBX 34 34 0 -2
BITMAP
0000000000
0000000000
0000000000
0000000000
0000000000
0000000000
0000000000
0000000000
0000FC0000
0001CE0000
0003870000
0007070000
0007070000
0006078000
000E078000
000E078000
000E070000
001E070000
001C0E0000
001F1E0000
001DFC0000
003CF80000
0038000000
0038000000
0078000000
0078000000
0000000000
0000000000
0000000000
0000000000
0000000000
0000000000
0000000000
0000000000
ENDCHAR

STARTCHAR cns1_2540
ENCODING 9536
SWIDTH 960 0
DWIDTH 34 0
BBX 34 34 0 -2
BITMAP
0000000000
0000000000
0000000000
0000000000
0000000000
0000000000
0000000000
0000000000
0000000000
000000C000
000003C000
0003FFC000
000F070000
001EE00000
003C780000
0038780000
00783C0000
00703C0000
00703C0000
00703C0000
0070780000
0070780000
0070F00000
0039F00000
001FE00000
0007800000
0000000000
0000000000
0000000000
0000000000
0000000000
0000000000
0000000000
0000000000
ENDCHAR

STARTCHAR cns1_2541
ENCODING 9537
SWIDTH 960 0
DWIDTH 34 0
BBX 34 34 0 -2
BITMAP
0000000000
0000000000
0000000000
0000000000
0000000000
0000000000
0000000000
0000000000
0000000000
0000000000
0000038000
000FFF8000
001FFF0000
0039F80000
0031E00000
0061C00000
0001C00000
0003800000
0003800000
0003800000
0003800000
0007100000
0007F00000
0007E00000
0003800000
0000000000
0000000000
0000000000
0000000000
0000000000
0000000000
0000000000
0000000000
0000000000
ENDCHAR

STARTCHAR cns1_2542
ENCODING 9538
SWIDTH 960 0
DWIDTH 34 0
BBX 34 34 0 -2
BITMAP
0000000000
0000000000
0000000000
0000000000
0000000000
0000000000
0000000000
0000000000
0000000000
0000000000
0000000000
003F078000
007F078000
006F078000
000F038000
000F030000
000E070000
001E060000
001C0C0000
001C1C0000
001C380000
001E700000
001FE00000
000F800000
0000000000
0000000000
0000000000
0000000000
0000000000
0000000000
0000000000
0000000000
0000000000
0000000000
ENDCHAR

STARTCHAR cns1_2543
ENCODING 9539
SWIDTH 960 0
DWIDTH 34 0
BBX 34 34 0 -2
BITMAP
0000000000
0000000000
0000000000
0000000000
0000000000
0000000000
00001E0000
00001E0000
00001C0000
00003C0000
00003C0000
0000FC0000
0007FF0000
001E378000
003C73C000
007871C000
007861C000
0070E1C000
00F0E1C000
00F0C3C000
0071C38000
0079C78000
003FDE0000
000FF80000
0003800000
0007800000
0007000000
000F000000
0006000000
0000000000
0000000000
0000000000
0000000000
0000000000
ENDCHAR

STARTCHAR cns1_2544
ENCODING 9540
SWIDTH 960 0
DWIDTH 34 0
BBX 34 34 0 -2
BITMAP
0000000000
0000000000
0000000000
0000000000
0000000000
0000000000
0000000000
0000000000
0003C18000
000FE3C000
000CE78000
0000EF0000
0000FE0000
0000FC0000
0000F80000
0000F00000
0000E00000
0001E00000
0003F00000
0007700000
000E700000
001E700000
003C71C000
0038798000
00783F8000
00701F0000
0000000000
0000000000
0000000000
0000000000
0000000000
0000000000
0000000000
0000000000
ENDCHAR

STARTCHAR cns1_2545
ENCODING 9541
SWIDTH 960 0
DWIDTH 34 0
BBX 34 34 0 -2
BITMAP
0000000000
0000000000
0000000000
0000000000
0000000000
0000180000
00003C0000
00003E0000
00003C0000
00003C0000
0000780000
007C780000
00FE700000
01DCF3C000
003CE7C000
0078E3C000
0079E1C000
00F1C18000
00F1C38000
00E3C30000
00E3870000
00E38E0000
007F9C0000
001FF00000
000FC00000
000F000000
000F000000
001E000000
000C000000
0000000000
0000000000
0000000000
0000000000
0000000000
ENDCHAR

STARTCHAR cns1_2546
ENCODING 9542
SWIDTH 960 0
DWIDTH 34 0
BBX 34 34 0 -2
BITMAP
0000000000
0000000000
0000000000
0000000000
0000000000
0000000000
0000000000
0000000000
0000000000
0000000000
0000000000
003F07E000
007804E000
00F000F000
00E0007000
01E0007000
01E1F07000
01C3B0F000
01C3B0E000
01C3B1E000
01C3F1C000
01E1C3C000
00FFFF8000
007E3E0000
0000000000
0000000000
0000000000
0000000000
0000000000
0000000000
0000000000
0000000000
0000000000
0000000000
ENDCHAR

STARTCHAR cns1_2547
ENCODING 9543
SWIDTH 960 0
DWIDTH 34 0
BBX 34 34 0 -2
BITMAP
0000000000
0000000000
0000000000
000E000000
000F000000
000F000000
001F000000
001E000000
003C01C000
00783FF000
00E7FFF800
01FFC0F800
03FC00F000
03E000F000
000000F000
000000F000
000000F000
000000E000
000000E000
000001E000
000001C000
000001C000
000003C000
0000038000
001C078000
00070F0000
0007FF0000
0003FE0000
0001FC0000
0000F80000
0000600000
0000000000
0000000000
0000000000
ENDCHAR

STARTCHAR cns1_2548
ENCODING 9544
SWIDTH 960 0
DWIDTH 34 0
BBX 34 34 0 -2
BITMAP
0000000000
0000000000
0000000000
0000000000
0001E00000
0001F00000
0001E00000
0003C00000
0003800000
0007000000
000707E000
000FFFF000
003FF9E000
007F03C000
0030078000
0000078000
00300F0000
001C1E0000
000FBE0000
0003FC0000
0000F80000
0000FC0000
0001FF0000
0007CF8000
000F07C000
001E03E000
003801F000
00F000F800
01C0007800
0300003800
0400000000
0000000000
0000000000
0000000000
ENDCHAR

STARTCHAR cns1_2549
ENCODING 9545
SWIDTH 960 0
DWIDTH 34 0
BBX 34 34 0 -2
BITMAP
0000000000
0000000000
0000000000
0000000000
0000000000
0000000000
00001FF800
0007FFFC00
07FFE07800
0780007800
0380003800
0380003800
0380003800
0380003800
0380003800
0380003800
0380003800
0380003800
0180003800
01C0003800
01C0003800
01C0003800
01C0003800
01C0007800
01C0007800
01C0007800
00C0003800
0000000000
0000000000
0000000000
0000000000
0000000000
0000000000
0000000000
ENDCHAR

STARTCHAR cns1_254A
ENCODING 9546
SWIDTH 960 0
DWIDTH 34 0
BBX 34 34 0 -2
BITMAP
0000000000
0000000000
0000000000
0000000000
0000000000
0000000000
000000C000
00001FF000
03FFFFF000
07FFFC0000
03F0000000
01E0000000
01E0000000
01E0000000
01E0000000
01E0000000
00E0000000
00E0000000
00E0000000
00E0000000
00E0000000
00E0000000
00E0000000
00E0000000
00F001F000
007C1FF800
007FFFF800
000FE00000
0000000000
0000000000
0000000000
0000000000
0000000000
0000000000
ENDCHAR

STARTCHAR cns1_254B
ENCODING 9547
SWIDTH 960 0
DWIDTH 34 0
BBX 34 34 0 -2
BITMAP
0000000000
0000000000
0000000000
0002000000
0007800000
0007800000
000F800000
000F000000
001E000000
001C000000
0038001800
00780FFC00
007FFFFE00
01FFE03C00
03FDE03C00
00C1E03C00
0001E03C00
0003C03800
0003C03800
0007807800
0007007800
000F007000
001E00F000
003C00F000
007800E000
007001E000
00E039E000
01C01FC000
03800F8000
06000F0000
0000060000
0000000000
0000000000
0000000000
ENDCHAR

STARTCHAR cns1_254C
ENCODING 9548
SWIDTH 960 0
DWIDTH 34 0
BBX 34 34 0 -2
BITMAP
0000000000
0000000000
0000000000
0000000000
0000E00000
0000F00000
0000F80000
0000F80000
0000F00000
0000F00000
0000F00000
0000E00000
0000E03C00
0003FFFF00
0FFFFFFF00
1FFDC00000
0781C00000
0003800000
0003800000
0003800000
00070C0000
00070E0000
0007070000
000E078000
000E03C000
001E1FE000
001FFCF000
003FE0F000
001E007800
0000007000
0000000000
0000000000
0000000000
0000000000
ENDCHAR

STARTCHAR cns1_254D
ENCODING 9549
SWIDTH 960 0
DWIDTH 34 0
BBX 34 34 0 -2
BITMAP
0000000000
0000000000
0000000000
0000000000
00003F0000
00FFFF0000
01FFFF0000
007C0F0000
00001E0000
00001C0000
00001C0000
00003C0000
0000380000
00007FE000
00007FE000
000001E000
000001C000
000003C000
000003C000
0000038000
0000078000
0000070000
00000F0000
00000E0000
00001E0000
000E3C0000
000FF80000
0007F00000
0003E00000
0003C00000
0000000000
0000000000
0000000000
0000000000
ENDCHAR

STARTCHAR cns1_254E
ENCODING 9550
SWIDTH 960 0
DWIDTH 34 0
BBX 34 34 0 -2
BITMAP
0000000000
0000000000
0000000000
0000F00000
0000780000
0000780000
0000780000
0070700000
0070F00000
0070F00000
0070FFF000
00FFFFF800
01FFE07800
01FDC07800
00C1C07800
0003C07000
0003807000
0007007000
000F00F000
000E00F000
001E00E000
003C01E000
003801E000
007001C000
00F003C000
00E003C000
01C0FF8000
03803F8000
00003F0000
00001E0000
0000000000
0000000000
0000000000
0000000000
ENDCHAR

STARTCHAR cns1_254F
ENCODING 9551
SWIDTH 960 0
DWIDTH 34 0
BBX 34 34 0 -2
BITMAP
0000000000
0000000000
0000000000
000600C000
000781E000
000780F000
000781F000
000781E000
000F03C000
000E03C000
001E078000
001C070000
003C0F0000
00781E0000
00701C0000
00F0380000
00E0780000
01C0700000
01C0700000
01E0380000
00F01C0000
00700E0000
00780F0000
003C078000
003E03C000
001E03E000
000F01E000
000F81F000
000780E000
0007806000
0003000000
0000000000
0000000000
0000000000
ENDCHAR

STARTCHAR cns1_2550
ENCODING 9552
SWIDTH 960 0
DWIDTH 34 0
BBX 34 34 0 -2
BITMAP
0000000000
0000000000
0000000000
0000000000
000000F000
00003FFC00
0FFFFFFE00
0FFF800000
0387800000
0007000000
000F000000
000F000000
000E7FC000
001FFFE000
001FF1E000
000801E000
000001E000
000001C000
000003C000
000003C000
000003C000
0000078000
0000078000
0000070000
000E0F0000
0007DE0000
0003FE0000
0001FC0000
0000F80000
0000600000
0000000000
0000000000
0000000000
0000000000
ENDCHAR

STARTCHAR cns1_2551
ENCODING 9553
SWIDTH 960 0
DWIDTH 34 0
BBX 34 34 0 -2
BITMAP
0000000000
0000000000
0000000000
0000001800
000007FE00
001FFFFE00
003FF80000
001E000000
001E000000
001E000000
003C000000
003C000000
003C000000
003C000000
0038000000
0038000000
0038000000
0078000000
0070000000
0070000000
00F0000000
00E0000000
01E0000000
01C0000000
03C0000000
0380000000
0700000000
0600000000
0E00000000
0C00000000
0000000000
0000000000
0000000000
0000000000
ENDCHAR

STARTCHAR cns1_2552
ENCODING 9554
SWIDTH 960 0
DWIDTH 34 0
BBX 34 34 0 -2
BITMAP
0000000000
0000000000
0000060000
00000F8000
000007C000
0000078000
0000078000
0000078000
0010078000
003C038000
001E038000
001E038000
001E038000
001C038000
001C038000
001C078000
001C0F8000
001C3F8000
001DF38000
001FE38000
003F838000
003E038000
0078038000
0000038000
0000038000
0000038000
0000038000
0000038000
0000038000
0000038000
0000038000
0000010000
0000000000
0000000000
ENDCHAR

STARTCHAR cns1_2553
ENCODING 9555
SWIDTH 960 0
DWIDTH 34 0
BBX 34 34 0 -2
BITMAP
0000000000
0000000000
0000000000
0000000000
0000070000
0000078000
0000078000
00000FC000
00001F0000
00003E0000
0000780000
0001F00000
0003E00000
0007800000
000F000000
003C000000
00F8000000
00F0000000
00F8000000
003F000000
000F800000
0003E00000
0000F00000
00007C0000
00003F0000
00001F8000
000007C000
000003E000
000001E000
000000E000
0000000000
0000000000
0000000000
0000000000
ENDCHAR

STARTCHAR cns1_2554
ENCODING 9556
SWIDTH 960 0
DWIDTH 34 0
BBX 34 34 0 -2
BITMAP
0000000000
0000000000
0000000000
0000000000
000001F800
00007FFE00
07FFFF8000
0FFCE00000
0000E00000
0000F00000
0000F00000
0000F00000
0000F00000
0000F00000
0000F00000
0000F00000
0000700000
0000700000
0000700000
0000700000
0000700000
0000700000
0000700000
0000F00000
0000F00000
0000F00000
0000F00000
0000F00000
0000700000
0000000000
0000000000
0000000000
0000000000
0000000000
ENDCHAR

STARTCHAR cns1_2555
ENCODING 9557
SWIDTH 960 0
DWIDTH 34 0
BBX 34 34 0 -2
BITMAP
0000000000
0000000000
0000000000
0007C00000
0003C00000
0003C00000
0003C00000
0003C00000
0003C1E000
0381C1E000
03C1C1E000
03C1C1E000
03C1C1E000
03C1C0E000
01C1C0E000
01C1C7E000
03FFFFE000
03FFC0E000
03C1C0C000
0001C00000
0001C00000
0001C00000
0001C00000
0001C00000
0001C00000
0001FFFC00
003FFFFF00
1FFFE00000
07C0000000
0000000000
0000000000
0000000000
0000000000
0000000000
ENDCHAR

STARTCHAR cns1_2556
ENCODING 9558
SWIDTH 960 0
DWIDTH 34 0
BBX 34 34 0 -2
BITMAP
0000000000
0000000000
0000030000
0000078000
000007C000
00000FC000
00001F8000
00001E0000
00007C0000
0000F8E000
0001E0F000
000781F000
000E03E000
003807C000
00000F8000
00001F0000
00007C0000
0000FE0000
0001EE0000
0007CE0000
000F0E0000
003C0E0000
00780E0000
01C00E0000
01000E0000
00000E0000
00000E0000
00000E0000
00000E0000
00000E0000
00000E0000
0000000000
0000000000
0000000000
ENDCHAR

STARTCHAR cns1_2557
ENCODING 9559
SWIDTH 960 0
DWIDTH 34 0
BBX 34 34 0 -2
BITMAP
0000000000
0000000000
0000000000
0000000000
00000FF800
003FFFFC00
003FF83C00
000E003C00
0000007800
0000007800
0000007000
000000F000
003FFFE000
001FFE0000
001E000000
001E000000
001C000000
001C000000
001C000000
003C000000
0038000000
0038000000
0070000000
0070000000
00F0000000
00E0000000
01C0000000
0380000000
0300000000
0600000000
0000000000
0000000000
0000000000
0000000000
ENDCHAR

STARTCHAR cns1_2558
ENCODING 9560
SWIDTH 960 0
DWIDTH 34 0
BBX 34 34 0 -2
BITMAP
0000000000
0000000000
0000000000
0000000000
0000000000
0000000000
00007FF000
07FFFFF800
03FE00F800
038000F800
03C000F000
03C000F000
03C000F000
03C000F000
03C780F000
03C3C0F000
03C1F0F000
01C0F8F000
01C078E000
01C030E000
01C000E000
01C000E000
01C000E000
01C001E000
01C001E000
01FFFFE000
01FFF3E000
00C001C000
0000018000
0000000000
0000000000
0000000000
0000000000
0000000000
ENDCHAR

STARTCHAR cns1_2559
ENCODING 9561
SWIDTH 960 0
DWIDTH 34 0
BBX 34 34 0 -2
BITMAP
0000000000
0000000000
0000000000
000000E000
00001FF800
0003FFF800
01FFE07800
03FF807800
0003C07800
0003C07800
0001C07000
0001C07000
0001C0F000
0001C0F000
0001C0E000
0001C0E000
0001D9E000
0003FFE000
0003CFC000
0003C7C000
0003C38000
0003C00000
0003C00000
0003C00000
0003C00000
0003C00000
0003C00000
0003C00000
0001C00000
0001C00000
0000000000
0000000000
0000000000
0000000000
ENDCHAR

STARTCHAR cns1_255A
ENCODING 9562
SWIDTH 960 0
DWIDTH 34 0
BBX 34 34 0 -2
BITMAP
0000000000
0000000000
0000C00000
0001F00000
0000F00000
0000F00000
0000E00000
0000E00000
0000E00000
0000E00000
0001E00000
0001E03800
0001FFFE00
003FFFFE00
0FFFC00000
07F3C00000
0003800000
0003800000
0007830000
00078FC000
0007FFC000
000FF7C000
000F878000
0000078000
00000F0000
00000F0000
00001E0000
00001C0000
0000380000
0000700000
0000600000
0000C00000
0000000000
0000000000
ENDCHAR

STARTCHAR cns1_255B
ENCODING 9563
SWIDTH 960 0
DWIDTH 34 0
BBX 34 34 0 -2
BITMAP
0000000000
0000000000
0000000000
0000000000
0000000000
0001C00000
0001E00000
0001F00000
0001F00000
0003F00000
0003E00000
0003C00000
0007800000
0007800000
000F000000
000F000000
001E000000
003C040000
00380F0000
0078038000
00F0038000
00E001C000
01C000F000
03C001F000
07803FF800
0F3FFC3C00
0FFFC03C00
0FF8003C00
0F00001C00
0000000000
0000000000
0000000000
0000000000
0000000000
ENDCHAR

STARTCHAR cns1_255C
ENCODING 9564
SWIDTH 960 0
DWIDTH 34 0
BBX 34 34 0 -2
BITMAP
0000000000
0000000000
0000000000
0000000000
0180000000
03E000F000
03F000F800
01F801F000
007C03E000
003E0F8000
001F1F0000
0007BC0000
0003F80000
0001F00000
0000E00000
0000E00000
0000E00000
0000E00000
0000E00000
0000E00000
0000E00000
0000E00000
0000E00000
0000E00000
0000E00000
0001E00000
0001E00000
0001E00000
0000E00000
0000C00000
0000000000
0000000000
0000000000
0000000000
ENDCHAR

STARTCHAR cns1_255D
ENCODING 9565
SWIDTH 960 0
DWIDTH 34 0
BBX 34 34 0 -2
BITMAP
0000000000
0000000000
0000000000
0000000000
0000000000
0000000000
000003F800
0001FFFE00
07FFF00000
0FFE700000
0180780000
0000780000
0000380000
0000380000
0000380000
0007F80000
001FF80000
007C700000
00F0000000
00E0000000
01E0000000
01E0000000
01E0001800
00F0007800
00F801F000
007E0FE000
003FFF8000
0007F80000
0000000000
0000000000
0000000000
0000000000
0000000000
0000000000
ENDCHAR

STARTCHAR cns1_255E
ENCODING 9566
SWIDTH 960 0
DWIDTH 34 0
BBX 34 34 0 -2
BITMAP
0000000000
0000000000
0000000000
0001C00000
0003F00000
0000F00000
0000F00000
0000700000
0000700000
0000700000
000078FC00
0000FFFE00
001FF80000
07FF380000
0FC0380000
0000380000
0000380000
0000380000
0003F80000
003FF80000
0078000000
00F0000000
00F0000000
00E0000000
00E0000000
00F0000000
00F0003800
007C01F800
003FFFE000
000FFF0000
0000000000
0000000000
0000000000
0000000000
ENDCHAR

STARTCHAR cns1_255F
ENCODING 9567
SWIDTH 960 0
DWIDTH 34 0
BBX 34 34 0 -2
BITMAP
0000000000
0000000000
0000000000
0000000000
0000000000
0000000000
00380F8000
007C0F8000
003C078000
003C070000
003C070000
003C070000
001C070000
001C077E00
001DFFFF00
007FFF0000
1FFC0E0000
0FDC0E0000
001C0E0000
001C0E0000
001E0C0000
001E1C0000
000E1C0000
000E180000
000E080000
000F000000
000F8FC000
0007FFC000
0001FF0000
0000000000
0000000000
0000000000
0000000000
0000000000
ENDCHAR

STARTCHAR cns1_2560
ENCODING 9568
SWIDTH 960 0
DWIDTH 34 0
BBX 34 34 0 -2
BITMAP
0000000000
0000000000
0000000000
0000000000
0000006000
00001FF800
03FFFFF800
07FFC00000
00F0E00000
00F0F00000
00E0F00000
00E0E00000
01E1E3C000
01C3FFF000
03FFE0F000
03FBC0F000
078380F000
000781E000
000701E000
000E01E000
001E03C000
001C03C000
0038038000
0070038000
0070070000
00E0070000
01C00E0000
03000E0000
06000C0000
0000000000
0000000000
0000000000
0000000000
0000000000
ENDCHAR

STARTCHAR cns1_2561
ENCODING 9569
SWIDTH 960 0
DWIDTH 34 0
BBX 34 34 0 -2
BITMAP
0000000000
0000000000
0000000000
0000000000
0000000000
0000000000
0001E00000
0003F00000
000FE00000
003EE00000
01FCE00000
07F0E00000
07C0E00000
0080E00000
0000E00000
0000700000
0000700000
0000700000
0000780000
0000380000
00003C0000
00001E0000
00001F0000
00000F8000
000007C000
000003F000
000001FC00
000000FE00
0000006000
0000000000
0000000000
0000000000
0000000000
0000000000
ENDCHAR

STARTCHAR cns1_2562
ENCODING 9570
SWIDTH 960 0
DWIDTH 34 0
BBX 34 34 0 -2
BITMAP
0000000000
0000000000
0000000000
0000000000
0000E00000
0000F00000
0000F80000
0000F00000
0001E00000
0001E00000
0003C0F000
000780F000
000700F800
000E01F000
001E03E000
003C03C000
0078078000
00FFFF0000
03FFFE0000
07FC3C0000
03C0780000
0001E60000
0003CF0000
0007838000
001F01E000
003C07F000
00FFFEF800
01FFF07800
01F8007800
0000003800
0000000000
0000000000
0000000000
0000000000
ENDCHAR

STARTCHAR cns1_2563
ENCODING 9571
SWIDTH 960 0
DWIDTH 34 0
BBX 34 34 0 -2
BITMAP
0000000000
0000000000
0000000000
0000000000
0000000000
000003C000
0000FFE000
01FFFFE000
00FF83C000
003003C000
0000078000
00000F0000
00780F0000
001C1E0000
000FBC0000
0003FC0000
0001F80000
0000FC0000
0000FE0000
0001FF0000
0003CF8000
000707C000
000E03E000
001C01F000
007800F800
00F0007C00
01C0003C00
0380001C00
0E00000000
0800000000
0000000000
0000000000
0000000000
0000000000
ENDCHAR

STARTCHAR cns1_2564
ENCODING 9572
SWIDTH 960 0
DWIDTH 34 0
BBX 34 34 0 -2
BITMAP
0000000000
0000000000
0000000000
0000000000
0000078000
00FFFFC000
01FFE7C000
007003C000
0000078000
0078070000
00780F0000
00780E0000
00701E0000
00F01C0000
00E03FF000
01FFFFF800
03FFE07800
07F800F800
078000F000
000000F000
000001E000
000001E000
000003C000
0000038000
0000078000
00000F0000
00000E0000
00001C0000
0000380000
0000100000
0000000000
0000000000
0000000000
0000000000
ENDCHAR

STARTCHAR cns1_2565
ENCODING 9573
SWIDTH 960 0
DWIDTH 34 0
BBX 34 34 0 -2
BITMAP
0000000000
0000000000
0000000000
0000000000
0078000000
0078000000
0078000000
0078000000
0078000000
0070000000
00F0000000
00E0000000
00E0000000
01E0000000
01C0000000
03C07FF800
03FFFFFC00
07FF807C00
07C0003C00
0000007800
0000007000
000000F000
000000F000
000001E000
000001C000
000001C000
0000038000
0000030000
0000070000
0000060000
0000000000
0000000000
0000000000
0000000000
ENDCHAR

STARTCHAR cns1_2566
ENCODING 9574
SWIDTH 960 0
DWIDTH 34 0
BBX 34 34 0 -2
BITMAP
0000000000
0000000000
0000000000
0000C00000
0001E00000
0000F00000
0000F00000
0000F00000
0000E00000
0000E00000
0000E00000
0000E00000
0000E1E000
0007FFF800
03FFF03000
01FDF00000
0001F00000
0003F80000
0003F80000
0007F00000
0007700000
000E700000
001E700000
003C700000
0038700000
0070700000
00E0700000
01C0780C00
07803FFF00
0E001FFF00
0800000000
0000000000
0000000000
0000000000
ENDCHAR

STARTCHAR cns1_2567
ENCODING 9575
SWIDTH 960 0
DWIDTH 34 0
BBX 34 34 0 -2
BITMAP
0000000000
0000000000
0000000000
0000000000
0000000000
0001800000
0003E00000
0003F00000
0003E00000
0003E00000
0003C00000
0003C00000
0007800000
0007800000
0007000000
000F000000
000E000000
001E000000
003C000000
0038000000
0078000000
0070000000
00E0000000
01E0000000
01C0000000
038001F000
07FFFFFC00
0FFFFFFC00
0F80000000
0000000000
0000000000
0000000000
0000000000
0000000000
ENDCHAR

STARTCHAR cns1_2568
ENCODING 9576
SWIDTH 960 0
DWIDTH 34 0
BBX 34 34 0 -2
BITMAP
0000000000
0000000000
0000000000
0000000000
0000600000
0020F80000
00787C0000
007C7C0000
0038780000
0038780000
0038780000
0038780000
0038780000
0038780000
0038780000
0038780000
0030780000
0070780000
0070780000
0070780000
0070780000
00E0780000
00E0780000
01E0780000
01C07C0000
03803E0C00
07001FFF00
060007FE00
0C00000000
0000000000
0000000000
0000000000
0000000000
0000000000
ENDCHAR

STARTCHAR cns1_2569
ENCODING 9577
SWIDTH 960 0
DWIDTH 34 0
BBX 34 34 0 -2
BITMAP
0000000000
0000000000
0000000000
0000000000
0000000000
0000000000
0000000000
0000000000
0000000000
0000000000
0000000000
0000000000
0000000000
0000000000
0000000000
00003FFC00
0FFFFFFF00
0FFFFF0600
01C0000000
0000000000
0000000000
0000000000
0000000000
0000000000
0000000000
0000000000
0000000000
0000000000
0000000000
0000000000
0000000000
0000000000
0000000000
0000000000
ENDCHAR

STARTCHAR cns1_256A
ENCODING 9578
SWIDTH 960 0
DWIDTH 34 0
BBX 34 34 0 -2
BITMAP
0000000000
0000000000
0000000000
0000000000
000003C000
000003E000
000003E000
008007C000
01E007C000
0070078000
00380F0000
001C1F0000
000F1E0000
0007BC0000
0003FC0000
0001F80000
0000F80000
0000FC0000
0001FE0000
0003DF0000
00078F8000
000F078000
001E03E000
003C03F000
007801F800
00F000F800
01E0007800
0380007800
0F00003800
0400000000
0000000000
0000000000
0000000000
0000000000
ENDCHAR

STARTCHAR cns1_256B
ENCODING 9579
SWIDTH 960 0
DWIDTH 34 0
BBX 34 34 0 -2
BITMAP
0000000000
0000000000
0000000000
0000000000
0000000000
0000000000
0000000000
000000E000
030000F800
0780007800
03C0007800
0380007800
0380007800
0380007800
0380007800
0380007800
0380003800
0380003800
0380003800
0380003800
0380003800
0380003800
0380003800
03C1FFF800
03FFFFF800
03FFE03800
0000003800
0000000000
0000000000
0000000000
0000000000
0000000000
0000000000
0000000000
ENDCHAR

STARTCHAR cns1_256C
ENCODING 9580
SWIDTH 960 0
DWIDTH 34 0
BBX 34 34 0 -2
BITMAP
0000000000
0000000000
0000000000
0000000000
0000000000
0000000000
0000000000
0000000000
0000000000
0000000000
0000000000
0000000000
0000000000
0000000000
0003F00000
0007F80000
0007F80000
0007F80000
0003F00000
0001E00000
0000000000
0000000000
0000000000
0000000000
0000000000
0000000000
0000000000
0000000000
0000000000
0000000000
0000000000
0000000000
0000000000
0000000000
ENDCHAR

STARTCHAR cns1_256D
ENCODING 9581
SWIDTH 960 0
DWIDTH 34 0
BBX 34 34 0 -2
BITMAP
0000000000
0000000000
0000000000
0000000000
0000000000
0000000000
0000000000
0000000000
0000000000
0000000000
0000000000
0000000000
0000000000
0000000000
0000000000
0000000000
0000000000
0000000000
0000000000
0000000000
0000000000
0000000000
0000000000
0000000000
0000000000
0000000000
0000000000
0000000000
0000000000
0000000000
0000000000
0000000000
0000000000
0000000000
ENDCHAR

STARTCHAR cns1_256E
ENCODING 9582
SWIDTH 960 0
DWIDTH 34 0
BBX 34 34 0 -2
BITMAP
0000000000
0000000000
0000000000
0000000000
0000000000
0000000000
0000000000
0000000000
0000000000
0000000000
0000000000
0000070000
00000E0000
00001E0000
00003C0000
00007C0000
0000F80000
0001F00000
0003E00000
0007C00000
001F800000
003F000000
001E000000
000C000000
0000000000
0000000000
0000000000
0000000000
0000000000
0000000000
0000000000
0000000000
0000000000
0000000000
ENDCHAR

STARTCHAR cns1_256F
ENCODING 9583
SWIDTH 960 0
DWIDTH 34 0
BBX 34 34 0 -2
BITMAP
0000000000
0000000000
0000000000
0000000000
0000000000
0000000000
0000000000
0000000000
0000006000
000000F000
000001F000
000003E000
000007C000
00780F8000
003C1F0000
003C3E0000
003C7C0000
003CF80000
003DF00000
003FE00000
001FC00000
001F800000
001F000000
001E000000
0000000000
0000000000
0000000000
0000000000
0000000000
0000000000
0000000000
0000000000
0000000000
0000000000
ENDCHAR

STARTCHAR cns1_2570
ENCODING 9584
SWIDTH 960 0
DWIDTH 34 0
BBX 34 34 0 -2
BITMAP
0000000000
0000000000
0000000000
0000000000
0000000000
0000000000
0000000000
0000000000
0000000000
0000000000
001C000000
001E000000
003F000000
001F800000
0007C00000
0003E00000
0001F00000
0000F80000
0000780000
00003C0000
00001E0000
00000E0000
0000070000
0000000000
0000000000
0000000000
0000000000
0000000000
0000000000
0000000000
0000000000
0000000000
0000000000
0000000000
ENDCHAR

STARTCHAR cns1_2621
ENCODING 9761
SWIDTH 960 0
DWIDTH 34 0
BBX 34 34 0 -2
BITMAP
0000000000
0000000000
0000000000
0000000000
0000000000
0007FE0000
001C078000
0038018000
007000C000
0080407000
0180C03800
0381C01800
0300401800
0600400800
0400400800
0400400400
0400400400
0400400400
0400400400
0400400800
0600400800
0300401800
0300401800
0180E03000
0183F83000
0060004000
0078018000
001C078000
0007FE0000
0000000000
0000000000
0000000000
0000000000
0000000000
ENDCHAR

STARTCHAR cns1_2622
ENCODING 9762
SWIDTH 960 0
DWIDTH 34 0
BBX 34 34 0 -2
BITMAP
0000000000
0000000000
0000000000
0000000000
0000000000
0007FE0000
001C078000
0038018000
007000C000
0081F87000
0183F83800
0387981800
03070C1800
06070C0800
04060C0800
0400080400
0400180400
0400780400
0400600400
0400C00800
0601840800
0707041800
03060C1800
0387F83000
0187F87000
006000C000
0078018000
001C078000
0007FE0000
0000000000
0000000000
0000000000
0000000000
0000000000
ENDCHAR

STARTCHAR cns1_2623
ENCODING 9763
SWIDTH 960 0
DWIDTH 34 0
BBX 34 34 0 -2
BITMAP
0000000000
0000000000
0000000000
0000000000
0000000000
0007FE0000
001C078000
0038038000
007000C000
0081F87000
0183B83800
0387981800
03070C1800
06030C0800
0400180800
0400380400
0400F80400
0400180400
04000C0400
04000C0800
06030C0800
0306081800
0387183800
0183B83000
0181F07000
007000C000
0078018000
001C078000
0007FE0000
0000000000
0000000000
0000000000
0000000000
0000000000
ENDCHAR

STARTCHAR cns1_2624
ENCODING 9764
SWIDTH 960 0
DWIDTH 34 0
BBX 34 34 0 -2
BITMAP
0000000000
0000000000
0000000000
0000000000
0000000000
0007FE0000
0018078000
0038038000
007000C000
0080707000
0180703800
0380701800
0300F01800
0601B00800
0401B00800
0403700400
0407700400
0404700400
040C700400
0418700800
063FF80800
0300701800
0380701800
0180703800
0180F87000
006000C000
0078038000
001C078000
0007FE0000
0000000000
0000000000
0000000000
0000000000
0000000000
ENDCHAR

STARTCHAR cns1_2625
ENCODING 9765
SWIDTH 960 0
DWIDTH 34 0
BBX 34 34 0 -2
BITMAP
0000000000
0000000000
0000000000
0000000000
0000000000
0007FE0000
001C078000
0038018000
0070004000
0087F87000
0187F83800
0384001800
0704001800
0604000800
0404600800
0405F80400
0407B80400
04000C0400
04000C0400
0400040800
06060C0800
0707081800
0386181800
0187B83800
0183F07000
007000C000
0078018000
001C078000
000FFE0000
0000000000
0000000000
0000000000
0000000000
0000000000
ENDCHAR

STARTCHAR cns1_2626
ENCODING 9766
SWIDTH 960 0
DWIDTH 34 0
BBX 34 34 0 -2
BITMAP
0000000000
0000000000
0000000000
0000000000
0000000000
0007FE0000
001C078000
0038038000
007000C000
0081F87000
0183983800
0387081800
0306081800
0604000800
040C600800
0409F80400
040F980400
040E0C0400
040C0C0400
040C0C0800
06040C0800
0706081800
0387181800
0183F83000
0180E07000
006000C000
0078018000
001C078000
0007FE0000
0000000000
0000000000
0000000000
0000000000
0000000000
ENDCHAR

STARTCHAR cns1_2627
ENCODING 9767
SWIDTH 960 0
DWIDTH 34 0
BBX 34 34 0 -2
BITMAP
0000000000
0000000000
0000000000
0000000000
0000000000
0007FE0000
001C078000
0038018000
007000C000
0087FC7000
0187FC3800
0387FC1800
07060C0800
0604180800
0400180400
0400380400
0400380400
0400700400
0400600400
0400600400
0600600800
0700C00800
0380C01800
0180C03800
0180C03000
0060004000
0078018000
0018078000
000FFE0000
0000000000
0000000000
0000000000
0000000000
0000000000
ENDCHAR

STARTCHAR cns1_2628
ENCODING 9768
SWIDTH 960 0
DWIDTH 34 0
BBX 34 34 0 -2
BITMAP
0000000000
0000000000
0000000000
0000000000
0000000000
000FFE0000
0018078000
0038018000
007000C000
0081F87000
0183983800
0383881800
03070C1800
06070C0800
0403880800
0403980400
0401F80400
0403980400
04030C0400
04070C0400
0606040800
03060C1800
0307181800
0183F83800
0180F03000
0060004000
0078018000
001C078000
0007FE0000
0000000000
0000000000
0000000000
0000000000
0000000000
ENDCHAR

STARTCHAR cns1_2629
ENCODING 9769
SWIDTH 960 0
DWIDTH 34 0
BBX 34 34 0 -2
BITMAP
0000000000
0000000000
0000000000
0000000000
0000000000
0007FE0000
0018078000
0038018000
007000C000
0080707000
0181F83800
0383B81800
0307181800
06060C0800
04060C0800
04060C0400
04060C0400
0407BC0400
0403FC0400
0400CC0800
0600080800
0706081800
0386181800
0187B83800
0183F07000
0060004000
0078018000
003C078000
000FFE0000
0000000000
0000000000
0000000000
0000000000
0000000000
ENDCHAR

STARTCHAR cns1_262A
ENCODING 9770
SWIDTH 960 0
DWIDTH 34 0
BBX 34 34 0 -2
BITMAP
0000000000
0000000000
0000000000
0000000000
0000000000
0007FE0000
0018078000
0038018000
007000C000
0084067000
018C1F3800
039C3B9800
037C399800
0604718800
0404608800
0404608400
0404608400
0404608400
0404608400
0404608800
0604608800
0704319800
03043B9800
038E1F3800
01BF8E3000
0040006000
007001C000
0018078000
000FFE0000
0000000000
0000000000
0000000000
0000000000
0000000000
ENDCHAR

STARTCHAR cns1_262B
ENCODING 9771
SWIDTH 960 0
DWIDTH 34 0
BBX 34 34 0 -2
BITMAP
0000000000
0000000000
0000000000
0000000000
0000000000
0060008000
0040004000
0080006000
0080407000
0307C01800
0300401800
0600400800
0600400800
0400400400
0400400400
0400400400
0400400400
0400400400
0400400400
0400400400
0400400400
0600400800
0600400800
0600400800
0300E01800
0187183000
0180007000
0080006000
0040004000
0020008000
0000000000
0000000000
0000000000
0000000000
ENDCHAR

STARTCHAR cns1_262C
ENCODING 9772
SWIDTH 960 0
DWIDTH 34 0
BBX 34 34 0 -2
BITMAP
0000000000
0000000000
0000000000
0000000000
0000000000
0060008000
0040004000
0080006000
0080E07000
0303B81800
03060C1800
06040C0800
06060C0800
04070C0400
04000C0400
0400180400
0400180400
0400700400
0400600400
0400C00400
0401800400
0603040800
0606040800
0606040800
0307FC1800
0180003000
0180007000
0080006000
0040004000
0020008000
0000000000
0000000000
0000000000
0000000000
ENDCHAR

STARTCHAR cns1_262D
ENCODING 9773
SWIDTH 960 0
DWIDTH 34 0
BBX 34 34 0 -2
BITMAP
0000000000
0000000000
0000000000
0000000000
0000000000
0060008000
0040004000
0080006000
0080007000
0303F81800
0307181800
06060C0800
06070C0800
04000C0400
0400080400
0400180400
0400780400
0401E00400
0400180400
0400080400
04000C0400
06060C0800
060F0C0800
06040C0800
0306181800
0183E03000
0180007000
0080006000
0040004000
0020008000
0000000000
0000000000
0000000000
0000000000
ENDCHAR

STARTCHAR cns1_262E
ENCODING 9774
SWIDTH 960 0
DWIDTH 34 0
BBX 34 34 0 -2
BITMAP
0000000000
0000000000
0000000000
0000000000
0000000000
0060008000
0040004000
0080006000
0080187000
0300381800
0300781800
0600780800
0600780800
0400B80400
0401B80400
0403380400
0407380400
0404380400
040C380400
0408380400
0418380400
0607FF0800
0600380800
0600380800
0300781800
0180863000
0180007000
0080006000
0040004000
0020008000
0000000000
0000000000
0000000000
0000000000
ENDCHAR

STARTCHAR cns1_262F
ENCODING 9775
SWIDTH 960 0
DWIDTH 34 0
BBX 34 34 0 -2
BITMAP
0000000000
0000000000
0000000000
0000000000
0000000000
0060008000
0040004000
0080006000
0087F87000
0307F81800
0304001800
0604000800
0604000800
0404C00400
0407F00400
0407580400
0406180400
04000C0400
04000C0400
04000C0400
04000C0400
060E0C0800
060E0C0800
0604180800
0307381800
0181E03000
0180007000
0080006000
0040004000
0020008000
0000000000
0000000000
0000000000
0000000000
ENDCHAR

STARTCHAR cns1_2630
ENCODING 9776
SWIDTH 960 0
DWIDTH 34 0
BBX 34 34 0 -2
BITMAP
0000000000
0000000000
0000000000
0000000000
0000000000
0060008000
0040004000
0080006000
0080607000
0303981800
03030C1800
06070C0800
0606040800
0404000400
040C000400
040C600400
040DF80400
040E0C0400
040C040400
040C060400
040C060400
060C060800
06060C0800
06060C0800
0307B81800
0180E03000
0180007000
0080006000
0040004000
0020008000
0000000000
0000000000
0000000000
0000000000
ENDCHAR

STARTCHAR cns1_2631
ENCODING 9777
SWIDTH 960 0
DWIDTH 34 0
BBX 34 34 0 -2
BITMAP
0000000000
0000000000
0000000000
0000000000
0000000000
0060008000
0040004000
0080006000
0087FC7000
0307FC1800
0304081800
0608080800
0608180800
0400380400
0400300400
0400700400
0400600400
0400400400
0400C00400
0400C00400
0400C00400
0600C00800
0600C00800
0600C00800
0300C01800
0180003000
0180007000
0080006000
0040004000
0020008000
0000000000
0000000000
0000000000
0000000000
ENDCHAR

STARTCHAR cns1_2632
ENCODING 9778
SWIDTH 960 0
DWIDTH 34 0
BBX 34 34 0 -2
BITMAP
0000000000
0000000000
0000000000
0000000000
0000000000
0060008000
0040004000
0080006000
0080787000
03038C1800
0307041800
0606060800
0606060800
0407040400
0403880400
0403980400
0401F80400
0407180400
04060C0400
0404040400
040C060400
0608060800
0604040800
06060C0800
0307B81800
0180E03000
0180007000
0080006000
0040004000
0020008000
0000000000
0000000000
0000000000
0000000000
ENDCHAR

STARTCHAR cns1_2633
ENCODING 9779
SWIDTH 960 0
DWIDTH 34 0
BBX 34 34 0 -2
BITMAP
0000000000
0000000000
0000000000
0000000000
0000000000
0060008000
0040004000
0080006000
0080607000
0303981800
0307081800
06060C0800
06060C0800
0404060400
0404060400
0404060400
0404060400
0407BE0400
0403F60400
0400C60400
0400060400
06020C0800
06070C0800
0607880800
0307181800
0180E03000
0180007000
0080006000
0040004000
0020008000
0000000000
0000000000
0000000000
0000000000
ENDCHAR

STARTCHAR cns1_2634
ENCODING 9780
SWIDTH 960 0
DWIDTH 34 0
BBX 34 34 0 -2
BITMAP
0000000000
0000000000
0000000000
0000000000
0000000000
0060008000
0040004000
0080006000
0084047000
033C3F1800
030C639800
060C618800
060C418800
040C408400
040C408400
040C408400
040C408400
040C408400
040C408400
040C408400
040C408400
060C618800
060C618800
060C338800
030C1F1800
01B3803000
0180007000
0080006000
0040004000
0020008000
0000000000
0000000000
0000000000
0000000000
ENDCHAR

ENDFONT
